{"glyphs":{"0":{"ha":776,"x_min":43,"x_max":743,"o":"m 400 654 q 419 644 410 649 q 436 632 428 639 q 483 602 460 617 q 529 574 506 588 q 536 568 532 572 q 543 561 540 567 q 536 553 543 553 l 529 553 q 525 554 526 554 q 522 556 524 554 q 503 566 513 561 q 483 576 493 571 q 445 599 464 588 q 407 624 426 611 q 394 632 400 628 q 381 640 388 636 q 376 642 378 642 q 371 643 374 642 q 367 644 369 644 q 366 640 365 642 q 367 636 367 639 q 376 622 369 628 q 389 608 382 615 q 425 585 407 594 q 469 563 447 575 l 482 554 q 490 547 485 553 q 492 535 496 540 q 481 529 489 529 q 468 531 476 528 q 450 538 460 533 q 425 548 438 543 q 400 560 413 553 q 388 565 393 563 q 375 569 382 567 q 373 571 374 571 q 371 572 372 571 q 374 568 371 571 q 389 556 381 561 q 404 544 397 551 q 431 524 418 533 q 458 506 444 515 q 465 499 461 503 q 472 493 469 496 q 478 486 476 489 q 480 472 483 478 q 465 467 476 467 q 453 469 461 467 q 450 470 451 469 q 446 471 449 471 q 449 468 449 468 q 461 460 456 464 q 471 450 467 456 q 481 439 475 447 q 485 429 485 435 q 472 413 488 418 q 456 413 464 411 q 440 414 449 413 q 425 418 432 415 q 421 419 424 419 l 421 419 q 422 418 421 418 q 422 417 422 418 q 430 408 426 413 q 435 397 433 403 q 438 394 438 394 q 447 388 443 392 q 454 379 450 383 q 472 360 463 369 q 489 342 481 351 q 502 327 496 335 q 515 313 508 319 q 522 301 518 306 q 528 289 525 296 q 532 272 532 281 q 513 247 532 256 q 489 246 499 244 q 473 247 481 246 q 457 251 465 249 q 428 261 442 256 q 400 274 414 267 q 387 280 393 276 q 374 286 381 283 q 372 288 372 288 q 369 289 371 288 l 368 288 q 346 276 361 279 q 332 276 339 276 q 318 279 325 276 q 314 280 315 279 q 310 281 313 281 q 313 278 310 281 q 318 269 315 274 q 324 261 321 265 q 329 249 326 257 q 322 232 331 238 q 301 229 314 226 q 289 233 294 231 q 276 239 283 236 q 265 246 272 244 q 264 244 264 246 l 264 243 q 268 238 263 242 q 286 226 278 232 q 303 214 294 221 q 364 122 347 171 q 368 101 367 111 q 367 79 369 90 q 358 61 365 69 q 332 47 349 49 q 297 54 315 44 q 269 76 279 64 q 247 111 256 92 q 233 161 238 133 q 231 191 231 176 q 232 221 231 206 l 232 225 l 228 225 q 215 218 218 222 q 204 208 211 215 q 195 198 199 203 q 188 188 192 193 q 169 169 179 178 q 163 165 167 167 q 156 161 158 164 q 107 169 131 153 q 85 190 93 178 q 69 223 74 206 q 65 257 64 240 q 75 286 68 275 q 83 294 79 290 q 94 301 88 299 q 102 303 99 303 q 110 304 106 304 q 115 301 115 301 q 113 300 115 300 q 93 290 100 300 q 83 267 83 278 q 100 206 79 236 q 114 190 104 197 q 118 188 117 189 q 122 185 119 186 q 139 183 129 181 q 151 193 149 188 q 165 208 157 197 q 176 219 171 214 q 185 231 181 225 q 201 243 192 238 q 232 249 217 250 l 235 249 q 236 251 235 250 q 238 260 236 257 q 239 265 238 264 q 236 271 239 269 q 215 296 224 283 q 207 311 208 306 q 204 321 204 314 q 207 329 204 324 q 205 331 206 331 q 203 332 204 331 q 199 335 200 333 q 196 338 199 336 q 196 353 189 346 q 214 356 203 360 q 218 354 217 356 q 222 351 219 353 q 296 315 260 329 q 309 311 303 313 q 322 307 315 310 q 332 306 329 307 l 338 306 l 335 308 q 249 364 292 333 q 214 388 231 376 q 181 413 197 400 q 149 440 164 426 q 118 469 133 454 q 69 522 93 496 q 51 549 57 538 q 44 565 46 560 q 44 572 44 568 q 44 578 43 575 q 69 592 49 594 q 79 590 75 592 q 89 586 83 589 q 103 580 96 583 q 117 572 110 576 q 145 556 132 564 q 171 536 158 547 l 208 503 q 242 473 225 488 q 274 443 258 458 q 306 410 290 426 q 336 375 322 393 q 347 361 343 368 q 357 347 351 354 q 371 318 365 332 q 374 315 371 315 q 450 281 408 296 q 471 275 457 278 q 478 273 475 274 q 486 272 482 272 q 496 274 493 272 q 500 278 500 274 q 499 286 500 283 q 492 301 497 290 q 482 317 488 310 q 469 332 476 325 q 455 351 463 342 q 440 368 447 360 q 436 374 438 371 q 432 379 435 376 q 429 378 431 378 q 410 374 422 371 q 389 379 403 374 q 350 401 368 388 q 310 443 326 419 q 300 460 301 454 q 300 475 297 469 q 298 476 299 476 q 296 478 297 476 q 290 481 296 478 q 289 490 285 486 q 299 492 290 494 q 304 489 301 492 q 353 467 328 478 q 404 446 378 456 q 421 440 413 443 q 439 435 429 438 q 445 434 442 435 q 453 433 449 433 q 458 432 454 432 q 457 435 457 435 l 446 446 q 431 456 439 451 q 415 467 424 461 q 383 485 400 476 q 351 504 367 494 q 337 513 344 508 q 321 521 329 517 q 317 524 318 522 q 314 526 317 525 q 310 529 311 529 q 308 540 306 535 q 318 544 311 544 q 328 542 322 544 q 358 531 342 538 q 388 517 374 524 q 418 504 403 511 q 421 503 419 504 q 424 503 422 503 l 424 503 q 421 506 424 503 q 398 521 410 513 q 375 538 386 529 q 358 551 367 544 q 343 564 350 557 q 338 569 340 567 q 333 574 336 571 q 331 578 332 576 q 328 582 329 579 q 343 601 321 601 q 358 600 347 603 q 363 599 361 600 q 368 599 365 599 l 365 601 q 346 626 351 613 q 340 642 340 635 q 342 654 338 650 q 363 667 346 667 q 379 664 368 667 q 390 659 385 661 q 400 654 394 657 m 264 214 q 262 215 263 214 q 260 215 261 215 l 260 215 q 258 202 258 208 q 257 189 258 196 l 257 185 q 258 159 257 172 q 264 132 260 146 q 278 100 268 113 q 296 78 286 88 q 303 73 300 75 q 311 69 307 71 q 335 74 326 65 q 338 79 338 79 q 340 97 340 85 q 336 119 340 110 q 320 155 331 139 q 296 186 310 171 q 264 214 282 201 m 217 322 q 214 324 217 324 q 215 319 215 322 q 222 310 221 311 l 239 293 q 265 274 250 283 q 286 263 281 264 l 282 267 q 251 296 267 282 q 217 322 235 310 m 317 349 q 319 346 319 346 q 318 350 319 349 q 308 363 313 358 q 281 397 296 381 q 249 429 265 414 q 233 445 242 438 q 218 460 225 453 q 188 489 203 475 q 156 517 172 503 q 131 537 144 528 q 104 554 118 546 q 90 563 97 558 q 72 569 82 567 q 69 571 71 571 q 65 572 68 571 q 67 568 67 569 q 70 561 69 565 q 74 554 71 557 q 81 542 76 547 q 92 529 86 536 q 118 500 104 514 q 147 472 132 486 q 172 450 160 461 q 199 429 185 439 q 233 403 215 415 q 268 381 250 392 q 317 349 293 363 m 378 421 q 319 463 351 444 q 318 464 318 464 l 317 463 q 335 444 325 453 q 356 429 344 436 q 392 408 374 415 q 390 411 390 410 q 384 416 388 414 q 378 421 381 418 m 646 760 q 666 748 657 753 q 685 736 675 743 q 695 731 690 733 q 706 726 700 729 q 711 725 707 725 q 728 725 719 721 q 732 728 731 728 q 736 732 733 729 q 738 733 738 732 q 740 733 738 733 q 740 729 743 732 q 735 717 738 719 q 710 708 725 707 q 694 711 706 708 q 672 718 683 714 q 650 728 661 722 q 624 739 638 732 q 618 742 624 739 l 618 739 q 622 731 621 735 q 626 724 624 728 q 646 693 636 707 q 651 685 649 689 q 657 676 654 681 q 659 672 658 674 q 661 667 660 669 q 660 654 664 660 q 642 646 654 643 q 632 649 638 646 q 626 650 629 649 q 628 648 628 649 q 629 646 628 647 q 635 628 635 635 q 633 608 638 617 q 606 596 624 594 q 595 597 600 596 q 585 600 590 599 q 578 603 582 601 q 572 606 575 604 q 573 603 572 604 q 574 601 574 603 q 572 586 576 593 q 544 576 565 572 q 526 585 535 578 q 475 651 486 611 q 476 674 472 664 q 483 682 478 676 q 490 681 488 683 q 498 681 494 682 q 506 676 501 679 l 556 647 q 593 631 575 638 q 597 629 596 629 q 600 628 597 629 q 599 631 600 631 q 599 632 599 631 q 592 644 596 639 q 585 657 589 650 q 578 666 582 661 q 572 675 575 671 q 565 682 571 679 q 501 721 529 701 q 431 772 465 744 q 368 828 397 799 q 325 878 344 849 q 319 888 322 883 q 313 900 315 893 q 310 911 310 908 q 311 922 308 915 q 332 932 315 932 q 349 926 343 929 q 379 908 367 918 q 413 883 397 896 q 444 856 429 869 q 583 713 521 788 q 601 689 590 703 q 603 686 603 688 q 607 683 604 685 q 615 681 611 682 q 621 678 618 679 l 622 678 l 619 681 q 610 694 615 688 q 600 708 606 701 q 592 721 596 715 q 585 733 588 726 q 582 742 583 738 q 581 750 581 746 q 582 765 578 760 q 613 775 592 782 q 629 768 618 774 l 646 760 m 468 797 q 442 823 454 810 q 415 849 429 836 q 389 872 401 861 q 361 894 376 883 q 349 902 354 899 q 336 908 343 906 q 331 911 333 911 q 332 907 331 908 q 338 896 335 899 q 345 883 340 889 q 354 871 350 878 q 378 844 365 857 q 404 819 390 831 q 493 751 444 783 q 528 729 508 740 q 532 726 531 726 q 501 763 517 746 q 468 797 485 779 m 510 629 q 525 616 517 622 q 538 608 533 610 q 493 654 518 638 q 510 629 500 642 m 500 492 q 524 533 506 514 q 533 544 528 539 q 544 556 538 550 q 568 569 557 565 q 588 574 579 574 q 635 556 615 575 q 653 528 646 544 q 658 506 657 517 q 657 483 658 494 q 622 406 653 438 q 585 382 607 390 l 568 378 q 511 401 532 375 q 509 404 510 403 q 507 407 508 406 q 506 410 506 408 q 504 413 506 411 l 503 413 q 500 417 499 414 q 500 424 500 417 q 494 464 492 443 q 496 478 494 471 q 500 492 497 485 m 638 532 q 628 549 632 543 q 589 565 614 565 q 567 563 579 567 q 525 531 540 553 q 512 506 517 518 q 504 478 507 493 q 506 435 501 456 q 507 431 506 432 q 508 432 508 432 q 510 437 510 435 q 514 442 511 439 q 513 446 515 443 q 508 457 508 453 q 517 478 508 469 q 528 481 522 483 q 535 472 535 478 q 535 461 536 467 q 532 453 533 457 q 529 444 531 449 q 528 443 529 443 q 531 442 531 442 q 542 438 538 439 q 554 433 547 436 q 562 431 558 432 q 569 426 565 429 q 572 424 571 425 q 575 421 574 424 q 574 415 578 418 l 569 415 q 547 421 557 415 q 538 427 543 424 q 529 433 533 431 q 525 436 528 433 l 524 435 q 518 427 521 431 q 513 419 515 424 q 513 417 511 418 q 517 410 515 414 q 521 404 518 407 q 564 388 538 383 q 582 393 575 390 q 611 415 599 400 q 642 485 638 446 q 638 532 646 507 m 521 460 q 522 469 522 463 q 522 472 522 469 l 521 472 q 518 471 519 472 q 511 460 514 468 q 513 453 511 456 l 517 449 q 519 454 518 451 q 521 460 519 457 m 581 501 q 583 494 582 497 q 583 488 585 490 q 587 486 586 486 q 590 485 588 486 q 607 480 599 482 q 624 475 615 478 q 629 472 624 475 q 635 464 635 468 q 624 458 633 458 q 618 461 624 458 q 599 468 608 464 q 581 475 590 472 q 578 476 579 475 q 576 476 578 476 q 579 472 576 474 q 588 467 583 469 q 597 463 593 465 q 603 459 600 461 q 608 454 606 457 q 614 421 622 438 q 607 414 611 417 q 603 412 604 413 q 600 410 603 411 q 583 417 588 407 q 578 428 581 419 q 576 440 576 435 q 575 453 575 446 q 574 464 574 457 q 569 468 574 468 q 564 471 569 468 q 565 468 565 469 q 568 453 572 460 q 551 447 563 447 q 547 449 549 449 q 542 450 544 449 q 540 457 535 454 q 543 458 542 457 q 546 458 544 458 q 549 459 549 458 q 553 460 550 460 q 554 463 557 460 q 551 468 554 465 q 547 474 549 471 q 543 479 546 476 q 542 480 542 479 q 540 481 542 481 q 540 483 538 483 q 543 485 542 485 q 545 484 544 485 q 547 483 546 483 q 558 479 553 481 q 569 475 564 478 l 571 475 q 568 481 572 478 q 559 485 564 483 q 549 490 554 488 q 547 492 547 492 q 544 493 546 492 q 543 497 542 496 q 546 499 543 499 l 549 499 q 548 500 549 500 q 547 501 547 500 q 550 517 543 511 q 568 517 558 525 q 575 510 572 514 q 581 501 578 507 m 604 429 q 596 454 608 442 q 589 458 593 457 q 582 463 585 460 q 581 463 581 463 q 579 464 581 464 l 579 463 q 589 431 583 444 q 592 425 589 428 q 599 424 594 419 q 601 426 601 425 q 604 429 601 426 m 567 501 q 561 510 564 507 q 556 513 558 513 q 553 508 553 513 q 556 499 551 504 q 568 493 561 494 q 567 497 568 496 q 567 501 567 499 m 601 519 q 603 515 603 517 q 604 511 603 514 q 607 507 604 508 q 615 504 613 504 q 621 503 617 503 l 621 508 q 615 524 619 517 q 610 544 613 538 q 611 549 610 549 q 612 547 611 547 q 613 546 613 547 q 623 531 618 539 q 631 517 628 524 q 633 508 633 511 q 633 501 636 504 q 614 492 631 488 q 593 503 600 497 q 568 532 576 515 q 564 542 565 538 q 567 549 564 547 q 578 550 569 556 q 585 546 579 549 q 601 519 597 533 m 578 535 q 586 523 581 528 q 594 515 592 518 q 576 538 588 531 q 577 536 576 536 q 578 535 578 536 z "},"1":{"ha":772,"x_min":43,"x_max":743,"o":"m 400 654 q 419 644 410 649 q 436 632 428 639 q 483 602 460 617 q 529 574 506 588 q 536 568 532 572 q 543 561 540 567 q 536 553 543 553 l 529 553 q 525 554 526 554 q 522 556 524 554 q 503 566 513 561 q 483 576 493 571 q 445 599 464 588 q 407 624 426 611 q 394 632 400 628 q 381 640 388 636 q 376 642 378 642 q 371 643 374 642 q 367 644 369 644 q 366 640 365 642 q 367 636 367 639 q 376 622 369 628 q 389 608 382 615 q 425 585 407 594 q 469 563 447 575 l 482 554 q 490 547 485 553 q 492 535 496 540 q 481 529 489 529 q 468 531 476 528 q 450 538 460 533 q 425 548 438 543 q 400 560 413 553 q 388 565 393 563 q 375 569 382 567 q 373 571 374 571 q 371 572 372 571 q 374 568 371 571 q 389 556 381 561 q 404 544 397 551 q 431 524 418 533 q 458 506 444 515 q 465 499 461 503 q 472 493 469 496 q 478 486 476 489 q 480 472 483 478 q 465 467 476 467 q 453 469 461 467 q 450 470 451 469 q 446 471 449 471 q 449 468 449 468 q 461 460 456 464 q 471 450 467 456 q 481 439 475 447 q 485 429 485 435 q 472 413 488 418 q 456 413 464 411 q 440 414 449 413 q 425 418 432 415 q 421 419 424 419 l 421 419 q 422 418 421 418 q 422 417 422 418 q 430 408 426 413 q 435 397 433 403 q 438 394 438 394 q 447 388 443 392 q 454 379 450 383 q 472 360 463 369 q 489 342 481 351 q 502 327 496 335 q 515 313 508 319 q 522 301 518 306 q 528 289 525 296 q 532 272 532 281 q 513 247 532 256 q 489 246 499 244 q 473 247 481 246 q 457 251 465 249 q 428 261 442 256 q 400 274 414 267 q 387 280 393 276 q 374 286 381 283 q 372 288 372 288 q 369 289 371 288 l 368 288 q 346 276 361 279 q 332 276 339 276 q 318 279 325 276 q 314 280 315 279 q 310 281 313 281 q 313 278 310 281 q 318 269 315 274 q 324 261 321 265 q 329 249 326 257 q 322 232 331 238 q 301 229 314 226 q 289 233 294 231 q 276 239 283 236 q 265 246 272 244 q 264 244 264 246 l 264 243 q 268 238 263 242 q 286 226 278 232 q 303 214 294 221 q 364 122 347 171 q 368 101 367 111 q 367 79 369 90 q 358 61 365 69 q 332 47 349 49 q 297 54 315 44 q 269 76 279 64 q 247 111 256 92 q 233 161 238 133 q 231 191 231 176 q 232 221 231 206 l 232 225 l 228 225 q 215 218 218 222 q 204 208 211 215 q 195 198 199 203 q 188 188 192 193 q 169 169 179 178 q 163 165 167 167 q 156 161 158 164 q 107 169 131 153 q 85 190 93 178 q 69 223 74 206 q 65 257 64 240 q 75 286 68 275 q 83 294 79 290 q 94 301 88 299 q 102 303 99 303 q 110 304 106 304 q 115 301 115 301 q 113 300 115 300 q 93 290 100 300 q 83 267 83 278 q 100 206 79 236 q 114 190 104 197 q 118 188 117 189 q 122 185 119 186 q 139 183 129 181 q 151 193 149 188 q 165 208 157 197 q 176 219 171 214 q 185 231 181 225 q 201 243 192 238 q 232 249 217 250 l 235 249 q 236 251 235 250 q 238 260 236 257 q 239 265 238 264 q 236 271 239 269 q 215 296 224 283 q 207 311 208 306 q 204 321 204 314 q 207 329 204 324 q 205 331 206 331 q 203 332 204 331 q 199 335 200 333 q 196 338 199 336 q 196 353 189 346 q 214 356 203 360 q 218 354 217 356 q 222 351 219 353 q 296 315 260 329 q 309 311 303 313 q 322 307 315 310 q 332 306 329 307 l 338 306 l 335 308 q 249 364 292 333 q 214 388 231 376 q 181 413 197 400 q 149 440 164 426 q 118 469 133 454 q 69 522 93 496 q 51 549 57 538 q 44 565 46 560 q 44 572 44 568 q 44 578 43 575 q 69 592 49 594 q 79 590 75 592 q 89 586 83 589 q 103 580 96 583 q 117 572 110 576 q 145 556 132 564 q 171 536 158 547 l 208 503 q 242 473 225 488 q 274 443 258 458 q 306 410 290 426 q 336 375 322 393 q 347 361 343 368 q 357 347 351 354 q 371 318 365 332 q 374 315 371 315 q 450 281 408 296 q 471 275 457 278 q 478 273 475 274 q 486 272 482 272 q 496 274 493 272 q 500 278 500 274 q 499 286 500 283 q 492 301 497 290 q 482 317 488 310 q 469 332 476 325 q 455 351 463 342 q 440 368 447 360 q 436 374 438 371 q 432 379 435 376 q 429 378 431 378 q 410 374 422 371 q 389 379 403 374 q 350 401 368 388 q 310 443 326 419 q 300 460 301 454 q 300 475 297 469 q 298 476 299 476 q 296 478 297 476 q 290 481 296 478 q 289 490 285 486 q 299 492 290 494 q 304 489 301 492 q 353 467 328 478 q 404 446 378 456 q 421 440 413 443 q 439 435 429 438 q 445 434 442 435 q 453 433 449 433 q 458 432 454 432 q 457 435 457 435 l 446 446 q 431 456 439 451 q 415 467 424 461 q 383 485 400 476 q 351 504 367 494 q 337 513 344 508 q 321 521 329 517 q 317 524 318 522 q 314 526 317 525 q 310 529 311 529 q 308 540 306 535 q 318 544 311 544 q 328 542 322 544 q 358 531 342 538 q 388 517 374 524 q 418 504 403 511 q 421 503 419 504 q 424 503 422 503 l 424 503 q 421 506 424 503 q 398 521 410 513 q 375 538 386 529 q 358 551 367 544 q 343 564 350 557 q 338 569 340 567 q 333 574 336 571 q 331 578 332 576 q 328 582 329 579 q 343 601 321 601 q 358 600 347 603 q 363 599 361 600 q 368 599 365 599 l 365 601 q 346 626 351 613 q 340 642 340 635 q 342 654 338 650 q 363 667 346 667 q 379 664 368 667 q 390 659 385 661 q 400 654 394 657 m 264 214 q 262 215 263 214 q 260 215 261 215 l 260 215 q 258 202 258 208 q 257 189 258 196 l 257 185 q 258 159 257 172 q 264 132 260 146 q 278 100 268 113 q 296 78 286 88 q 303 73 300 75 q 311 69 307 71 q 335 74 326 65 q 338 79 338 79 q 340 97 340 85 q 336 119 340 110 q 320 155 331 139 q 296 186 310 171 q 264 214 282 201 m 217 322 q 214 324 217 324 q 215 319 215 322 q 222 310 221 311 l 239 293 q 265 274 250 283 q 286 263 281 264 l 282 267 q 251 296 267 282 q 217 322 235 310 m 317 349 q 319 346 319 346 q 318 350 319 349 q 308 363 313 358 q 281 397 296 381 q 249 429 265 414 q 233 445 242 438 q 218 460 225 453 q 188 489 203 475 q 156 517 172 503 q 131 537 144 528 q 104 554 118 546 q 90 563 97 558 q 72 569 82 567 q 69 571 71 571 q 65 572 68 571 q 67 568 67 569 q 70 561 69 565 q 74 554 71 557 q 81 542 76 547 q 92 529 86 536 q 118 500 104 514 q 147 472 132 486 q 172 450 160 461 q 199 429 185 439 q 233 403 215 415 q 268 381 250 392 q 317 349 293 363 m 378 421 q 319 463 351 444 q 318 464 318 464 l 317 463 q 335 444 325 453 q 356 429 344 436 q 392 408 374 415 q 390 411 390 410 q 384 416 388 414 q 378 421 381 418 m 646 760 q 666 748 657 753 q 685 736 675 743 q 695 731 690 733 q 706 726 700 729 q 711 725 707 725 q 728 725 719 721 q 732 728 731 728 q 736 732 733 729 q 738 733 738 732 q 740 733 738 733 q 740 729 743 732 q 735 717 738 719 q 710 708 725 707 q 694 711 706 708 q 672 718 683 714 q 650 728 661 722 q 624 739 638 732 q 618 742 624 739 l 618 739 q 622 731 621 735 q 626 724 624 728 q 646 693 636 707 q 651 685 649 689 q 657 676 654 681 q 659 672 658 674 q 661 667 660 669 q 660 654 664 660 q 642 646 654 643 q 632 649 638 646 q 626 650 629 649 q 628 648 628 649 q 629 646 628 647 q 635 628 635 635 q 633 608 638 617 q 606 596 624 594 q 595 597 600 596 q 585 600 590 599 q 578 603 582 601 q 572 606 575 604 q 573 603 572 604 q 574 601 574 603 q 572 586 576 593 q 544 576 565 572 q 526 585 535 578 q 475 651 486 611 q 476 674 472 664 q 483 682 478 676 q 490 681 488 683 q 498 681 494 682 q 506 676 501 679 l 556 647 q 593 631 575 638 q 597 629 596 629 q 600 628 597 629 q 599 631 600 631 q 599 632 599 631 q 592 644 596 639 q 585 657 589 650 q 578 666 582 661 q 572 675 575 671 q 565 682 571 679 q 501 721 529 701 q 431 772 465 744 q 368 828 397 799 q 325 878 344 849 q 319 888 322 883 q 313 900 315 893 q 310 911 310 908 q 311 922 308 915 q 332 932 315 932 q 349 926 343 929 q 379 908 367 918 q 413 883 397 896 q 444 856 429 869 q 583 713 521 788 q 601 689 590 703 q 603 686 603 688 q 607 683 604 685 q 615 681 611 682 q 621 678 618 679 l 622 678 l 619 681 q 610 694 615 688 q 600 708 606 701 q 592 721 596 715 q 585 733 588 726 q 582 742 583 738 q 581 750 581 746 q 582 765 578 760 q 613 775 592 782 q 629 768 618 774 l 646 760 m 468 797 q 442 823 454 810 q 415 849 429 836 q 389 872 401 861 q 361 894 376 883 q 349 902 354 899 q 336 908 343 906 q 331 911 333 911 q 332 907 331 908 q 338 896 335 899 q 345 883 340 889 q 354 871 350 878 q 378 844 365 857 q 404 819 390 831 q 493 751 444 783 q 528 729 508 740 q 532 726 531 726 q 501 763 517 746 q 468 797 485 779 m 510 629 q 525 616 517 622 q 538 608 533 610 q 493 654 518 638 q 510 629 500 642 m 500 492 q 524 533 506 514 q 533 544 528 539 q 544 556 538 550 q 568 569 557 565 q 588 574 579 574 q 635 556 615 575 q 653 528 646 544 q 658 506 657 517 q 657 483 658 494 q 622 406 653 438 q 585 382 607 390 l 568 378 q 511 401 532 375 q 509 404 510 403 q 507 407 508 406 q 506 410 506 408 q 504 413 506 411 l 503 413 q 500 417 499 414 q 500 424 500 417 q 494 464 492 443 q 496 478 494 471 q 500 492 497 485 m 638 532 q 628 549 632 543 q 589 565 614 565 q 567 563 579 567 q 525 531 540 553 q 512 506 517 518 q 504 478 507 493 q 506 435 501 456 q 507 431 506 432 q 508 432 508 432 q 510 437 510 435 q 514 442 511 439 q 513 446 515 443 q 508 457 508 453 q 517 478 508 469 q 528 481 522 483 q 535 472 535 478 q 535 461 536 467 q 532 453 533 457 q 529 444 531 449 q 528 443 529 443 q 531 442 531 442 q 542 438 538 439 q 554 433 547 436 q 562 431 558 432 q 569 426 565 429 q 572 424 571 425 q 575 421 574 424 q 574 415 578 418 l 569 415 q 547 421 557 415 q 538 427 543 424 q 529 433 533 431 q 525 436 528 433 l 524 435 q 518 427 521 431 q 513 419 515 424 q 513 417 511 418 q 517 410 515 414 q 521 404 518 407 q 564 388 538 383 q 582 393 575 390 q 611 415 599 400 q 642 485 638 446 q 638 532 646 507 m 521 460 q 522 469 522 463 q 522 472 522 469 l 521 472 q 518 471 519 472 q 511 460 514 468 q 513 453 511 456 l 517 449 q 519 454 518 451 q 521 460 519 457 m 581 501 q 583 494 582 497 q 583 488 585 490 q 587 486 586 486 q 590 485 588 486 q 607 480 599 482 q 624 475 615 478 q 629 472 624 475 q 635 464 635 468 q 624 458 633 458 q 618 461 624 458 q 599 468 608 464 q 581 475 590 472 q 578 476 579 475 q 576 476 578 476 q 579 472 576 474 q 588 467 583 469 q 597 463 593 465 q 603 459 600 461 q 608 454 606 457 q 614 421 622 438 q 607 414 611 417 q 603 412 604 413 q 600 410 603 411 q 583 417 588 407 q 578 428 581 419 q 576 440 576 435 q 575 453 575 446 q 574 464 574 457 q 569 468 574 468 q 564 471 569 468 q 565 468 565 469 q 568 453 572 460 q 551 447 563 447 q 547 449 549 449 q 542 450 544 449 q 540 457 535 454 q 543 458 542 457 q 546 458 544 458 q 549 459 549 458 q 553 460 550 460 q 554 463 557 460 q 551 468 554 465 q 547 474 549 471 q 543 479 546 476 q 542 480 542 479 q 540 481 542 481 q 540 483 538 483 q 543 485 542 485 q 545 484 544 485 q 547 483 546 483 q 558 479 553 481 q 569 475 564 478 l 571 475 q 568 481 572 478 q 559 485 564 483 q 549 490 554 488 q 547 492 547 492 q 544 493 546 492 q 543 497 542 496 q 546 499 543 499 l 549 499 q 548 500 549 500 q 547 501 547 500 q 550 517 543 511 q 568 517 558 525 q 575 510 572 514 q 581 501 578 507 m 604 429 q 596 454 608 442 q 589 458 593 457 q 582 463 585 460 q 581 463 581 463 q 579 464 581 464 l 579 463 q 589 431 583 444 q 592 425 589 428 q 599 424 594 419 q 601 426 601 425 q 604 429 601 426 m 567 501 q 561 510 564 507 q 556 513 558 513 q 553 508 553 513 q 556 499 551 504 q 568 493 561 494 q 567 497 568 496 q 567 501 567 499 m 601 519 q 603 515 603 517 q 604 511 603 514 q 607 507 604 508 q 615 504 613 504 q 621 503 617 503 l 621 508 q 615 524 619 517 q 610 544 613 538 q 611 549 610 549 q 612 547 611 547 q 613 546 613 547 q 623 531 618 539 q 631 517 628 524 q 633 508 633 511 q 633 501 636 504 q 614 492 631 488 q 593 503 600 497 q 568 532 576 515 q 564 542 565 538 q 567 549 564 547 q 578 550 569 556 q 585 546 579 549 q 601 519 597 533 m 578 535 q 586 523 581 528 q 594 515 592 518 q 576 538 588 531 q 577 536 576 536 q 578 535 578 536 z "},"2":{"ha":772,"x_min":43,"x_max":743,"o":"m 400 654 q 419 644 410 649 q 436 632 428 639 q 483 602 460 617 q 529 574 506 588 q 536 568 532 572 q 543 561 540 567 q 536 553 543 553 l 529 553 q 525 554 526 554 q 522 556 524 554 q 503 566 513 561 q 483 576 493 571 q 445 599 464 588 q 407 624 426 611 q 394 632 400 628 q 381 640 388 636 q 376 642 378 642 q 371 643 374 642 q 367 644 369 644 q 366 640 365 642 q 367 636 367 639 q 376 622 369 628 q 389 608 382 615 q 425 585 407 594 q 469 563 447 575 l 482 554 q 490 547 485 553 q 492 535 496 540 q 481 529 489 529 q 468 531 476 528 q 450 538 460 533 q 425 548 438 543 q 400 560 413 553 q 388 565 393 563 q 375 569 382 567 q 373 571 374 571 q 371 572 372 571 q 374 568 371 571 q 389 556 381 561 q 404 544 397 551 q 431 524 418 533 q 458 506 444 515 q 465 499 461 503 q 472 493 469 496 q 478 486 476 489 q 480 472 483 478 q 465 467 476 467 q 453 469 461 467 q 450 470 451 469 q 446 471 449 471 q 449 468 449 468 q 461 460 456 464 q 471 450 467 456 q 481 439 475 447 q 485 429 485 435 q 472 413 488 418 q 456 413 464 411 q 440 414 449 413 q 425 418 432 415 q 421 419 424 419 l 421 419 q 422 418 421 418 q 422 417 422 418 q 430 408 426 413 q 435 397 433 403 q 438 394 438 394 q 447 388 443 392 q 454 379 450 383 q 472 360 463 369 q 489 342 481 351 q 502 327 496 335 q 515 313 508 319 q 522 301 518 306 q 528 289 525 296 q 532 272 532 281 q 513 247 532 256 q 489 246 499 244 q 473 247 481 246 q 457 251 465 249 q 428 261 442 256 q 400 274 414 267 q 387 280 393 276 q 374 286 381 283 q 372 288 372 288 q 369 289 371 288 l 368 288 q 346 276 361 279 q 332 276 339 276 q 318 279 325 276 q 314 280 315 279 q 310 281 313 281 q 313 278 310 281 q 318 269 315 274 q 324 261 321 265 q 329 249 326 257 q 322 232 331 238 q 301 229 314 226 q 289 233 294 231 q 276 239 283 236 q 265 246 272 244 q 264 244 264 246 l 264 243 q 268 238 263 242 q 286 226 278 232 q 303 214 294 221 q 364 122 347 171 q 368 101 367 111 q 367 79 369 90 q 358 61 365 69 q 332 47 349 49 q 297 54 315 44 q 269 76 279 64 q 247 111 256 92 q 233 161 238 133 q 231 191 231 176 q 232 221 231 206 l 232 225 l 228 225 q 215 218 218 222 q 204 208 211 215 q 195 198 199 203 q 188 188 192 193 q 169 169 179 178 q 163 165 167 167 q 156 161 158 164 q 107 169 131 153 q 85 190 93 178 q 69 223 74 206 q 65 257 64 240 q 75 286 68 275 q 83 294 79 290 q 94 301 88 299 q 102 303 99 303 q 110 304 106 304 q 115 301 115 301 q 113 300 115 300 q 93 290 100 300 q 83 267 83 278 q 100 206 79 236 q 114 190 104 197 q 118 188 117 189 q 122 185 119 186 q 139 183 129 181 q 151 193 149 188 q 165 208 157 197 q 176 219 171 214 q 185 231 181 225 q 201 243 192 238 q 232 249 217 250 l 235 249 q 236 251 235 250 q 238 260 236 257 q 239 265 238 264 q 236 271 239 269 q 215 296 224 283 q 207 311 208 306 q 204 321 204 314 q 207 329 204 324 q 205 331 206 331 q 203 332 204 331 q 199 335 200 333 q 196 338 199 336 q 196 353 189 346 q 214 356 203 360 q 218 354 217 356 q 222 351 219 353 q 296 315 260 329 q 309 311 303 313 q 322 307 315 310 q 332 306 329 307 l 338 306 l 335 308 q 249 364 292 333 q 214 388 231 376 q 181 413 197 400 q 149 440 164 426 q 118 469 133 454 q 69 522 93 496 q 51 549 57 538 q 44 565 46 560 q 44 572 44 568 q 44 578 43 575 q 69 592 49 594 q 79 590 75 592 q 89 586 83 589 q 103 580 96 583 q 117 572 110 576 q 145 556 132 564 q 171 536 158 547 l 208 503 q 242 473 225 488 q 274 443 258 458 q 306 410 290 426 q 336 375 322 393 q 347 361 343 368 q 357 347 351 354 q 371 318 365 332 q 374 315 371 315 q 450 281 408 296 q 471 275 457 278 q 478 273 475 274 q 486 272 482 272 q 496 274 493 272 q 500 278 500 274 q 499 286 500 283 q 492 301 497 290 q 482 317 488 310 q 469 332 476 325 q 455 351 463 342 q 440 368 447 360 q 436 374 438 371 q 432 379 435 376 q 429 378 431 378 q 410 374 422 371 q 389 379 403 374 q 350 401 368 388 q 310 443 326 419 q 300 460 301 454 q 300 475 297 469 q 298 476 299 476 q 296 478 297 476 q 290 481 296 478 q 289 490 285 486 q 299 492 290 494 q 304 489 301 492 q 353 467 328 478 q 404 446 378 456 q 421 440 413 443 q 439 435 429 438 q 445 434 442 435 q 453 433 449 433 q 458 432 454 432 q 457 435 457 435 l 446 446 q 431 456 439 451 q 415 467 424 461 q 383 485 400 476 q 351 504 367 494 q 337 513 344 508 q 321 521 329 517 q 317 524 318 522 q 314 526 317 525 q 310 529 311 529 q 308 540 306 535 q 318 544 311 544 q 328 542 322 544 q 358 531 342 538 q 388 517 374 524 q 418 504 403 511 q 421 503 419 504 q 424 503 422 503 l 424 503 q 421 506 424 503 q 398 521 410 513 q 375 538 386 529 q 358 551 367 544 q 343 564 350 557 q 338 569 340 567 q 333 574 336 571 q 331 578 332 576 q 328 582 329 579 q 343 601 321 601 q 358 600 347 603 q 363 599 361 600 q 368 599 365 599 l 365 601 q 346 626 351 613 q 340 642 340 635 q 342 654 338 650 q 363 667 346 667 q 379 664 368 667 q 390 659 385 661 q 400 654 394 657 m 264 214 q 262 215 263 214 q 260 215 261 215 l 260 215 q 258 202 258 208 q 257 189 258 196 l 257 185 q 258 159 257 172 q 264 132 260 146 q 278 100 268 113 q 296 78 286 88 q 303 73 300 75 q 311 69 307 71 q 335 74 326 65 q 338 79 338 79 q 340 97 340 85 q 336 119 340 110 q 320 155 331 139 q 296 186 310 171 q 264 214 282 201 m 217 322 q 214 324 217 324 q 215 319 215 322 q 222 310 221 311 l 239 293 q 265 274 250 283 q 286 263 281 264 l 282 267 q 251 296 267 282 q 217 322 235 310 m 317 349 q 319 346 319 346 q 318 350 319 349 q 308 363 313 358 q 281 397 296 381 q 249 429 265 414 q 233 445 242 438 q 218 460 225 453 q 188 489 203 475 q 156 517 172 503 q 131 537 144 528 q 104 554 118 546 q 90 563 97 558 q 72 569 82 567 q 69 571 71 571 q 65 572 68 571 q 67 568 67 569 q 70 561 69 565 q 74 554 71 557 q 81 542 76 547 q 92 529 86 536 q 118 500 104 514 q 147 472 132 486 q 172 450 160 461 q 199 429 185 439 q 233 403 215 415 q 268 381 250 392 q 317 349 293 363 m 378 421 q 319 463 351 444 q 318 464 318 464 l 317 463 q 335 444 325 453 q 356 429 344 436 q 392 408 374 415 q 390 411 390 410 q 384 416 388 414 q 378 421 381 418 m 646 760 q 666 748 657 753 q 685 736 675 743 q 695 731 690 733 q 706 726 700 729 q 711 725 707 725 q 728 725 719 721 q 732 728 731 728 q 736 732 733 729 q 738 733 738 732 q 740 733 738 733 q 740 729 743 732 q 735 717 738 719 q 710 708 725 707 q 694 711 706 708 q 672 718 683 714 q 650 728 661 722 q 624 739 638 732 q 618 742 624 739 l 618 739 q 622 731 621 735 q 626 724 624 728 q 646 693 636 707 q 651 685 649 689 q 657 676 654 681 q 659 672 658 674 q 661 667 660 669 q 660 654 664 660 q 642 646 654 643 q 632 649 638 646 q 626 650 629 649 q 628 648 628 649 q 629 646 628 647 q 635 628 635 635 q 633 608 638 617 q 606 596 624 594 q 595 597 600 596 q 585 600 590 599 q 578 603 582 601 q 572 606 575 604 q 573 603 572 604 q 574 601 574 603 q 572 586 576 593 q 544 576 565 572 q 526 585 535 578 q 475 651 486 611 q 476 674 472 664 q 483 682 478 676 q 490 681 488 683 q 498 681 494 682 q 506 676 501 679 l 556 647 q 593 631 575 638 q 597 629 596 629 q 600 628 597 629 q 599 631 600 631 q 599 632 599 631 q 592 644 596 639 q 585 657 589 650 q 578 666 582 661 q 572 675 575 671 q 565 682 571 679 q 501 721 529 701 q 431 772 465 744 q 368 828 397 799 q 325 878 344 849 q 319 888 322 883 q 313 900 315 893 q 310 911 310 908 q 311 922 308 915 q 332 932 315 932 q 349 926 343 929 q 379 908 367 918 q 413 883 397 896 q 444 856 429 869 q 583 713 521 788 q 601 689 590 703 q 603 686 603 688 q 607 683 604 685 q 615 681 611 682 q 621 678 618 679 l 622 678 l 619 681 q 610 694 615 688 q 600 708 606 701 q 592 721 596 715 q 585 733 588 726 q 582 742 583 738 q 581 750 581 746 q 582 765 578 760 q 613 775 592 782 q 629 768 618 774 l 646 760 m 468 797 q 442 823 454 810 q 415 849 429 836 q 389 872 401 861 q 361 894 376 883 q 349 902 354 899 q 336 908 343 906 q 331 911 333 911 q 332 907 331 908 q 338 896 335 899 q 345 883 340 889 q 354 871 350 878 q 378 844 365 857 q 404 819 390 831 q 493 751 444 783 q 528 729 508 740 q 532 726 531 726 q 501 763 517 746 q 468 797 485 779 m 510 629 q 525 616 517 622 q 538 608 533 610 q 493 654 518 638 q 510 629 500 642 m 500 492 q 524 533 506 514 q 533 544 528 539 q 544 556 538 550 q 568 569 557 565 q 588 574 579 574 q 635 556 615 575 q 653 528 646 544 q 658 506 657 517 q 657 483 658 494 q 622 406 653 438 q 585 382 607 390 l 568 378 q 511 401 532 375 q 509 404 510 403 q 507 407 508 406 q 506 410 506 408 q 504 413 506 411 l 503 413 q 500 417 499 414 q 500 424 500 417 q 494 464 492 443 q 496 478 494 471 q 500 492 497 485 m 638 532 q 628 549 632 543 q 589 565 614 565 q 567 563 579 567 q 525 531 540 553 q 512 506 517 518 q 504 478 507 493 q 506 435 501 456 q 507 431 506 432 q 508 432 508 432 q 510 437 510 435 q 514 442 511 439 q 513 446 515 443 q 508 457 508 453 q 517 478 508 469 q 528 481 522 483 q 535 472 535 478 q 535 461 536 467 q 532 453 533 457 q 529 444 531 449 q 528 443 529 443 q 531 442 531 442 q 542 438 538 439 q 554 433 547 436 q 562 431 558 432 q 569 426 565 429 q 572 424 571 425 q 575 421 574 424 q 574 415 578 418 l 569 415 q 547 421 557 415 q 538 427 543 424 q 529 433 533 431 q 525 436 528 433 l 524 435 q 518 427 521 431 q 513 419 515 424 q 513 417 511 418 q 517 410 515 414 q 521 404 518 407 q 564 388 538 383 q 582 393 575 390 q 611 415 599 400 q 642 485 638 446 q 638 532 646 507 m 521 460 q 522 469 522 463 q 522 472 522 469 l 521 472 q 518 471 519 472 q 511 460 514 468 q 513 453 511 456 l 517 449 q 519 454 518 451 q 521 460 519 457 m 581 501 q 583 494 582 497 q 583 488 585 490 q 587 486 586 486 q 590 485 588 486 q 607 480 599 482 q 624 475 615 478 q 629 472 624 475 q 635 464 635 468 q 624 458 633 458 q 618 461 624 458 q 599 468 608 464 q 581 475 590 472 q 578 476 579 475 q 576 476 578 476 q 579 472 576 474 q 588 467 583 469 q 597 463 593 465 q 603 459 600 461 q 608 454 606 457 q 614 421 622 438 q 607 414 611 417 q 603 412 604 413 q 600 410 603 411 q 583 417 588 407 q 578 428 581 419 q 576 440 576 435 q 575 453 575 446 q 574 464 574 457 q 569 468 574 468 q 564 471 569 468 q 565 468 565 469 q 568 453 572 460 q 551 447 563 447 q 547 449 549 449 q 542 450 544 449 q 540 457 535 454 q 543 458 542 457 q 546 458 544 458 q 549 459 549 458 q 553 460 550 460 q 554 463 557 460 q 551 468 554 465 q 547 474 549 471 q 543 479 546 476 q 542 480 542 479 q 540 481 542 481 q 540 483 538 483 q 543 485 542 485 q 545 484 544 485 q 547 483 546 483 q 558 479 553 481 q 569 475 564 478 l 571 475 q 568 481 572 478 q 559 485 564 483 q 549 490 554 488 q 547 492 547 492 q 544 493 546 492 q 543 497 542 496 q 546 499 543 499 l 549 499 q 548 500 549 500 q 547 501 547 500 q 550 517 543 511 q 568 517 558 525 q 575 510 572 514 q 581 501 578 507 m 604 429 q 596 454 608 442 q 589 458 593 457 q 582 463 585 460 q 581 463 581 463 q 579 464 581 464 l 579 463 q 589 431 583 444 q 592 425 589 428 q 599 424 594 419 q 601 426 601 425 q 604 429 601 426 m 567 501 q 561 510 564 507 q 556 513 558 513 q 553 508 553 513 q 556 499 551 504 q 568 493 561 494 q 567 497 568 496 q 567 501 567 499 m 601 519 q 603 515 603 517 q 604 511 603 514 q 607 507 604 508 q 615 504 613 504 q 621 503 617 503 l 621 508 q 615 524 619 517 q 610 544 613 538 q 611 549 610 549 q 612 547 611 547 q 613 546 613 547 q 623 531 618 539 q 631 517 628 524 q 633 508 633 511 q 633 501 636 504 q 614 492 631 488 q 593 503 600 497 q 568 532 576 515 q 564 542 565 538 q 567 549 564 547 q 578 550 569 556 q 585 546 579 549 q 601 519 597 533 m 578 535 q 586 523 581 528 q 594 515 592 518 q 576 538 588 531 q 577 536 576 536 q 578 535 578 536 z "},"3":{"ha":671,"x_min":18,"x_max":642,"o":"m 550 481 q 616 404 590 453 q 642 275 642 356 q 622 164 642 218 q 563 67 601 110 q 466 -1 524 25 q 333 -26 408 -26 q 210 -10 261 -26 q 126 32 160 6 q 72 91 92 58 q 42 158 51 124 q 36 343 18 240 l 292 343 q 292 306 289 322 q 303 280 294 292 q 333 268 313 268 q 369 284 354 268 q 385 324 385 300 q 286 378 385 378 l 286 378 l 240 378 l 240 578 l 286 578 q 339 583 319 578 q 369 599 358 589 q 382 622 379 608 q 385 649 385 635 q 369 688 385 672 q 333 704 354 704 q 303 693 313 704 q 292 668 294 682 q 292 631 289 651 l 36 631 q 42 815 18 733 q 72 883 51 850 q 126 941 92 915 q 210 983 160 967 q 333 999 261 999 q 466 973 408 999 q 563 905 524 947 q 622 808 601 863 q 642 697 642 754 q 616 562 642 614 q 550 481 590 510 z "},"4":{"ha":735,"x_min":17,"x_max":708,"o":"m 708 433 l 708 165 l 646 165 l 646 0 l 368 0 l 368 165 l 17 165 l 17 389 l 243 972 l 646 972 l 646 433 l 708 433 m 368 657 l 292 433 l 368 433 l 368 657 z "},"5":{"ha":671,"x_min":21,"x_max":644,"o":"m 304 646 q 417 632 357 646 q 527 581 476 618 q 611 478 578 543 q 644 310 644 413 q 624 174 644 236 q 565 68 604 113 q 469 -1 526 24 q 336 -26 411 -26 q 213 -10 264 -26 q 128 32 163 6 q 74 91 94 58 q 44 158 54 124 q 39 343 21 240 l 294 343 q 294 306 292 322 q 306 280 297 292 q 336 268 315 268 q 372 287 357 268 q 388 338 388 306 q 365 388 388 372 q 315 411 343 404 q 243 417 283 418 l 31 415 l 69 972 l 604 972 l 604 704 l 308 704 l 304 646 z "},"6":{"ha":728,"x_min":31,"x_max":699,"o":"m 451 574 q 549 560 508 574 q 617 526 589 547 q 660 477 644 504 q 685 424 676 450 q 696 374 693 397 q 699 336 699 351 l 699 307 q 672 159 699 222 q 601 55 646 96 q 495 -6 556 14 q 365 -26 435 -26 q 235 -6 296 -26 q 128 55 174 14 q 57 159 83 96 q 31 307 31 222 l 31 665 q 57 814 31 751 q 128 917 83 876 q 235 978 174 958 q 365 999 296 999 q 498 982 443 999 q 589 938 553 965 q 645 876 625 911 q 674 804 665 840 q 668 610 693 718 l 390 610 q 407 657 404 636 q 402 690 410 675 q 365 704 394 704 q 325 688 342 704 q 308 649 308 672 l 308 547 q 372 567 336 560 q 451 574 407 574 m 421 357 q 403 402 421 389 q 365 415 386 415 q 326 399 343 414 q 308 361 308 385 l 308 324 q 325 284 308 300 q 365 268 342 268 q 405 284 389 268 q 421 324 421 300 l 421 357 z "},"7":{"ha":722,"x_min":69,"x_max":703,"o":"m 703 972 l 703 704 l 490 0 l 213 0 l 425 704 l 69 704 l 69 972 l 703 972 z "},"8":{"ha":774,"x_min":43,"x_max":743,"o":"m 400 654 q 419 644 410 649 q 436 632 428 639 q 483 602 460 617 q 529 574 506 588 q 536 568 532 572 q 543 561 540 567 q 536 553 543 553 l 529 553 q 525 554 526 554 q 522 556 524 554 q 503 566 513 561 q 483 576 493 571 q 445 599 464 588 q 407 624 426 611 q 394 632 400 628 q 381 640 388 636 q 376 642 378 642 q 371 643 374 642 q 367 644 369 644 q 366 640 365 642 q 367 636 367 639 q 376 622 369 628 q 389 608 382 615 q 425 585 407 594 q 469 563 447 575 l 482 554 q 490 547 485 553 q 492 535 496 540 q 481 529 489 529 q 468 531 476 528 q 450 538 460 533 q 425 548 438 543 q 400 560 413 553 q 388 565 393 563 q 375 569 382 567 q 373 571 374 571 q 371 572 372 571 q 374 568 371 571 q 389 556 381 561 q 404 544 397 551 q 431 524 418 533 q 458 506 444 515 q 465 499 461 503 q 472 493 469 496 q 478 486 476 489 q 480 472 483 478 q 465 467 476 467 q 453 469 461 467 q 450 470 451 469 q 446 471 449 471 q 449 468 449 468 q 461 460 456 464 q 471 450 467 456 q 481 439 475 447 q 485 429 485 435 q 472 413 488 418 q 456 413 464 411 q 440 414 449 413 q 425 418 432 415 q 421 419 424 419 l 421 419 q 422 418 421 418 q 422 417 422 418 q 430 408 426 413 q 435 397 433 403 q 438 394 438 394 q 447 388 443 392 q 454 379 450 383 q 472 360 463 369 q 489 342 481 351 q 502 327 496 335 q 515 313 508 319 q 522 301 518 306 q 528 289 525 296 q 532 272 532 281 q 513 247 532 256 q 489 246 499 244 q 473 247 481 246 q 457 251 465 249 q 428 261 442 256 q 400 274 414 267 q 387 280 393 276 q 374 286 381 283 q 372 288 372 288 q 369 289 371 288 l 368 288 q 346 276 361 279 q 332 276 339 276 q 318 279 325 276 q 314 280 315 279 q 310 281 313 281 q 313 278 310 281 q 318 269 315 274 q 324 261 321 265 q 329 249 326 257 q 322 232 331 238 q 301 229 314 226 q 289 233 294 231 q 276 239 283 236 q 265 246 272 244 q 264 244 264 246 l 264 243 q 268 238 263 242 q 286 226 278 232 q 303 214 294 221 q 364 122 347 171 q 368 101 367 111 q 367 79 369 90 q 358 61 365 69 q 332 47 349 49 q 297 54 315 44 q 269 76 279 64 q 247 111 256 92 q 233 161 238 133 q 231 191 231 176 q 232 221 231 206 l 232 225 l 228 225 q 215 218 218 222 q 204 208 211 215 q 195 198 199 203 q 188 188 192 193 q 169 169 179 178 q 163 165 167 167 q 156 161 158 164 q 107 169 131 153 q 85 190 93 178 q 69 223 74 206 q 65 257 64 240 q 75 286 68 275 q 83 294 79 290 q 94 301 88 299 q 102 303 99 303 q 110 304 106 304 q 115 301 115 301 q 113 300 115 300 q 93 290 100 300 q 83 267 83 278 q 100 206 79 236 q 114 190 104 197 q 118 188 117 189 q 122 185 119 186 q 139 183 129 181 q 151 193 149 188 q 165 208 157 197 q 176 219 171 214 q 185 231 181 225 q 201 243 192 238 q 232 249 217 250 l 235 249 q 236 251 235 250 q 238 260 236 257 q 239 265 238 264 q 236 271 239 269 q 215 296 224 283 q 207 311 208 306 q 204 321 204 314 q 207 329 204 324 q 205 331 206 331 q 203 332 204 331 q 199 335 200 333 q 196 338 199 336 q 196 353 189 346 q 214 356 203 360 q 218 354 217 356 q 222 351 219 353 q 296 315 260 329 q 309 311 303 313 q 322 307 315 310 q 332 306 329 307 l 338 306 l 335 308 q 249 364 292 333 q 214 388 231 376 q 181 413 197 400 q 149 440 164 426 q 118 469 133 454 q 69 522 93 496 q 51 549 57 538 q 44 565 46 560 q 44 572 44 568 q 44 578 43 575 q 69 592 49 594 q 79 590 75 592 q 89 586 83 589 q 103 580 96 583 q 117 572 110 576 q 145 556 132 564 q 171 536 158 547 l 208 503 q 242 473 225 488 q 274 443 258 458 q 306 410 290 426 q 336 375 322 393 q 347 361 343 368 q 357 347 351 354 q 371 318 365 332 q 374 315 371 315 q 450 281 408 296 q 471 275 457 278 q 478 273 475 274 q 486 272 482 272 q 496 274 493 272 q 500 278 500 274 q 499 286 500 283 q 492 301 497 290 q 482 317 488 310 q 469 332 476 325 q 455 351 463 342 q 440 368 447 360 q 436 374 438 371 q 432 379 435 376 q 429 378 431 378 q 410 374 422 371 q 389 379 403 374 q 350 401 368 388 q 310 443 326 419 q 300 460 301 454 q 300 475 297 469 q 298 476 299 476 q 296 478 297 476 q 290 481 296 478 q 289 490 285 486 q 299 492 290 494 q 304 489 301 492 q 353 467 328 478 q 404 446 378 456 q 421 440 413 443 q 439 435 429 438 q 445 434 442 435 q 453 433 449 433 q 458 432 454 432 q 457 435 457 435 l 446 446 q 431 456 439 451 q 415 467 424 461 q 383 485 400 476 q 351 504 367 494 q 337 513 344 508 q 321 521 329 517 q 317 524 318 522 q 314 526 317 525 q 310 529 311 529 q 308 540 306 535 q 318 544 311 544 q 328 542 322 544 q 358 531 342 538 q 388 517 374 524 q 418 504 403 511 q 421 503 419 504 q 424 503 422 503 l 424 503 q 421 506 424 503 q 398 521 410 513 q 375 538 386 529 q 358 551 367 544 q 343 564 350 557 q 338 569 340 567 q 333 574 336 571 q 331 578 332 576 q 328 582 329 579 q 343 601 321 601 q 358 600 347 603 q 363 599 361 600 q 368 599 365 599 l 365 601 q 346 626 351 613 q 340 642 340 635 q 342 654 338 650 q 363 667 346 667 q 379 664 368 667 q 390 659 385 661 q 400 654 394 657 m 264 214 q 262 215 263 214 q 260 215 261 215 l 260 215 q 258 202 258 208 q 257 189 258 196 l 257 185 q 258 159 257 172 q 264 132 260 146 q 278 100 268 113 q 296 78 286 88 q 303 73 300 75 q 311 69 307 71 q 335 74 326 65 q 338 79 338 79 q 340 97 340 85 q 336 119 340 110 q 320 155 331 139 q 296 186 310 171 q 264 214 282 201 m 217 322 q 214 324 217 324 q 215 319 215 322 q 222 310 221 311 l 239 293 q 265 274 250 283 q 286 263 281 264 l 282 267 q 251 296 267 282 q 217 322 235 310 m 317 349 q 319 346 319 346 q 318 350 319 349 q 308 363 313 358 q 281 397 296 381 q 249 429 265 414 q 233 445 242 438 q 218 460 225 453 q 188 489 203 475 q 156 517 172 503 q 131 537 144 528 q 104 554 118 546 q 90 563 97 558 q 72 569 82 567 q 69 571 71 571 q 65 572 68 571 q 67 568 67 569 q 70 561 69 565 q 74 554 71 557 q 81 542 76 547 q 92 529 86 536 q 118 500 104 514 q 147 472 132 486 q 172 450 160 461 q 199 429 185 439 q 233 403 215 415 q 268 381 250 392 q 317 349 293 363 m 378 421 q 319 463 351 444 q 318 464 318 464 l 317 463 q 335 444 325 453 q 356 429 344 436 q 392 408 374 415 q 390 411 390 410 q 384 416 388 414 q 378 421 381 418 m 646 760 q 666 748 657 753 q 685 736 675 743 q 695 731 690 733 q 706 726 700 729 q 711 725 707 725 q 728 725 719 721 q 732 728 731 728 q 736 732 733 729 q 738 733 738 732 q 740 733 738 733 q 740 729 743 732 q 735 717 738 719 q 710 708 725 707 q 694 711 706 708 q 672 718 683 714 q 650 728 661 722 q 624 739 638 732 q 618 742 624 739 l 618 739 q 622 731 621 735 q 626 724 624 728 q 646 693 636 707 q 651 685 649 689 q 657 676 654 681 q 659 672 658 674 q 661 667 660 669 q 660 654 664 660 q 642 646 654 643 q 632 649 638 646 q 626 650 629 649 q 628 648 628 649 q 629 646 628 647 q 635 628 635 635 q 633 608 638 617 q 606 596 624 594 q 595 597 600 596 q 585 600 590 599 q 578 603 582 601 q 572 606 575 604 q 573 603 572 604 q 574 601 574 603 q 572 586 576 593 q 544 576 565 572 q 526 585 535 578 q 475 651 486 611 q 476 674 472 664 q 483 682 478 676 q 490 681 488 683 q 498 681 494 682 q 506 676 501 679 l 556 647 q 593 631 575 638 q 597 629 596 629 q 600 628 597 629 q 599 631 600 631 q 599 632 599 631 q 592 644 596 639 q 585 657 589 650 q 578 666 582 661 q 572 675 575 671 q 565 682 571 679 q 501 721 529 701 q 431 772 465 744 q 368 828 397 799 q 325 878 344 849 q 319 888 322 883 q 313 900 315 893 q 310 911 310 908 q 311 922 308 915 q 332 932 315 932 q 349 926 343 929 q 379 908 367 918 q 413 883 397 896 q 444 856 429 869 q 583 713 521 788 q 601 689 590 703 q 603 686 603 688 q 607 683 604 685 q 615 681 611 682 q 621 678 618 679 l 622 678 l 619 681 q 610 694 615 688 q 600 708 606 701 q 592 721 596 715 q 585 733 588 726 q 582 742 583 738 q 581 750 581 746 q 582 765 578 760 q 613 775 592 782 q 629 768 618 774 l 646 760 m 468 797 q 442 823 454 810 q 415 849 429 836 q 389 872 401 861 q 361 894 376 883 q 349 902 354 899 q 336 908 343 906 q 331 911 333 911 q 332 907 331 908 q 338 896 335 899 q 345 883 340 889 q 354 871 350 878 q 378 844 365 857 q 404 819 390 831 q 493 751 444 783 q 528 729 508 740 q 532 726 531 726 q 501 763 517 746 q 468 797 485 779 m 510 629 q 525 616 517 622 q 538 608 533 610 q 493 654 518 638 q 510 629 500 642 m 500 492 q 524 533 506 514 q 533 544 528 539 q 544 556 538 550 q 568 569 557 565 q 588 574 579 574 q 635 556 615 575 q 653 528 646 544 q 658 506 657 517 q 657 483 658 494 q 622 406 653 438 q 585 382 607 390 l 568 378 q 511 401 532 375 q 509 404 510 403 q 507 407 508 406 q 506 410 506 408 q 504 413 506 411 l 503 413 q 500 417 499 414 q 500 424 500 417 q 494 464 492 443 q 496 478 494 471 q 500 492 497 485 m 638 532 q 628 549 632 543 q 589 565 614 565 q 567 563 579 567 q 525 531 540 553 q 512 506 517 518 q 504 478 507 493 q 506 435 501 456 q 507 431 506 432 q 508 432 508 432 q 510 437 510 435 q 514 442 511 439 q 513 446 515 443 q 508 457 508 453 q 517 478 508 469 q 528 481 522 483 q 535 472 535 478 q 535 461 536 467 q 532 453 533 457 q 529 444 531 449 q 528 443 529 443 q 531 442 531 442 q 542 438 538 439 q 554 433 547 436 q 562 431 558 432 q 569 426 565 429 q 572 424 571 425 q 575 421 574 424 q 574 415 578 418 l 569 415 q 547 421 557 415 q 538 427 543 424 q 529 433 533 431 q 525 436 528 433 l 524 435 q 518 427 521 431 q 513 419 515 424 q 513 417 511 418 q 517 410 515 414 q 521 404 518 407 q 564 388 538 383 q 582 393 575 390 q 611 415 599 400 q 642 485 638 446 q 638 532 646 507 m 521 460 q 522 469 522 463 q 522 472 522 469 l 521 472 q 518 471 519 472 q 511 460 514 468 q 513 453 511 456 l 517 449 q 519 454 518 451 q 521 460 519 457 m 581 501 q 583 494 582 497 q 583 488 585 490 q 587 486 586 486 q 590 485 588 486 q 607 480 599 482 q 624 475 615 478 q 629 472 624 475 q 635 464 635 468 q 624 458 633 458 q 618 461 624 458 q 599 468 608 464 q 581 475 590 472 q 578 476 579 475 q 576 476 578 476 q 579 472 576 474 q 588 467 583 469 q 597 463 593 465 q 603 459 600 461 q 608 454 606 457 q 614 421 622 438 q 607 414 611 417 q 603 412 604 413 q 600 410 603 411 q 583 417 588 407 q 578 428 581 419 q 576 440 576 435 q 575 453 575 446 q 574 464 574 457 q 569 468 574 468 q 564 471 569 468 q 565 468 565 469 q 568 453 572 460 q 551 447 563 447 q 547 449 549 449 q 542 450 544 449 q 540 457 535 454 q 543 458 542 457 q 546 458 544 458 q 549 459 549 458 q 553 460 550 460 q 554 463 557 460 q 551 468 554 465 q 547 474 549 471 q 543 479 546 476 q 542 480 542 479 q 540 481 542 481 q 540 483 538 483 q 543 485 542 485 q 545 484 544 485 q 547 483 546 483 q 558 479 553 481 q 569 475 564 478 l 571 475 q 568 481 572 478 q 559 485 564 483 q 549 490 554 488 q 547 492 547 492 q 544 493 546 492 q 543 497 542 496 q 546 499 543 499 l 549 499 q 548 500 549 500 q 547 501 547 500 q 550 517 543 511 q 568 517 558 525 q 575 510 572 514 q 581 501 578 507 m 604 429 q 596 454 608 442 q 589 458 593 457 q 582 463 585 460 q 581 463 581 463 q 579 464 581 464 l 579 463 q 589 431 583 444 q 592 425 589 428 q 599 424 594 419 q 601 426 601 425 q 604 429 601 426 m 567 501 q 561 510 564 507 q 556 513 558 513 q 553 508 553 513 q 556 499 551 504 q 568 493 561 494 q 567 497 568 496 q 567 501 567 499 m 601 519 q 603 515 603 517 q 604 511 603 514 q 607 507 604 508 q 615 504 613 504 q 621 503 617 503 l 621 508 q 615 524 619 517 q 610 544 613 538 q 611 549 610 549 q 612 547 611 547 q 613 546 613 547 q 623 531 618 539 q 631 517 628 524 q 633 508 633 511 q 633 501 636 504 q 614 492 631 488 q 593 503 600 497 q 568 532 576 515 q 564 542 565 538 q 567 549 564 547 q 578 550 569 556 q 585 546 579 549 q 601 519 597 533 m 578 535 q 586 523 581 528 q 594 515 592 518 q 576 538 588 531 q 577 536 576 536 q 578 535 578 536 z "},"9":{"ha":775,"x_min":43,"x_max":743,"o":"m 400 654 q 419 644 410 649 q 436 632 428 639 q 483 602 460 617 q 529 574 506 588 q 536 568 532 572 q 543 561 540 567 q 536 553 543 553 l 529 553 q 525 554 526 554 q 522 556 524 554 q 503 566 513 561 q 483 576 493 571 q 445 599 464 588 q 407 624 426 611 q 394 632 400 628 q 381 640 388 636 q 376 642 378 642 q 371 643 374 642 q 367 644 369 644 q 366 640 365 642 q 367 636 367 639 q 376 622 369 628 q 389 608 382 615 q 425 585 407 594 q 469 563 447 575 l 482 554 q 490 547 485 553 q 492 535 496 540 q 481 529 489 529 q 468 531 476 528 q 450 538 460 533 q 425 548 438 543 q 400 560 413 553 q 388 565 393 563 q 375 569 382 567 q 373 571 374 571 q 371 572 372 571 q 374 568 371 571 q 389 556 381 561 q 404 544 397 551 q 431 524 418 533 q 458 506 444 515 q 465 499 461 503 q 472 493 469 496 q 478 486 476 489 q 480 472 483 478 q 465 467 476 467 q 453 469 461 467 q 450 470 451 469 q 446 471 449 471 q 449 468 449 468 q 461 460 456 464 q 471 450 467 456 q 481 439 475 447 q 485 429 485 435 q 472 413 488 418 q 456 413 464 411 q 440 414 449 413 q 425 418 432 415 q 421 419 424 419 l 421 419 q 422 418 421 418 q 422 417 422 418 q 430 408 426 413 q 435 397 433 403 q 438 394 438 394 q 447 388 443 392 q 454 379 450 383 q 472 360 463 369 q 489 342 481 351 q 502 327 496 335 q 515 313 508 319 q 522 301 518 306 q 528 289 525 296 q 532 272 532 281 q 513 247 532 256 q 489 246 499 244 q 473 247 481 246 q 457 251 465 249 q 428 261 442 256 q 400 274 414 267 q 387 280 393 276 q 374 286 381 283 q 372 288 372 288 q 369 289 371 288 l 368 288 q 346 276 361 279 q 332 276 339 276 q 318 279 325 276 q 314 280 315 279 q 310 281 313 281 q 313 278 310 281 q 318 269 315 274 q 324 261 321 265 q 329 249 326 257 q 322 232 331 238 q 301 229 314 226 q 289 233 294 231 q 276 239 283 236 q 265 246 272 244 q 264 244 264 246 l 264 243 q 268 238 263 242 q 286 226 278 232 q 303 214 294 221 q 364 122 347 171 q 368 101 367 111 q 367 79 369 90 q 358 61 365 69 q 332 47 349 49 q 297 54 315 44 q 269 76 279 64 q 247 111 256 92 q 233 161 238 133 q 231 191 231 176 q 232 221 231 206 l 232 225 l 228 225 q 215 218 218 222 q 204 208 211 215 q 195 198 199 203 q 188 188 192 193 q 169 169 179 178 q 163 165 167 167 q 156 161 158 164 q 107 169 131 153 q 85 190 93 178 q 69 223 74 206 q 65 257 64 240 q 75 286 68 275 q 83 294 79 290 q 94 301 88 299 q 102 303 99 303 q 110 304 106 304 q 115 301 115 301 q 113 300 115 300 q 93 290 100 300 q 83 267 83 278 q 100 206 79 236 q 114 190 104 197 q 118 188 117 189 q 122 185 119 186 q 139 183 129 181 q 151 193 149 188 q 165 208 157 197 q 176 219 171 214 q 185 231 181 225 q 201 243 192 238 q 232 249 217 250 l 235 249 q 236 251 235 250 q 238 260 236 257 q 239 265 238 264 q 236 271 239 269 q 215 296 224 283 q 207 311 208 306 q 204 321 204 314 q 207 329 204 324 q 205 331 206 331 q 203 332 204 331 q 199 335 200 333 q 196 338 199 336 q 196 353 189 346 q 214 356 203 360 q 218 354 217 356 q 222 351 219 353 q 296 315 260 329 q 309 311 303 313 q 322 307 315 310 q 332 306 329 307 l 338 306 l 335 308 q 249 364 292 333 q 214 388 231 376 q 181 413 197 400 q 149 440 164 426 q 118 469 133 454 q 69 522 93 496 q 51 549 57 538 q 44 565 46 560 q 44 572 44 568 q 44 578 43 575 q 69 592 49 594 q 79 590 75 592 q 89 586 83 589 q 103 580 96 583 q 117 572 110 576 q 145 556 132 564 q 171 536 158 547 l 208 503 q 242 473 225 488 q 274 443 258 458 q 306 410 290 426 q 336 375 322 393 q 347 361 343 368 q 357 347 351 354 q 371 318 365 332 q 374 315 371 315 q 450 281 408 296 q 471 275 457 278 q 478 273 475 274 q 486 272 482 272 q 496 274 493 272 q 500 278 500 274 q 499 286 500 283 q 492 301 497 290 q 482 317 488 310 q 469 332 476 325 q 455 351 463 342 q 440 368 447 360 q 436 374 438 371 q 432 379 435 376 q 429 378 431 378 q 410 374 422 371 q 389 379 403 374 q 350 401 368 388 q 310 443 326 419 q 300 460 301 454 q 300 475 297 469 q 298 476 299 476 q 296 478 297 476 q 290 481 296 478 q 289 490 285 486 q 299 492 290 494 q 304 489 301 492 q 353 467 328 478 q 404 446 378 456 q 421 440 413 443 q 439 435 429 438 q 445 434 442 435 q 453 433 449 433 q 458 432 454 432 q 457 435 457 435 l 446 446 q 431 456 439 451 q 415 467 424 461 q 383 485 400 476 q 351 504 367 494 q 337 513 344 508 q 321 521 329 517 q 317 524 318 522 q 314 526 317 525 q 310 529 311 529 q 308 540 306 535 q 318 544 311 544 q 328 542 322 544 q 358 531 342 538 q 388 517 374 524 q 418 504 403 511 q 421 503 419 504 q 424 503 422 503 l 424 503 q 421 506 424 503 q 398 521 410 513 q 375 538 386 529 q 358 551 367 544 q 343 564 350 557 q 338 569 340 567 q 333 574 336 571 q 331 578 332 576 q 328 582 329 579 q 343 601 321 601 q 358 600 347 603 q 363 599 361 600 q 368 599 365 599 l 365 601 q 346 626 351 613 q 340 642 340 635 q 342 654 338 650 q 363 667 346 667 q 379 664 368 667 q 390 659 385 661 q 400 654 394 657 m 264 214 q 262 215 263 214 q 260 215 261 215 l 260 215 q 258 202 258 208 q 257 189 258 196 l 257 185 q 258 159 257 172 q 264 132 260 146 q 278 100 268 113 q 296 78 286 88 q 303 73 300 75 q 311 69 307 71 q 335 74 326 65 q 338 79 338 79 q 340 97 340 85 q 336 119 340 110 q 320 155 331 139 q 296 186 310 171 q 264 214 282 201 m 217 322 q 214 324 217 324 q 215 319 215 322 q 222 310 221 311 l 239 293 q 265 274 250 283 q 286 263 281 264 l 282 267 q 251 296 267 282 q 217 322 235 310 m 317 349 q 319 346 319 346 q 318 350 319 349 q 308 363 313 358 q 281 397 296 381 q 249 429 265 414 q 233 445 242 438 q 218 460 225 453 q 188 489 203 475 q 156 517 172 503 q 131 537 144 528 q 104 554 118 546 q 90 563 97 558 q 72 569 82 567 q 69 571 71 571 q 65 572 68 571 q 67 568 67 569 q 70 561 69 565 q 74 554 71 557 q 81 542 76 547 q 92 529 86 536 q 118 500 104 514 q 147 472 132 486 q 172 450 160 461 q 199 429 185 439 q 233 403 215 415 q 268 381 250 392 q 317 349 293 363 m 378 421 q 319 463 351 444 q 318 464 318 464 l 317 463 q 335 444 325 453 q 356 429 344 436 q 392 408 374 415 q 390 411 390 410 q 384 416 388 414 q 378 421 381 418 m 646 760 q 666 748 657 753 q 685 736 675 743 q 695 731 690 733 q 706 726 700 729 q 711 725 707 725 q 728 725 719 721 q 732 728 731 728 q 736 732 733 729 q 738 733 738 732 q 740 733 738 733 q 740 729 743 732 q 735 717 738 719 q 710 708 725 707 q 694 711 706 708 q 672 718 683 714 q 650 728 661 722 q 624 739 638 732 q 618 742 624 739 l 618 739 q 622 731 621 735 q 626 724 624 728 q 646 693 636 707 q 651 685 649 689 q 657 676 654 681 q 659 672 658 674 q 661 667 660 669 q 660 654 664 660 q 642 646 654 643 q 632 649 638 646 q 626 650 629 649 q 628 648 628 649 q 629 646 628 647 q 635 628 635 635 q 633 608 638 617 q 606 596 624 594 q 595 597 600 596 q 585 600 590 599 q 578 603 582 601 q 572 606 575 604 q 573 603 572 604 q 574 601 574 603 q 572 586 576 593 q 544 576 565 572 q 526 585 535 578 q 475 651 486 611 q 476 674 472 664 q 483 682 478 676 q 490 681 488 683 q 498 681 494 682 q 506 676 501 679 l 556 647 q 593 631 575 638 q 597 629 596 629 q 600 628 597 629 q 599 631 600 631 q 599 632 599 631 q 592 644 596 639 q 585 657 589 650 q 578 666 582 661 q 572 675 575 671 q 565 682 571 679 q 501 721 529 701 q 431 772 465 744 q 368 828 397 799 q 325 878 344 849 q 319 888 322 883 q 313 900 315 893 q 310 911 310 908 q 311 922 308 915 q 332 932 315 932 q 349 926 343 929 q 379 908 367 918 q 413 883 397 896 q 444 856 429 869 q 583 713 521 788 q 601 689 590 703 q 603 686 603 688 q 607 683 604 685 q 615 681 611 682 q 621 678 618 679 l 622 678 l 619 681 q 610 694 615 688 q 600 708 606 701 q 592 721 596 715 q 585 733 588 726 q 582 742 583 738 q 581 750 581 746 q 582 765 578 760 q 613 775 592 782 q 629 768 618 774 l 646 760 m 468 797 q 442 823 454 810 q 415 849 429 836 q 389 872 401 861 q 361 894 376 883 q 349 902 354 899 q 336 908 343 906 q 331 911 333 911 q 332 907 331 908 q 338 896 335 899 q 345 883 340 889 q 354 871 350 878 q 378 844 365 857 q 404 819 390 831 q 493 751 444 783 q 528 729 508 740 q 532 726 531 726 q 501 763 517 746 q 468 797 485 779 m 510 629 q 525 616 517 622 q 538 608 533 610 q 493 654 518 638 q 510 629 500 642 m 500 492 q 524 533 506 514 q 533 544 528 539 q 544 556 538 550 q 568 569 557 565 q 588 574 579 574 q 635 556 615 575 q 653 528 646 544 q 658 506 657 517 q 657 483 658 494 q 622 406 653 438 q 585 382 607 390 l 568 378 q 511 401 532 375 q 509 404 510 403 q 507 407 508 406 q 506 410 506 408 q 504 413 506 411 l 503 413 q 500 417 499 414 q 500 424 500 417 q 494 464 492 443 q 496 478 494 471 q 500 492 497 485 m 638 532 q 628 549 632 543 q 589 565 614 565 q 567 563 579 567 q 525 531 540 553 q 512 506 517 518 q 504 478 507 493 q 506 435 501 456 q 507 431 506 432 q 508 432 508 432 q 510 437 510 435 q 514 442 511 439 q 513 446 515 443 q 508 457 508 453 q 517 478 508 469 q 528 481 522 483 q 535 472 535 478 q 535 461 536 467 q 532 453 533 457 q 529 444 531 449 q 528 443 529 443 q 531 442 531 442 q 542 438 538 439 q 554 433 547 436 q 562 431 558 432 q 569 426 565 429 q 572 424 571 425 q 575 421 574 424 q 574 415 578 418 l 569 415 q 547 421 557 415 q 538 427 543 424 q 529 433 533 431 q 525 436 528 433 l 524 435 q 518 427 521 431 q 513 419 515 424 q 513 417 511 418 q 517 410 515 414 q 521 404 518 407 q 564 388 538 383 q 582 393 575 390 q 611 415 599 400 q 642 485 638 446 q 638 532 646 507 m 521 460 q 522 469 522 463 q 522 472 522 469 l 521 472 q 518 471 519 472 q 511 460 514 468 q 513 453 511 456 l 517 449 q 519 454 518 451 q 521 460 519 457 m 581 501 q 583 494 582 497 q 583 488 585 490 q 587 486 586 486 q 590 485 588 486 q 607 480 599 482 q 624 475 615 478 q 629 472 624 475 q 635 464 635 468 q 624 458 633 458 q 618 461 624 458 q 599 468 608 464 q 581 475 590 472 q 578 476 579 475 q 576 476 578 476 q 579 472 576 474 q 588 467 583 469 q 597 463 593 465 q 603 459 600 461 q 608 454 606 457 q 614 421 622 438 q 607 414 611 417 q 603 412 604 413 q 600 410 603 411 q 583 417 588 407 q 578 428 581 419 q 576 440 576 435 q 575 453 575 446 q 574 464 574 457 q 569 468 574 468 q 564 471 569 468 q 565 468 565 469 q 568 453 572 460 q 551 447 563 447 q 547 449 549 449 q 542 450 544 449 q 540 457 535 454 q 543 458 542 457 q 546 458 544 458 q 549 459 549 458 q 553 460 550 460 q 554 463 557 460 q 551 468 554 465 q 547 474 549 471 q 543 479 546 476 q 542 480 542 479 q 540 481 542 481 q 540 483 538 483 q 543 485 542 485 q 545 484 544 485 q 547 483 546 483 q 558 479 553 481 q 569 475 564 478 l 571 475 q 568 481 572 478 q 559 485 564 483 q 549 490 554 488 q 547 492 547 492 q 544 493 546 492 q 543 497 542 496 q 546 499 543 499 l 549 499 q 548 500 549 500 q 547 501 547 500 q 550 517 543 511 q 568 517 558 525 q 575 510 572 514 q 581 501 578 507 m 604 429 q 596 454 608 442 q 589 458 593 457 q 582 463 585 460 q 581 463 581 463 q 579 464 581 464 l 579 463 q 589 431 583 444 q 592 425 589 428 q 599 424 594 419 q 601 426 601 425 q 604 429 601 426 m 567 501 q 561 510 564 507 q 556 513 558 513 q 553 508 553 513 q 556 499 551 504 q 568 493 561 494 q 567 497 568 496 q 567 501 567 499 m 601 519 q 603 515 603 517 q 604 511 603 514 q 607 507 604 508 q 615 504 613 504 q 621 503 617 503 l 621 508 q 615 524 619 517 q 610 544 613 538 q 611 549 610 549 q 612 547 611 547 q 613 546 613 547 q 623 531 618 539 q 631 517 628 524 q 633 508 633 511 q 633 501 636 504 q 614 492 631 488 q 593 503 600 497 q 568 532 576 515 q 564 542 565 538 q 567 549 564 547 q 578 550 569 556 q 585 546 579 549 q 601 519 597 533 m 578 535 q 586 523 581 528 q 594 515 592 518 q 576 538 588 531 q 577 536 576 536 q 578 535 578 536 z "},"\u0000":{"ha":0,"x_min":0,"x_max":0,"o":""},"\r":{"ha":0,"x_min":0,"x_max":0,"o":""}," ":{"ha":413,"x_min":0,"x_max":0,"o":""},"\n":{"ha":0,"x_min":0,"x_max":0,"o":""},"!":{"ha":775,"x_min":43,"x_max":743,"o":"m 400 654 q 419 644 410 649 q 436 632 428 639 q 483 602 460 617 q 529 574 506 588 q 536 568 532 572 q 543 561 540 567 q 536 553 543 553 l 529 553 q 525 554 526 554 q 522 556 524 554 q 503 566 513 561 q 483 576 493 571 q 445 599 464 588 q 407 624 426 611 q 394 632 400 628 q 381 640 388 636 q 376 642 378 642 q 371 643 374 642 q 367 644 369 644 q 366 640 365 642 q 367 636 367 639 q 376 622 369 628 q 389 608 382 615 q 425 585 407 594 q 469 563 447 575 l 482 554 q 490 547 485 553 q 492 535 496 540 q 481 529 489 529 q 468 531 476 528 q 450 538 460 533 q 425 548 438 543 q 400 560 413 553 q 388 565 393 563 q 375 569 382 567 q 373 571 374 571 q 371 572 372 571 q 374 568 371 571 q 389 556 381 561 q 404 544 397 551 q 431 524 418 533 q 458 506 444 515 q 465 499 461 503 q 472 493 469 496 q 478 486 476 489 q 480 472 483 478 q 465 467 476 467 q 453 469 461 467 q 450 470 451 469 q 446 471 449 471 q 449 468 449 468 q 461 460 456 464 q 471 450 467 456 q 481 439 475 447 q 485 429 485 435 q 472 413 488 418 q 456 413 464 411 q 440 414 449 413 q 425 418 432 415 q 421 419 424 419 l 421 419 q 422 418 421 418 q 422 417 422 418 q 430 408 426 413 q 435 397 433 403 q 438 394 438 394 q 447 388 443 392 q 454 379 450 383 q 472 360 463 369 q 489 342 481 351 q 502 327 496 335 q 515 313 508 319 q 522 301 518 306 q 528 289 525 296 q 532 272 532 281 q 513 247 532 256 q 489 246 499 244 q 473 247 481 246 q 457 251 465 249 q 428 261 442 256 q 400 274 414 267 q 387 280 393 276 q 374 286 381 283 q 372 288 372 288 q 369 289 371 288 l 368 288 q 346 276 361 279 q 332 276 339 276 q 318 279 325 276 q 314 280 315 279 q 310 281 313 281 q 313 278 310 281 q 318 269 315 274 q 324 261 321 265 q 329 249 326 257 q 322 232 331 238 q 301 229 314 226 q 289 233 294 231 q 276 239 283 236 q 265 246 272 244 q 264 244 264 246 l 264 243 q 268 238 263 242 q 286 226 278 232 q 303 214 294 221 q 364 122 347 171 q 368 101 367 111 q 367 79 369 90 q 358 61 365 69 q 332 47 349 49 q 297 54 315 44 q 269 76 279 64 q 247 111 256 92 q 233 161 238 133 q 231 191 231 176 q 232 221 231 206 l 232 225 l 228 225 q 215 218 218 222 q 204 208 211 215 q 195 198 199 203 q 188 188 192 193 q 169 169 179 178 q 163 165 167 167 q 156 161 158 164 q 107 169 131 153 q 85 190 93 178 q 69 223 74 206 q 65 257 64 240 q 75 286 68 275 q 83 294 79 290 q 94 301 88 299 q 102 303 99 303 q 110 304 106 304 q 115 301 115 301 q 113 300 115 300 q 93 290 100 300 q 83 267 83 278 q 100 206 79 236 q 114 190 104 197 q 118 188 117 189 q 122 185 119 186 q 139 183 129 181 q 151 193 149 188 q 165 208 157 197 q 176 219 171 214 q 185 231 181 225 q 201 243 192 238 q 232 249 217 250 l 235 249 q 236 251 235 250 q 238 260 236 257 q 239 265 238 264 q 236 271 239 269 q 215 296 224 283 q 207 311 208 306 q 204 321 204 314 q 207 329 204 324 q 205 331 206 331 q 203 332 204 331 q 199 335 200 333 q 196 338 199 336 q 196 353 189 346 q 214 356 203 360 q 218 354 217 356 q 222 351 219 353 q 296 315 260 329 q 309 311 303 313 q 322 307 315 310 q 332 306 329 307 l 338 306 l 335 308 q 249 364 292 333 q 214 388 231 376 q 181 413 197 400 q 149 440 164 426 q 118 469 133 454 q 69 522 93 496 q 51 549 57 538 q 44 565 46 560 q 44 572 44 568 q 44 578 43 575 q 69 592 49 594 q 79 590 75 592 q 89 586 83 589 q 103 580 96 583 q 117 572 110 576 q 145 556 132 564 q 171 536 158 547 l 208 503 q 242 473 225 488 q 274 443 258 458 q 306 410 290 426 q 336 375 322 393 q 347 361 343 368 q 357 347 351 354 q 371 318 365 332 q 374 315 371 315 q 450 281 408 296 q 471 275 457 278 q 478 273 475 274 q 486 272 482 272 q 496 274 493 272 q 500 278 500 274 q 499 286 500 283 q 492 301 497 290 q 482 317 488 310 q 469 332 476 325 q 455 351 463 342 q 440 368 447 360 q 436 374 438 371 q 432 379 435 376 q 429 378 431 378 q 410 374 422 371 q 389 379 403 374 q 350 401 368 388 q 310 443 326 419 q 300 460 301 454 q 300 475 297 469 q 298 476 299 476 q 296 478 297 476 q 290 481 296 478 q 289 490 285 486 q 299 492 290 494 q 304 489 301 492 q 353 467 328 478 q 404 446 378 456 q 421 440 413 443 q 439 435 429 438 q 445 434 442 435 q 453 433 449 433 q 458 432 454 432 q 457 435 457 435 l 446 446 q 431 456 439 451 q 415 467 424 461 q 383 485 400 476 q 351 504 367 494 q 337 513 344 508 q 321 521 329 517 q 317 524 318 522 q 314 526 317 525 q 310 529 311 529 q 308 540 306 535 q 318 544 311 544 q 328 542 322 544 q 358 531 342 538 q 388 517 374 524 q 418 504 403 511 q 421 503 419 504 q 424 503 422 503 l 424 503 q 421 506 424 503 q 398 521 410 513 q 375 538 386 529 q 358 551 367 544 q 343 564 350 557 q 338 569 340 567 q 333 574 336 571 q 331 578 332 576 q 328 582 329 579 q 343 601 321 601 q 358 600 347 603 q 363 599 361 600 q 368 599 365 599 l 365 601 q 346 626 351 613 q 340 642 340 635 q 342 654 338 650 q 363 667 346 667 q 379 664 368 667 q 390 659 385 661 q 400 654 394 657 m 264 214 q 262 215 263 214 q 260 215 261 215 l 260 215 q 258 202 258 208 q 257 189 258 196 l 257 185 q 258 159 257 172 q 264 132 260 146 q 278 100 268 113 q 296 78 286 88 q 303 73 300 75 q 311 69 307 71 q 335 74 326 65 q 338 79 338 79 q 340 97 340 85 q 336 119 340 110 q 320 155 331 139 q 296 186 310 171 q 264 214 282 201 m 217 322 q 214 324 217 324 q 215 319 215 322 q 222 310 221 311 l 239 293 q 265 274 250 283 q 286 263 281 264 l 282 267 q 251 296 267 282 q 217 322 235 310 m 317 349 q 319 346 319 346 q 318 350 319 349 q 308 363 313 358 q 281 397 296 381 q 249 429 265 414 q 233 445 242 438 q 218 460 225 453 q 188 489 203 475 q 156 517 172 503 q 131 537 144 528 q 104 554 118 546 q 90 563 97 558 q 72 569 82 567 q 69 571 71 571 q 65 572 68 571 q 67 568 67 569 q 70 561 69 565 q 74 554 71 557 q 81 542 76 547 q 92 529 86 536 q 118 500 104 514 q 147 472 132 486 q 172 450 160 461 q 199 429 185 439 q 233 403 215 415 q 268 381 250 392 q 317 349 293 363 m 378 421 q 319 463 351 444 q 318 464 318 464 l 317 463 q 335 444 325 453 q 356 429 344 436 q 392 408 374 415 q 390 411 390 410 q 384 416 388 414 q 378 421 381 418 m 646 760 q 666 748 657 753 q 685 736 675 743 q 695 731 690 733 q 706 726 700 729 q 711 725 707 725 q 728 725 719 721 q 732 728 731 728 q 736 732 733 729 q 738 733 738 732 q 740 733 738 733 q 740 729 743 732 q 735 717 738 719 q 710 708 725 707 q 694 711 706 708 q 672 718 683 714 q 650 728 661 722 q 624 739 638 732 q 618 742 624 739 l 618 739 q 622 731 621 735 q 626 724 624 728 q 646 693 636 707 q 651 685 649 689 q 657 676 654 681 q 659 672 658 674 q 661 667 660 669 q 660 654 664 660 q 642 646 654 643 q 632 649 638 646 q 626 650 629 649 q 628 648 628 649 q 629 646 628 647 q 635 628 635 635 q 633 608 638 617 q 606 596 624 594 q 595 597 600 596 q 585 600 590 599 q 578 603 582 601 q 572 606 575 604 q 573 603 572 604 q 574 601 574 603 q 572 586 576 593 q 544 576 565 572 q 526 585 535 578 q 475 651 486 611 q 476 674 472 664 q 483 682 478 676 q 490 681 488 683 q 498 681 494 682 q 506 676 501 679 l 556 647 q 593 631 575 638 q 597 629 596 629 q 600 628 597 629 q 599 631 600 631 q 599 632 599 631 q 592 644 596 639 q 585 657 589 650 q 578 666 582 661 q 572 675 575 671 q 565 682 571 679 q 501 721 529 701 q 431 772 465 744 q 368 828 397 799 q 325 878 344 849 q 319 888 322 883 q 313 900 315 893 q 310 911 310 908 q 311 922 308 915 q 332 932 315 932 q 349 926 343 929 q 379 908 367 918 q 413 883 397 896 q 444 856 429 869 q 583 713 521 788 q 601 689 590 703 q 603 686 603 688 q 607 683 604 685 q 615 681 611 682 q 621 678 618 679 l 622 678 l 619 681 q 610 694 615 688 q 600 708 606 701 q 592 721 596 715 q 585 733 588 726 q 582 742 583 738 q 581 750 581 746 q 582 765 578 760 q 613 775 592 782 q 629 768 618 774 l 646 760 m 468 797 q 442 823 454 810 q 415 849 429 836 q 389 872 401 861 q 361 894 376 883 q 349 902 354 899 q 336 908 343 906 q 331 911 333 911 q 332 907 331 908 q 338 896 335 899 q 345 883 340 889 q 354 871 350 878 q 378 844 365 857 q 404 819 390 831 q 493 751 444 783 q 528 729 508 740 q 532 726 531 726 q 501 763 517 746 q 468 797 485 779 m 510 629 q 525 616 517 622 q 538 608 533 610 q 493 654 518 638 q 510 629 500 642 m 500 492 q 524 533 506 514 q 533 544 528 539 q 544 556 538 550 q 568 569 557 565 q 588 574 579 574 q 635 556 615 575 q 653 528 646 544 q 658 506 657 517 q 657 483 658 494 q 622 406 653 438 q 585 382 607 390 l 568 378 q 511 401 532 375 q 509 404 510 403 q 507 407 508 406 q 506 410 506 408 q 504 413 506 411 l 503 413 q 500 417 499 414 q 500 424 500 417 q 494 464 492 443 q 496 478 494 471 q 500 492 497 485 m 638 532 q 628 549 632 543 q 589 565 614 565 q 567 563 579 567 q 525 531 540 553 q 512 506 517 518 q 504 478 507 493 q 506 435 501 456 q 507 431 506 432 q 508 432 508 432 q 510 437 510 435 q 514 442 511 439 q 513 446 515 443 q 508 457 508 453 q 517 478 508 469 q 528 481 522 483 q 535 472 535 478 q 535 461 536 467 q 532 453 533 457 q 529 444 531 449 q 528 443 529 443 q 531 442 531 442 q 542 438 538 439 q 554 433 547 436 q 562 431 558 432 q 569 426 565 429 q 572 424 571 425 q 575 421 574 424 q 574 415 578 418 l 569 415 q 547 421 557 415 q 538 427 543 424 q 529 433 533 431 q 525 436 528 433 l 524 435 q 518 427 521 431 q 513 419 515 424 q 513 417 511 418 q 517 410 515 414 q 521 404 518 407 q 564 388 538 383 q 582 393 575 390 q 611 415 599 400 q 642 485 638 446 q 638 532 646 507 m 521 460 q 522 469 522 463 q 522 472 522 469 l 521 472 q 518 471 519 472 q 511 460 514 468 q 513 453 511 456 l 517 449 q 519 454 518 451 q 521 460 519 457 m 581 501 q 583 494 582 497 q 583 488 585 490 q 587 486 586 486 q 590 485 588 486 q 607 480 599 482 q 624 475 615 478 q 629 472 624 475 q 635 464 635 468 q 624 458 633 458 q 618 461 624 458 q 599 468 608 464 q 581 475 590 472 q 578 476 579 475 q 576 476 578 476 q 579 472 576 474 q 588 467 583 469 q 597 463 593 465 q 603 459 600 461 q 608 454 606 457 q 614 421 622 438 q 607 414 611 417 q 603 412 604 413 q 600 410 603 411 q 583 417 588 407 q 578 428 581 419 q 576 440 576 435 q 575 453 575 446 q 574 464 574 457 q 569 468 574 468 q 564 471 569 468 q 565 468 565 469 q 568 453 572 460 q 551 447 563 447 q 547 449 549 449 q 542 450 544 449 q 540 457 535 454 q 543 458 542 457 q 546 458 544 458 q 549 459 549 458 q 553 460 550 460 q 554 463 557 460 q 551 468 554 465 q 547 474 549 471 q 543 479 546 476 q 542 480 542 479 q 540 481 542 481 q 540 483 538 483 q 543 485 542 485 q 545 484 544 485 q 547 483 546 483 q 558 479 553 481 q 569 475 564 478 l 571 475 q 568 481 572 478 q 559 485 564 483 q 549 490 554 488 q 547 492 547 492 q 544 493 546 492 q 543 497 542 496 q 546 499 543 499 l 549 499 q 548 500 549 500 q 547 501 547 500 q 550 517 543 511 q 568 517 558 525 q 575 510 572 514 q 581 501 578 507 m 604 429 q 596 454 608 442 q 589 458 593 457 q 582 463 585 460 q 581 463 581 463 q 579 464 581 464 l 579 463 q 589 431 583 444 q 592 425 589 428 q 599 424 594 419 q 601 426 601 425 q 604 429 601 426 m 567 501 q 561 510 564 507 q 556 513 558 513 q 553 508 553 513 q 556 499 551 504 q 568 493 561 494 q 567 497 568 496 q 567 501 567 499 m 601 519 q 603 515 603 517 q 604 511 603 514 q 607 507 604 508 q 615 504 613 504 q 621 503 617 503 l 621 508 q 615 524 619 517 q 610 544 613 538 q 611 549 610 549 q 612 547 611 547 q 613 546 613 547 q 623 531 618 539 q 631 517 628 524 q 633 508 633 511 q 633 501 636 504 q 614 492 631 488 q 593 503 600 497 q 568 532 576 515 q 564 542 565 538 q 567 549 564 547 q 578 550 569 556 q 585 546 579 549 q 601 519 597 533 m 578 535 q 586 523 581 528 q 594 515 592 518 q 576 538 588 531 q 577 536 576 536 q 578 535 578 536 z "},"\"":{"ha":372,"x_min":19,"x_max":354,"o":"m 19 981 l 176 981 l 126 724 l 60 724 l 19 981 m 354 981 l 303 724 l 236 724 l 196 981 l 354 981 z "},"#":{"ha":858,"x_min":26,"x_max":831,"o":"m 685 568 l 685 418 l 831 418 l 831 236 l 685 236 l 685 19 l 504 19 l 504 236 l 353 236 l 353 22 l 172 22 l 172 236 l 26 236 l 26 418 l 172 418 l 172 568 l 26 568 l 26 750 l 172 750 l 172 967 l 353 967 l 353 750 l 504 750 l 504 964 l 685 964 l 685 750 l 831 750 l 831 568 l 685 568 m 504 568 l 353 568 l 353 418 l 504 418 l 504 568 z "},"$":{"ha":776,"x_min":43,"x_max":743,"o":"m 400 654 q 419 644 410 649 q 436 632 428 639 q 483 602 460 617 q 529 574 506 588 q 536 568 532 572 q 543 561 540 567 q 536 553 543 553 l 529 553 q 525 554 526 554 q 522 556 524 554 q 503 566 513 561 q 483 576 493 571 q 445 599 464 588 q 407 624 426 611 q 394 632 400 628 q 381 640 388 636 q 376 642 378 642 q 371 643 374 642 q 367 644 369 644 q 366 640 365 642 q 367 636 367 639 q 376 622 369 628 q 389 608 382 615 q 425 585 407 594 q 469 563 447 575 l 482 554 q 490 547 485 553 q 492 535 496 540 q 481 529 489 529 q 468 531 476 528 q 450 538 460 533 q 425 548 438 543 q 400 560 413 553 q 388 565 393 563 q 375 569 382 567 q 373 571 374 571 q 371 572 372 571 q 374 568 371 571 q 389 556 381 561 q 404 544 397 551 q 431 524 418 533 q 458 506 444 515 q 465 499 461 503 q 472 493 469 496 q 478 486 476 489 q 480 472 483 478 q 465 467 476 467 q 453 469 461 467 q 450 470 451 469 q 446 471 449 471 q 449 468 449 468 q 461 460 456 464 q 471 450 467 456 q 481 439 475 447 q 485 429 485 435 q 472 413 488 418 q 456 413 464 411 q 440 414 449 413 q 425 418 432 415 q 421 419 424 419 l 421 419 q 422 418 421 418 q 422 417 422 418 q 430 408 426 413 q 435 397 433 403 q 438 394 438 394 q 447 388 443 392 q 454 379 450 383 q 472 360 463 369 q 489 342 481 351 q 502 327 496 335 q 515 313 508 319 q 522 301 518 306 q 528 289 525 296 q 532 272 532 281 q 513 247 532 256 q 489 246 499 244 q 473 247 481 246 q 457 251 465 249 q 428 261 442 256 q 400 274 414 267 q 387 280 393 276 q 374 286 381 283 q 372 288 372 288 q 369 289 371 288 l 368 288 q 346 276 361 279 q 332 276 339 276 q 318 279 325 276 q 314 280 315 279 q 310 281 313 281 q 313 278 310 281 q 318 269 315 274 q 324 261 321 265 q 329 249 326 257 q 322 232 331 238 q 301 229 314 226 q 289 233 294 231 q 276 239 283 236 q 265 246 272 244 q 264 244 264 246 l 264 243 q 268 238 263 242 q 286 226 278 232 q 303 214 294 221 q 364 122 347 171 q 368 101 367 111 q 367 79 369 90 q 358 61 365 69 q 332 47 349 49 q 297 54 315 44 q 269 76 279 64 q 247 111 256 92 q 233 161 238 133 q 231 191 231 176 q 232 221 231 206 l 232 225 l 228 225 q 215 218 218 222 q 204 208 211 215 q 195 198 199 203 q 188 188 192 193 q 169 169 179 178 q 163 165 167 167 q 156 161 158 164 q 107 169 131 153 q 85 190 93 178 q 69 223 74 206 q 65 257 64 240 q 75 286 68 275 q 83 294 79 290 q 94 301 88 299 q 102 303 99 303 q 110 304 106 304 q 115 301 115 301 q 113 300 115 300 q 93 290 100 300 q 83 267 83 278 q 100 206 79 236 q 114 190 104 197 q 118 188 117 189 q 122 185 119 186 q 139 183 129 181 q 151 193 149 188 q 165 208 157 197 q 176 219 171 214 q 185 231 181 225 q 201 243 192 238 q 232 249 217 250 l 235 249 q 236 251 235 250 q 238 260 236 257 q 239 265 238 264 q 236 271 239 269 q 215 296 224 283 q 207 311 208 306 q 204 321 204 314 q 207 329 204 324 q 205 331 206 331 q 203 332 204 331 q 199 335 200 333 q 196 338 199 336 q 196 353 189 346 q 214 356 203 360 q 218 354 217 356 q 222 351 219 353 q 296 315 260 329 q 309 311 303 313 q 322 307 315 310 q 332 306 329 307 l 338 306 l 335 308 q 249 364 292 333 q 214 388 231 376 q 181 413 197 400 q 149 440 164 426 q 118 469 133 454 q 69 522 93 496 q 51 549 57 538 q 44 565 46 560 q 44 572 44 568 q 44 578 43 575 q 69 592 49 594 q 79 590 75 592 q 89 586 83 589 q 103 580 96 583 q 117 572 110 576 q 145 556 132 564 q 171 536 158 547 l 208 503 q 242 473 225 488 q 274 443 258 458 q 306 410 290 426 q 336 375 322 393 q 347 361 343 368 q 357 347 351 354 q 371 318 365 332 q 374 315 371 315 q 450 281 408 296 q 471 275 457 278 q 478 273 475 274 q 486 272 482 272 q 496 274 493 272 q 500 278 500 274 q 499 286 500 283 q 492 301 497 290 q 482 317 488 310 q 469 332 476 325 q 455 351 463 342 q 440 368 447 360 q 436 374 438 371 q 432 379 435 376 q 429 378 431 378 q 410 374 422 371 q 389 379 403 374 q 350 401 368 388 q 310 443 326 419 q 300 460 301 454 q 300 475 297 469 q 298 476 299 476 q 296 478 297 476 q 290 481 296 478 q 289 490 285 486 q 299 492 290 494 q 304 489 301 492 q 353 467 328 478 q 404 446 378 456 q 421 440 413 443 q 439 435 429 438 q 445 434 442 435 q 453 433 449 433 q 458 432 454 432 q 457 435 457 435 l 446 446 q 431 456 439 451 q 415 467 424 461 q 383 485 400 476 q 351 504 367 494 q 337 513 344 508 q 321 521 329 517 q 317 524 318 522 q 314 526 317 525 q 310 529 311 529 q 308 540 306 535 q 318 544 311 544 q 328 542 322 544 q 358 531 342 538 q 388 517 374 524 q 418 504 403 511 q 421 503 419 504 q 424 503 422 503 l 424 503 q 421 506 424 503 q 398 521 410 513 q 375 538 386 529 q 358 551 367 544 q 343 564 350 557 q 338 569 340 567 q 333 574 336 571 q 331 578 332 576 q 328 582 329 579 q 343 601 321 601 q 358 600 347 603 q 363 599 361 600 q 368 599 365 599 l 365 601 q 346 626 351 613 q 340 642 340 635 q 342 654 338 650 q 363 667 346 667 q 379 664 368 667 q 390 659 385 661 q 400 654 394 657 m 264 214 q 262 215 263 214 q 260 215 261 215 l 260 215 q 258 202 258 208 q 257 189 258 196 l 257 185 q 258 159 257 172 q 264 132 260 146 q 278 100 268 113 q 296 78 286 88 q 303 73 300 75 q 311 69 307 71 q 335 74 326 65 q 338 79 338 79 q 340 97 340 85 q 336 119 340 110 q 320 155 331 139 q 296 186 310 171 q 264 214 282 201 m 217 322 q 214 324 217 324 q 215 319 215 322 q 222 310 221 311 l 239 293 q 265 274 250 283 q 286 263 281 264 l 282 267 q 251 296 267 282 q 217 322 235 310 m 317 349 q 319 346 319 346 q 318 350 319 349 q 308 363 313 358 q 281 397 296 381 q 249 429 265 414 q 233 445 242 438 q 218 460 225 453 q 188 489 203 475 q 156 517 172 503 q 131 537 144 528 q 104 554 118 546 q 90 563 97 558 q 72 569 82 567 q 69 571 71 571 q 65 572 68 571 q 67 568 67 569 q 70 561 69 565 q 74 554 71 557 q 81 542 76 547 q 92 529 86 536 q 118 500 104 514 q 147 472 132 486 q 172 450 160 461 q 199 429 185 439 q 233 403 215 415 q 268 381 250 392 q 317 349 293 363 m 378 421 q 319 463 351 444 q 318 464 318 464 l 317 463 q 335 444 325 453 q 356 429 344 436 q 392 408 374 415 q 390 411 390 410 q 384 416 388 414 q 378 421 381 418 m 646 760 q 666 748 657 753 q 685 736 675 743 q 695 731 690 733 q 706 726 700 729 q 711 725 707 725 q 728 725 719 721 q 732 728 731 728 q 736 732 733 729 q 738 733 738 732 q 740 733 738 733 q 740 729 743 732 q 735 717 738 719 q 710 708 725 707 q 694 711 706 708 q 672 718 683 714 q 650 728 661 722 q 624 739 638 732 q 618 742 624 739 l 618 739 q 622 731 621 735 q 626 724 624 728 q 646 693 636 707 q 651 685 649 689 q 657 676 654 681 q 659 672 658 674 q 661 667 660 669 q 660 654 664 660 q 642 646 654 643 q 632 649 638 646 q 626 650 629 649 q 628 648 628 649 q 629 646 628 647 q 635 628 635 635 q 633 608 638 617 q 606 596 624 594 q 595 597 600 596 q 585 600 590 599 q 578 603 582 601 q 572 606 575 604 q 573 603 572 604 q 574 601 574 603 q 572 586 576 593 q 544 576 565 572 q 526 585 535 578 q 475 651 486 611 q 476 674 472 664 q 483 682 478 676 q 490 681 488 683 q 498 681 494 682 q 506 676 501 679 l 556 647 q 593 631 575 638 q 597 629 596 629 q 600 628 597 629 q 599 631 600 631 q 599 632 599 631 q 592 644 596 639 q 585 657 589 650 q 578 666 582 661 q 572 675 575 671 q 565 682 571 679 q 501 721 529 701 q 431 772 465 744 q 368 828 397 799 q 325 878 344 849 q 319 888 322 883 q 313 900 315 893 q 310 911 310 908 q 311 922 308 915 q 332 932 315 932 q 349 926 343 929 q 379 908 367 918 q 413 883 397 896 q 444 856 429 869 q 583 713 521 788 q 601 689 590 703 q 603 686 603 688 q 607 683 604 685 q 615 681 611 682 q 621 678 618 679 l 622 678 l 619 681 q 610 694 615 688 q 600 708 606 701 q 592 721 596 715 q 585 733 588 726 q 582 742 583 738 q 581 750 581 746 q 582 765 578 760 q 613 775 592 782 q 629 768 618 774 l 646 760 m 468 797 q 442 823 454 810 q 415 849 429 836 q 389 872 401 861 q 361 894 376 883 q 349 902 354 899 q 336 908 343 906 q 331 911 333 911 q 332 907 331 908 q 338 896 335 899 q 345 883 340 889 q 354 871 350 878 q 378 844 365 857 q 404 819 390 831 q 493 751 444 783 q 528 729 508 740 q 532 726 531 726 q 501 763 517 746 q 468 797 485 779 m 510 629 q 525 616 517 622 q 538 608 533 610 q 493 654 518 638 q 510 629 500 642 m 500 492 q 524 533 506 514 q 533 544 528 539 q 544 556 538 550 q 568 569 557 565 q 588 574 579 574 q 635 556 615 575 q 653 528 646 544 q 658 506 657 517 q 657 483 658 494 q 622 406 653 438 q 585 382 607 390 l 568 378 q 511 401 532 375 q 509 404 510 403 q 507 407 508 406 q 506 410 506 408 q 504 413 506 411 l 503 413 q 500 417 499 414 q 500 424 500 417 q 494 464 492 443 q 496 478 494 471 q 500 492 497 485 m 638 532 q 628 549 632 543 q 589 565 614 565 q 567 563 579 567 q 525 531 540 553 q 512 506 517 518 q 504 478 507 493 q 506 435 501 456 q 507 431 506 432 q 508 432 508 432 q 510 437 510 435 q 514 442 511 439 q 513 446 515 443 q 508 457 508 453 q 517 478 508 469 q 528 481 522 483 q 535 472 535 478 q 535 461 536 467 q 532 453 533 457 q 529 444 531 449 q 528 443 529 443 q 531 442 531 442 q 542 438 538 439 q 554 433 547 436 q 562 431 558 432 q 569 426 565 429 q 572 424 571 425 q 575 421 574 424 q 574 415 578 418 l 569 415 q 547 421 557 415 q 538 427 543 424 q 529 433 533 431 q 525 436 528 433 l 524 435 q 518 427 521 431 q 513 419 515 424 q 513 417 511 418 q 517 410 515 414 q 521 404 518 407 q 564 388 538 383 q 582 393 575 390 q 611 415 599 400 q 642 485 638 446 q 638 532 646 507 m 521 460 q 522 469 522 463 q 522 472 522 469 l 521 472 q 518 471 519 472 q 511 460 514 468 q 513 453 511 456 l 517 449 q 519 454 518 451 q 521 460 519 457 m 581 501 q 583 494 582 497 q 583 488 585 490 q 587 486 586 486 q 590 485 588 486 q 607 480 599 482 q 624 475 615 478 q 629 472 624 475 q 635 464 635 468 q 624 458 633 458 q 618 461 624 458 q 599 468 608 464 q 581 475 590 472 q 578 476 579 475 q 576 476 578 476 q 579 472 576 474 q 588 467 583 469 q 597 463 593 465 q 603 459 600 461 q 608 454 606 457 q 614 421 622 438 q 607 414 611 417 q 603 412 604 413 q 600 410 603 411 q 583 417 588 407 q 578 428 581 419 q 576 440 576 435 q 575 453 575 446 q 574 464 574 457 q 569 468 574 468 q 564 471 569 468 q 565 468 565 469 q 568 453 572 460 q 551 447 563 447 q 547 449 549 449 q 542 450 544 449 q 540 457 535 454 q 543 458 542 457 q 546 458 544 458 q 549 459 549 458 q 553 460 550 460 q 554 463 557 460 q 551 468 554 465 q 547 474 549 471 q 543 479 546 476 q 542 480 542 479 q 540 481 542 481 q 540 483 538 483 q 543 485 542 485 q 545 484 544 485 q 547 483 546 483 q 558 479 553 481 q 569 475 564 478 l 571 475 q 568 481 572 478 q 559 485 564 483 q 549 490 554 488 q 547 492 547 492 q 544 493 546 492 q 543 497 542 496 q 546 499 543 499 l 549 499 q 548 500 549 500 q 547 501 547 500 q 550 517 543 511 q 568 517 558 525 q 575 510 572 514 q 581 501 578 507 m 604 429 q 596 454 608 442 q 589 458 593 457 q 582 463 585 460 q 581 463 581 463 q 579 464 581 464 l 579 463 q 589 431 583 444 q 592 425 589 428 q 599 424 594 419 q 601 426 601 425 q 604 429 601 426 m 567 501 q 561 510 564 507 q 556 513 558 513 q 553 508 553 513 q 556 499 551 504 q 568 493 561 494 q 567 497 568 496 q 567 501 567 499 m 601 519 q 603 515 603 517 q 604 511 603 514 q 607 507 604 508 q 615 504 613 504 q 621 503 617 503 l 621 508 q 615 524 619 517 q 610 544 613 538 q 611 549 610 549 q 612 547 611 547 q 613 546 613 547 q 623 531 618 539 q 631 517 628 524 q 633 508 633 511 q 633 501 636 504 q 614 492 631 488 q 593 503 600 497 q 568 532 576 515 q 564 542 565 538 q 567 549 564 547 q 578 550 569 556 q 585 546 579 549 q 601 519 597 533 m 578 535 q 586 523 581 528 q 594 515 592 518 q 576 538 588 531 q 577 536 576 536 q 578 535 578 536 z "},"%":{"ha":1058,"x_min":19,"x_max":1038,"o":"m 397 606 q 347 467 397 518 q 208 417 296 417 q 70 467 121 417 q 19 606 19 518 l 19 800 q 70 938 19 888 q 208 989 121 989 q 347 938 296 989 q 397 800 397 888 l 397 606 m 232 790 q 225 806 232 800 q 208 813 218 813 q 186 790 186 813 l 186 614 q 208 592 186 592 q 225 598 218 592 q 232 614 232 604 l 232 790 m 849 561 q 987 510 936 561 q 1038 372 1038 460 l 1038 178 q 987 40 1038 90 q 849 -11 936 -11 q 710 40 761 -11 q 660 178 660 90 l 660 372 q 710 510 660 460 q 849 561 761 561 m 871 364 q 849 386 871 386 q 832 380 839 386 q 825 364 825 374 l 825 188 q 832 172 825 178 q 849 165 839 165 q 871 188 871 165 l 871 364 m 775 972 l 472 0 l 282 0 l 585 972 l 775 972 z "},"&":{"ha":740,"x_min":29,"x_max":718,"o":"m 718 -29 l 597 -29 l 544 33 q 444 -12 508 6 q 310 -29 381 -29 q 187 -8 239 -29 q 99 49 135 13 q 47 135 64 86 q 29 242 29 185 q 55 386 29 322 q 121 478 81 450 q 55 559 81 507 q 29 694 29 611 q 49 806 29 751 q 107 902 68 860 q 203 970 146 944 q 338 996 261 996 q 460 980 410 996 q 546 938 511 964 q 601 879 581 913 q 631 811 621 846 q 635 626 653 729 l 379 626 q 379 664 382 647 q 368 690 376 679 q 338 701 360 701 q 301 685 315 701 q 286 646 286 669 q 289 619 286 632 q 302 596 292 606 q 332 581 313 586 q 385 575 351 575 l 711 575 l 711 374 l 646 374 l 718 -29 m 338 265 q 371 278 360 265 q 387 308 382 290 q 392 344 392 325 q 390 374 392 363 l 385 374 l 385 375 q 286 321 286 375 q 301 281 286 297 q 338 265 315 265 z "},"'":{"ha":196,"x_min":19,"x_max":176,"o":"m 176 981 l 126 724 l 60 724 l 19 981 l 176 981 z "},"(":{"ha":431,"x_min":33,"x_max":414,"o":"m 414 857 q 341 827 371 857 q 311 756 311 797 l 311 211 q 341 139 311 168 q 414 110 371 110 l 414 -72 l 308 -72 q 201 -51 251 -72 q 114 8 151 -29 q 55 96 76 46 q 33 203 33 146 l 33 764 q 55 871 33 821 q 114 958 76 921 q 201 1017 151 996 q 308 1039 251 1039 l 414 1039 l 414 857 z "},")":{"ha":431,"x_min":17,"x_max":397,"o":"m 121 1039 q 228 1017 178 1039 q 317 958 279 996 q 376 871 354 921 q 397 764 397 821 l 397 203 q 376 96 397 146 q 317 8 354 46 q 228 -51 279 -29 q 121 -72 178 -72 l 17 -72 l 17 110 q 90 139 60 110 q 119 211 119 168 l 119 756 q 90 827 119 797 q 17 857 60 857 l 17 1039 l 121 1039 z "},"*":{"ha":313,"x_min":22,"x_max":289,"o":"m 289 796 l 238 796 l 274 760 l 226 711 l 189 747 l 189 696 l 122 696 l 122 747 l 85 711 l 38 760 l 74 796 l 22 796 l 22 864 l 74 864 l 38 900 l 85 947 l 122 911 l 122 963 l 189 963 l 189 911 l 226 947 l 274 900 l 238 864 l 289 864 l 289 796 z "},"+":{"ha":556,"x_min":21,"x_max":533,"o":"m 533 515 l 533 335 l 368 335 l 368 168 l 186 168 l 186 335 l 21 335 l 21 515 l 186 515 l 186 681 l 368 681 l 368 515 l 533 515 z "},",":{"ha":328,"x_min":22,"x_max":304,"o":"m 163 263 q 217 251 192 263 q 263 222 243 240 q 293 177 282 203 q 304 122 304 151 q 294 17 304 65 q 269 -67 283 -31 q 235 -142 254 -108 l 144 -104 q 161 -79 153 -93 q 176 -51 168 -67 q 189 -17 183 -36 q 176 -19 182 -18 q 163 -19 169 -19 q 108 -8 133 -19 q 63 22 82 3 q 33 67 44 42 q 22 122 22 93 q 33 177 22 151 q 63 222 44 203 q 108 251 82 240 q 163 263 133 263 z "},"-":{"ha":485,"x_min":22,"x_max":463,"o":"m 22 324 l 22 504 l 463 504 l 463 324 l 22 324 z "},".":{"ha":326,"x_min":14,"x_max":307,"o":"m 190 -17 q 84 4 132 -28 q 25 94 36 36 q 46 201 14 153 q 136 260 78 249 q 192 260 165 265 q 242 239 219 254 q 280 201 264 224 q 301 149 296 178 q 301 92 307 119 q 281 43 296 65 q 242 5 265 21 q 190 -17 219 -11 z "},"/":{"ha":631,"x_min":69,"x_max":561,"o":"m 561 969 l 260 -3 l 69 -3 l 372 969 l 561 969 z "},":":{"ha":335,"x_min":26,"x_max":308,"o":"m 167 94 q 112 106 138 94 q 67 135 86 117 q 38 180 49 154 q 26 235 26 206 q 38 290 26 264 q 67 334 49 315 q 112 364 86 353 q 167 375 138 375 q 222 364 196 375 q 267 334 247 353 q 297 290 286 315 q 308 235 308 264 q 297 180 308 206 q 267 135 286 154 q 222 106 247 117 q 167 94 196 94 m 167 456 q 112 467 138 456 q 67 497 86 478 q 38 541 49 515 q 26 596 26 567 q 38 651 26 625 q 67 696 49 676 q 112 726 86 715 q 167 738 138 738 q 222 726 196 738 q 267 696 247 715 q 297 651 286 676 q 308 596 308 625 q 297 541 308 567 q 267 497 286 515 q 222 467 247 478 q 167 456 196 456 z "},";":{"ha":346,"x_min":25,"x_max":329,"o":"m 218 461 q 163 456 190 453 q 111 472 135 460 q 69 506 88 485 q 43 556 51 528 q 38 611 35 583 q 53 663 40 639 q 87 704 65 686 q 136 731 108 722 q 192 736 164 739 q 244 721 221 733 q 286 687 268 708 q 313 638 304 665 q 302 530 329 581 q 218 461 275 479 m 165 375 q 220 364 194 375 q 265 334 246 353 q 296 290 285 315 q 307 235 307 264 q 297 130 307 178 q 272 46 286 82 q 238 -29 257 4 l 147 10 q 164 35 156 21 q 178 62 171 46 q 192 96 186 78 q 178 94 185 94 q 165 94 172 94 q 110 106 136 94 q 66 135 85 117 q 36 180 47 154 q 25 235 25 206 q 36 290 25 264 q 66 334 47 315 q 110 364 85 353 q 165 375 136 375 z "},"<":{"ha":574,"x_min":22,"x_max":550,"o":"m 267 444 l 550 332 l 483 163 l 22 347 l 22 542 l 483 726 l 550 558 l 267 444 z "},"=":{"ha":567,"x_min":26,"x_max":539,"o":"m 26 444 l 26 626 l 539 626 l 539 444 l 26 444 m 26 224 l 26 404 l 539 404 l 539 224 l 26 224 z "},">":{"ha":574,"x_min":22,"x_max":550,"o":"m 550 542 l 550 347 l 89 163 l 22 332 l 306 444 l 22 558 l 89 726 l 550 542 z "},"?":{"ha":771,"x_min":43,"x_max":743,"o":"m 400 654 q 419 644 410 649 q 436 632 428 639 q 483 602 460 617 q 529 574 506 588 q 536 568 532 572 q 543 561 540 567 q 536 553 543 553 l 529 553 q 525 554 526 554 q 522 556 524 554 q 503 566 513 561 q 483 576 493 571 q 445 599 464 588 q 407 624 426 611 q 394 632 400 628 q 381 640 388 636 q 376 642 378 642 q 371 643 374 642 q 367 644 369 644 q 366 640 365 642 q 367 636 367 639 q 376 622 369 628 q 389 608 382 615 q 425 585 407 594 q 469 563 447 575 l 482 554 q 490 547 485 553 q 492 535 496 540 q 481 529 489 529 q 468 531 476 528 q 450 538 460 533 q 425 548 438 543 q 400 560 413 553 q 388 565 393 563 q 375 569 382 567 q 373 571 374 571 q 371 572 372 571 q 374 568 371 571 q 389 556 381 561 q 404 544 397 551 q 431 524 418 533 q 458 506 444 515 q 465 499 461 503 q 472 493 469 496 q 478 486 476 489 q 480 472 483 478 q 465 467 476 467 q 453 469 461 467 q 450 470 451 469 q 446 471 449 471 q 449 468 449 468 q 461 460 456 464 q 471 450 467 456 q 481 439 475 447 q 485 429 485 435 q 472 413 488 418 q 456 413 464 411 q 440 414 449 413 q 425 418 432 415 q 421 419 424 419 l 421 419 q 422 418 421 418 q 422 417 422 418 q 430 408 426 413 q 435 397 433 403 q 438 394 438 394 q 447 388 443 392 q 454 379 450 383 q 472 360 463 369 q 489 342 481 351 q 502 327 496 335 q 515 313 508 319 q 522 301 518 306 q 528 289 525 296 q 532 272 532 281 q 513 247 532 256 q 489 246 499 244 q 473 247 481 246 q 457 251 465 249 q 428 261 442 256 q 400 274 414 267 q 387 280 393 276 q 374 286 381 283 q 372 288 372 288 q 369 289 371 288 l 368 288 q 346 276 361 279 q 332 276 339 276 q 318 279 325 276 q 314 280 315 279 q 310 281 313 281 q 313 278 310 281 q 318 269 315 274 q 324 261 321 265 q 329 249 326 257 q 322 232 331 238 q 301 229 314 226 q 289 233 294 231 q 276 239 283 236 q 265 246 272 244 q 264 244 264 246 l 264 243 q 268 238 263 242 q 286 226 278 232 q 303 214 294 221 q 364 122 347 171 q 368 101 367 111 q 367 79 369 90 q 358 61 365 69 q 332 47 349 49 q 297 54 315 44 q 269 76 279 64 q 247 111 256 92 q 233 161 238 133 q 231 191 231 176 q 232 221 231 206 l 232 225 l 228 225 q 215 218 218 222 q 204 208 211 215 q 195 198 199 203 q 188 188 192 193 q 169 169 179 178 q 163 165 167 167 q 156 161 158 164 q 107 169 131 153 q 85 190 93 178 q 69 223 74 206 q 65 257 64 240 q 75 286 68 275 q 83 294 79 290 q 94 301 88 299 q 102 303 99 303 q 110 304 106 304 q 115 301 115 301 q 113 300 115 300 q 93 290 100 300 q 83 267 83 278 q 100 206 79 236 q 114 190 104 197 q 118 188 117 189 q 122 185 119 186 q 139 183 129 181 q 151 193 149 188 q 165 208 157 197 q 176 219 171 214 q 185 231 181 225 q 201 243 192 238 q 232 249 217 250 l 235 249 q 236 251 235 250 q 238 260 236 257 q 239 265 238 264 q 236 271 239 269 q 215 296 224 283 q 207 311 208 306 q 204 321 204 314 q 207 329 204 324 q 205 331 206 331 q 203 332 204 331 q 199 335 200 333 q 196 338 199 336 q 196 353 189 346 q 214 356 203 360 q 218 354 217 356 q 222 351 219 353 q 296 315 260 329 q 309 311 303 313 q 322 307 315 310 q 332 306 329 307 l 338 306 l 335 308 q 249 364 292 333 q 214 388 231 376 q 181 413 197 400 q 149 440 164 426 q 118 469 133 454 q 69 522 93 496 q 51 549 57 538 q 44 565 46 560 q 44 572 44 568 q 44 578 43 575 q 69 592 49 594 q 79 590 75 592 q 89 586 83 589 q 103 580 96 583 q 117 572 110 576 q 145 556 132 564 q 171 536 158 547 l 208 503 q 242 473 225 488 q 274 443 258 458 q 306 410 290 426 q 336 375 322 393 q 347 361 343 368 q 357 347 351 354 q 371 318 365 332 q 374 315 371 315 q 450 281 408 296 q 471 275 457 278 q 478 273 475 274 q 486 272 482 272 q 496 274 493 272 q 500 278 500 274 q 499 286 500 283 q 492 301 497 290 q 482 317 488 310 q 469 332 476 325 q 455 351 463 342 q 440 368 447 360 q 436 374 438 371 q 432 379 435 376 q 429 378 431 378 q 410 374 422 371 q 389 379 403 374 q 350 401 368 388 q 310 443 326 419 q 300 460 301 454 q 300 475 297 469 q 298 476 299 476 q 296 478 297 476 q 290 481 296 478 q 289 490 285 486 q 299 492 290 494 q 304 489 301 492 q 353 467 328 478 q 404 446 378 456 q 421 440 413 443 q 439 435 429 438 q 445 434 442 435 q 453 433 449 433 q 458 432 454 432 q 457 435 457 435 l 446 446 q 431 456 439 451 q 415 467 424 461 q 383 485 400 476 q 351 504 367 494 q 337 513 344 508 q 321 521 329 517 q 317 524 318 522 q 314 526 317 525 q 310 529 311 529 q 308 540 306 535 q 318 544 311 544 q 328 542 322 544 q 358 531 342 538 q 388 517 374 524 q 418 504 403 511 q 421 503 419 504 q 424 503 422 503 l 424 503 q 421 506 424 503 q 398 521 410 513 q 375 538 386 529 q 358 551 367 544 q 343 564 350 557 q 338 569 340 567 q 333 574 336 571 q 331 578 332 576 q 328 582 329 579 q 343 601 321 601 q 358 600 347 603 q 363 599 361 600 q 368 599 365 599 l 365 601 q 346 626 351 613 q 340 642 340 635 q 342 654 338 650 q 363 667 346 667 q 379 664 368 667 q 390 659 385 661 q 400 654 394 657 m 264 214 q 262 215 263 214 q 260 215 261 215 l 260 215 q 258 202 258 208 q 257 189 258 196 l 257 185 q 258 159 257 172 q 264 132 260 146 q 278 100 268 113 q 296 78 286 88 q 303 73 300 75 q 311 69 307 71 q 335 74 326 65 q 338 79 338 79 q 340 97 340 85 q 336 119 340 110 q 320 155 331 139 q 296 186 310 171 q 264 214 282 201 m 217 322 q 214 324 217 324 q 215 319 215 322 q 222 310 221 311 l 239 293 q 265 274 250 283 q 286 263 281 264 l 282 267 q 251 296 267 282 q 217 322 235 310 m 317 349 q 319 346 319 346 q 318 350 319 349 q 308 363 313 358 q 281 397 296 381 q 249 429 265 414 q 233 445 242 438 q 218 460 225 453 q 188 489 203 475 q 156 517 172 503 q 131 537 144 528 q 104 554 118 546 q 90 563 97 558 q 72 569 82 567 q 69 571 71 571 q 65 572 68 571 q 67 568 67 569 q 70 561 69 565 q 74 554 71 557 q 81 542 76 547 q 92 529 86 536 q 118 500 104 514 q 147 472 132 486 q 172 450 160 461 q 199 429 185 439 q 233 403 215 415 q 268 381 250 392 q 317 349 293 363 m 378 421 q 319 463 351 444 q 318 464 318 464 l 317 463 q 335 444 325 453 q 356 429 344 436 q 392 408 374 415 q 390 411 390 410 q 384 416 388 414 q 378 421 381 418 m 646 760 q 666 748 657 753 q 685 736 675 743 q 695 731 690 733 q 706 726 700 729 q 711 725 707 725 q 728 725 719 721 q 732 728 731 728 q 736 732 733 729 q 738 733 738 732 q 740 733 738 733 q 740 729 743 732 q 735 717 738 719 q 710 708 725 707 q 694 711 706 708 q 672 718 683 714 q 650 728 661 722 q 624 739 638 732 q 618 742 624 739 l 618 739 q 622 731 621 735 q 626 724 624 728 q 646 693 636 707 q 651 685 649 689 q 657 676 654 681 q 659 672 658 674 q 661 667 660 669 q 660 654 664 660 q 642 646 654 643 q 632 649 638 646 q 626 650 629 649 q 628 648 628 649 q 629 646 628 647 q 635 628 635 635 q 633 608 638 617 q 606 596 624 594 q 595 597 600 596 q 585 600 590 599 q 578 603 582 601 q 572 606 575 604 q 573 603 572 604 q 574 601 574 603 q 572 586 576 593 q 544 576 565 572 q 526 585 535 578 q 475 651 486 611 q 476 674 472 664 q 483 682 478 676 q 490 681 488 683 q 498 681 494 682 q 506 676 501 679 l 556 647 q 593 631 575 638 q 597 629 596 629 q 600 628 597 629 q 599 631 600 631 q 599 632 599 631 q 592 644 596 639 q 585 657 589 650 q 578 666 582 661 q 572 675 575 671 q 565 682 571 679 q 501 721 529 701 q 431 772 465 744 q 368 828 397 799 q 325 878 344 849 q 319 888 322 883 q 313 900 315 893 q 310 911 310 908 q 311 922 308 915 q 332 932 315 932 q 349 926 343 929 q 379 908 367 918 q 413 883 397 896 q 444 856 429 869 q 583 713 521 788 q 601 689 590 703 q 603 686 603 688 q 607 683 604 685 q 615 681 611 682 q 621 678 618 679 l 622 678 l 619 681 q 610 694 615 688 q 600 708 606 701 q 592 721 596 715 q 585 733 588 726 q 582 742 583 738 q 581 750 581 746 q 582 765 578 760 q 613 775 592 782 q 629 768 618 774 l 646 760 m 468 797 q 442 823 454 810 q 415 849 429 836 q 389 872 401 861 q 361 894 376 883 q 349 902 354 899 q 336 908 343 906 q 331 911 333 911 q 332 907 331 908 q 338 896 335 899 q 345 883 340 889 q 354 871 350 878 q 378 844 365 857 q 404 819 390 831 q 493 751 444 783 q 528 729 508 740 q 532 726 531 726 q 501 763 517 746 q 468 797 485 779 m 510 629 q 525 616 517 622 q 538 608 533 610 q 493 654 518 638 q 510 629 500 642 m 500 492 q 524 533 506 514 q 533 544 528 539 q 544 556 538 550 q 568 569 557 565 q 588 574 579 574 q 635 556 615 575 q 653 528 646 544 q 658 506 657 517 q 657 483 658 494 q 622 406 653 438 q 585 382 607 390 l 568 378 q 511 401 532 375 q 509 404 510 403 q 507 407 508 406 q 506 410 506 408 q 504 413 506 411 l 503 413 q 500 417 499 414 q 500 424 500 417 q 494 464 492 443 q 496 478 494 471 q 500 492 497 485 m 638 532 q 628 549 632 543 q 589 565 614 565 q 567 563 579 567 q 525 531 540 553 q 512 506 517 518 q 504 478 507 493 q 506 435 501 456 q 507 431 506 432 q 508 432 508 432 q 510 437 510 435 q 514 442 511 439 q 513 446 515 443 q 508 457 508 453 q 517 478 508 469 q 528 481 522 483 q 535 472 535 478 q 535 461 536 467 q 532 453 533 457 q 529 444 531 449 q 528 443 529 443 q 531 442 531 442 q 542 438 538 439 q 554 433 547 436 q 562 431 558 432 q 569 426 565 429 q 572 424 571 425 q 575 421 574 424 q 574 415 578 418 l 569 415 q 547 421 557 415 q 538 427 543 424 q 529 433 533 431 q 525 436 528 433 l 524 435 q 518 427 521 431 q 513 419 515 424 q 513 417 511 418 q 517 410 515 414 q 521 404 518 407 q 564 388 538 383 q 582 393 575 390 q 611 415 599 400 q 642 485 638 446 q 638 532 646 507 m 521 460 q 522 469 522 463 q 522 472 522 469 l 521 472 q 518 471 519 472 q 511 460 514 468 q 513 453 511 456 l 517 449 q 519 454 518 451 q 521 460 519 457 m 581 501 q 583 494 582 497 q 583 488 585 490 q 587 486 586 486 q 590 485 588 486 q 607 480 599 482 q 624 475 615 478 q 629 472 624 475 q 635 464 635 468 q 624 458 633 458 q 618 461 624 458 q 599 468 608 464 q 581 475 590 472 q 578 476 579 475 q 576 476 578 476 q 579 472 576 474 q 588 467 583 469 q 597 463 593 465 q 603 459 600 461 q 608 454 606 457 q 614 421 622 438 q 607 414 611 417 q 603 412 604 413 q 600 410 603 411 q 583 417 588 407 q 578 428 581 419 q 576 440 576 435 q 575 453 575 446 q 574 464 574 457 q 569 468 574 468 q 564 471 569 468 q 565 468 565 469 q 568 453 572 460 q 551 447 563 447 q 547 449 549 449 q 542 450 544 449 q 540 457 535 454 q 543 458 542 457 q 546 458 544 458 q 549 459 549 458 q 553 460 550 460 q 554 463 557 460 q 551 468 554 465 q 547 474 549 471 q 543 479 546 476 q 542 480 542 479 q 540 481 542 481 q 540 483 538 483 q 543 485 542 485 q 545 484 544 485 q 547 483 546 483 q 558 479 553 481 q 569 475 564 478 l 571 475 q 568 481 572 478 q 559 485 564 483 q 549 490 554 488 q 547 492 547 492 q 544 493 546 492 q 543 497 542 496 q 546 499 543 499 l 549 499 q 548 500 549 500 q 547 501 547 500 q 550 517 543 511 q 568 517 558 525 q 575 510 572 514 q 581 501 578 507 m 604 429 q 596 454 608 442 q 589 458 593 457 q 582 463 585 460 q 581 463 581 463 q 579 464 581 464 l 579 463 q 589 431 583 444 q 592 425 589 428 q 599 424 594 419 q 601 426 601 425 q 604 429 601 426 m 567 501 q 561 510 564 507 q 556 513 558 513 q 553 508 553 513 q 556 499 551 504 q 568 493 561 494 q 567 497 568 496 q 567 501 567 499 m 601 519 q 603 515 603 517 q 604 511 603 514 q 607 507 604 508 q 615 504 613 504 q 621 503 617 503 l 621 508 q 615 524 619 517 q 610 544 613 538 q 611 549 610 549 q 612 547 611 547 q 613 546 613 547 q 623 531 618 539 q 631 517 628 524 q 633 508 633 511 q 633 501 636 504 q 614 492 631 488 q 593 503 600 497 q 568 532 576 515 q 564 542 565 538 q 567 549 564 547 q 578 550 569 556 q 585 546 579 549 q 601 519 597 533 m 578 535 q 586 523 581 528 q 594 515 592 518 q 576 538 588 531 q 577 536 576 536 q 578 535 578 536 z "},"@":{"ha":1054,"x_min":19,"x_max":1039,"o":"m 529 1004 q 728 964 635 1004 q 890 854 821 924 q 999 692 958 785 q 1039 494 1039 600 q 1023 374 1039 428 q 975 281 1007 321 q 894 221 944 242 q 797 200 843 200 q 690 218 740 200 q 607 285 639 236 q 567 250 586 263 q 532 231 549 238 q 501 224 515 225 q 472 224 486 224 q 408 237 438 224 q 356 276 378 250 q 320 341 333 301 q 307 435 307 381 l 307 549 q 355 708 307 657 q 472 760 403 760 q 567 706 540 760 l 567 740 l 751 740 l 751 424 q 774 365 754 383 q 815 347 793 347 q 861 372 843 347 q 885 423 876 392 q 893 494 893 454 q 865 635 893 569 q 787 751 836 701 q 671 830 738 801 q 529 858 604 858 q 388 830 454 858 q 272 751 322 801 q 194 635 222 701 q 165 494 165 569 q 194 353 165 419 q 272 237 222 286 q 388 159 322 188 q 529 131 454 131 q 722 185 635 131 l 799 61 q 529 -15 675 -15 q 331 25 424 -15 q 169 134 239 65 q 60 296 100 203 q 19 494 19 389 q 60 692 19 600 q 169 854 100 785 q 331 964 239 924 q 529 1004 424 1004 m 567 539 q 556 564 567 554 q 529 574 544 574 q 503 564 514 574 q 492 539 492 554 l 492 444 q 503 419 492 429 q 529 410 514 410 q 556 419 544 410 q 567 444 567 429 l 567 539 z "},"A":{"ha":664,"x_min":-3,"x_max":665,"o":"m 508 972 l 665 0 l 388 0 l 376 139 l 286 139 l 275 0 l -3 0 l 154 972 l 508 972 m 358 367 l 332 594 l 304 367 l 358 367 z "},"B":{"ha":740,"x_min":35,"x_max":731,"o":"m 597 468 q 697 374 663 433 q 731 235 731 315 q 708 123 731 168 q 647 51 686 78 q 551 12 607 24 q 428 0 494 0 l 35 0 l 35 972 l 401 972 q 625 897 547 972 q 703 688 703 822 q 597 468 703 536 m 313 704 l 313 592 l 369 592 q 409 608 393 592 q 425 649 425 625 q 409 688 425 672 q 369 704 393 704 l 313 704 m 396 268 q 436 284 419 268 q 453 324 453 300 q 436 364 453 347 q 396 381 419 381 l 313 381 l 313 268 l 396 268 z "},"C":{"ha":708,"x_min":22,"x_max":700,"o":"m 413 413 l 690 413 l 690 307 q 664 159 690 222 q 592 55 638 96 q 487 -6 547 14 q 357 -26 426 -26 q 226 -6 288 -26 q 120 55 165 14 q 49 159 75 96 q 22 307 22 222 l 22 665 q 49 814 22 751 q 120 917 75 876 q 226 978 165 958 q 357 999 288 999 q 490 980 435 999 q 583 931 546 961 q 642 861 621 900 q 675 782 664 822 q 679 564 700 686 l 401 564 q 408 635 410 603 q 397 683 407 661 q 357 704 386 704 q 317 688 333 704 q 300 649 300 672 l 300 324 q 317 284 300 300 q 357 268 333 268 q 397 284 381 268 q 413 324 413 300 l 413 413 z "},"D":{"ha":776,"x_min":35,"x_max":769,"o":"m 346 972 q 533 931 453 972 q 665 820 613 889 q 744 665 718 751 q 769 486 769 578 q 744 308 769 394 q 667 152 718 221 q 540 42 617 83 q 361 0 464 0 l 35 0 l 35 972 l 346 972 m 351 268 q 413 287 386 268 q 456 336 439 306 q 482 406 474 367 q 490 486 490 444 q 482 567 490 528 q 456 636 474 606 q 413 685 439 667 q 351 704 386 704 l 313 704 l 313 268 l 351 268 z "},"E":{"ha":685,"x_min":35,"x_max":657,"o":"m 35 972 l 657 972 l 657 704 l 313 704 l 313 619 l 635 619 l 635 353 l 313 353 l 313 267 l 657 267 l 657 -1 l 35 0 l 35 972 z "},"F":{"ha":667,"x_min":35,"x_max":657,"o":"m 35 972 l 657 972 l 657 704 l 313 704 l 313 619 l 635 619 l 635 353 l 313 353 l 313 0 l 35 0 l 35 972 z "},"G":{"ha":713,"x_min":22,"x_max":700,"o":"m 357 511 l 690 511 l 690 307 q 664 159 690 222 q 592 55 638 96 q 487 -6 547 14 q 357 -26 426 -26 q 226 -6 288 -26 q 120 55 165 14 q 49 159 75 96 q 22 307 22 222 l 22 665 q 49 814 22 751 q 120 917 75 876 q 226 978 165 958 q 357 999 288 999 q 490 980 435 999 q 583 931 546 961 q 642 861 621 900 q 675 782 664 822 q 679 564 700 686 l 401 564 q 408 635 410 603 q 397 683 407 661 q 357 704 386 704 q 317 688 333 704 q 300 649 300 672 l 300 324 q 317 284 300 300 q 357 268 333 268 q 397 284 381 268 q 413 324 413 300 l 413 393 l 357 429 l 357 511 z "},"H":{"ha":739,"x_min":35,"x_max":703,"o":"m 425 972 l 703 972 l 703 0 l 425 0 l 425 353 l 313 353 l 313 0 l 35 0 l 35 972 l 313 972 l 313 619 l 425 619 l 425 972 z "},"I":{"ha":347,"x_min":35,"x_max":313,"o":"m 35 0 l 35 972 l 313 972 l 313 0 l 35 0 z "},"J":{"ha":585,"x_min":-14,"x_max":556,"o":"m 278 972 l 556 972 l 556 353 q 552 274 556 317 q 538 189 549 231 q 507 108 526 147 q 456 40 488 69 q 378 -8 424 10 q 271 -26 333 -26 q 144 -19 197 -26 q 56 -4 90 -12 q -14 19 14 7 l 40 286 q 85 269 61 276 q 129 257 104 263 q 182 251 154 251 q 256 278 233 251 q 278 353 278 306 l 278 972 z "},"K":{"ha":750,"x_min":35,"x_max":760,"o":"m 760 972 l 519 556 l 760 0 l 461 0 l 354 271 l 313 197 l 313 0 l 35 0 l 35 972 l 313 972 l 313 715 l 461 972 l 760 972 z "},"L":{"ha":650,"x_min":35,"x_max":657,"o":"m 313 267 l 657 267 l 657 0 l 35 0 l 35 972 l 313 972 l 313 267 z "},"M":{"ha":1060,"x_min":-1,"x_max":1060,"o":"m 914 972 l 1060 0 l 782 0 l 729 417 l 668 0 l 392 0 l 331 417 l 276 0 l -1 0 l 146 972 l 424 972 l 529 594 l 635 972 l 914 972 z "},"N":{"ha":739,"x_min":35,"x_max":703,"o":"m 425 972 l 703 972 l 703 0 l 428 0 l 313 357 l 313 0 l 35 0 l 35 972 l 313 972 l 425 647 l 425 972 z "},"O":{"ha":714,"x_min":22,"x_max":690,"o":"m 357 999 q 487 978 426 999 q 592 917 547 958 q 664 814 638 876 q 690 665 690 751 l 690 307 q 664 159 690 222 q 592 55 638 96 q 487 -6 547 14 q 357 -26 426 -26 q 226 -6 288 -26 q 120 55 165 14 q 49 159 75 96 q 22 307 22 222 l 22 665 q 49 814 22 751 q 120 917 75 876 q 226 978 165 958 q 357 999 288 999 m 413 649 q 397 688 413 672 q 357 704 381 704 q 317 688 333 704 q 300 649 300 672 l 300 324 q 317 284 300 300 q 357 268 333 268 q 397 284 381 268 q 413 324 413 300 l 413 649 z "},"P":{"ha":701,"x_min":35,"x_max":703,"o":"m 379 972 q 517 947 457 972 q 619 877 578 921 q 681 774 660 833 q 703 649 703 715 q 681 522 703 582 q 619 419 660 463 q 517 349 578 375 q 379 324 457 324 l 313 324 l 313 0 l 35 0 l 35 972 l 379 972 m 369 592 q 409 608 393 592 q 425 649 425 625 q 409 688 425 672 q 369 704 393 704 l 313 704 l 313 592 l 369 592 z "},"Q":{"ha":736,"x_min":22,"x_max":732,"o":"m 594 56 q 642 37 618 43 q 686 28 665 31 q 732 24 710 24 l 611 -203 q 522 -185 561 -203 q 455 -140 483 -167 q 407 -83 426 -114 q 376 -26 388 -53 l 357 -26 q 226 -6 288 -26 q 120 55 165 14 q 49 159 75 96 q 22 307 22 222 l 22 665 q 49 814 22 751 q 120 917 75 876 q 226 978 165 958 q 357 999 288 999 q 487 978 426 999 q 592 917 547 958 q 664 814 638 876 q 690 665 690 751 l 690 307 q 665 160 690 222 q 594 56 639 97 m 413 649 q 397 688 413 672 q 357 704 381 704 q 317 688 333 704 q 300 649 300 672 l 300 324 q 317 284 300 300 q 357 268 333 268 q 397 284 381 268 q 413 324 413 300 l 413 649 z "},"R":{"ha":740,"x_min":35,"x_max":744,"o":"m 703 649 q 672 497 703 565 q 578 383 640 428 l 744 0 l 439 0 l 338 324 l 313 324 l 313 0 l 35 0 l 35 972 l 379 972 q 517 947 457 972 q 619 877 578 921 q 681 774 660 833 q 703 649 703 715 m 369 592 q 409 608 393 592 q 425 649 425 625 q 409 688 425 672 q 369 704 393 704 l 313 704 l 313 592 l 369 592 z "},"S":{"ha":653,"x_min":17,"x_max":640,"o":"m 274 649 q 301 603 274 615 q 368 585 328 592 q 456 568 408 578 q 543 529 503 558 q 610 443 583 500 q 638 286 638 386 q 618 172 638 228 q 560 72 599 115 q 463 1 521 28 q 325 -26 404 -26 q 206 -6 261 -26 q 108 55 150 14 q 42 159 67 96 q 18 307 18 222 l 18 363 l 274 363 l 274 324 q 288 284 274 300 q 325 268 303 268 q 362 284 347 268 q 376 324 376 300 q 350 368 376 356 q 283 390 324 381 q 197 411 243 399 q 110 455 150 424 q 43 543 69 486 q 17 697 17 600 q 36 808 17 754 q 94 905 56 863 q 191 973 133 947 q 325 999 249 999 q 448 983 397 999 q 533 941 499 967 q 588 882 568 915 q 618 814 608 849 q 622 629 640 732 l 367 629 q 367 667 369 650 q 356 693 364 682 q 325 704 347 704 q 288 688 303 704 q 274 649 274 672 z "},"T":{"ha":619,"x_min":-7,"x_max":626,"o":"m -7 972 l 626 972 l 626 704 l 449 704 l 449 0 l 171 0 l 171 704 l -7 704 l -7 972 z "},"U":{"ha":725,"x_min":28,"x_max":696,"o":"m 418 972 l 696 972 l 696 307 q 669 159 696 222 q 598 55 643 96 q 492 -6 553 14 q 363 -26 432 -26 q 232 -6 293 -26 q 126 55 171 14 q 54 159 81 96 q 28 307 28 222 l 28 972 l 306 972 l 306 324 q 322 284 306 300 q 363 268 339 268 q 402 284 386 268 q 418 324 418 300 l 418 972 z "},"V":{"ha":690,"x_min":-6,"x_max":696,"o":"m 407 972 l 696 972 l 522 0 l 168 0 l -6 972 l 283 972 l 344 354 l 407 972 z "},"W":{"ha":1104,"x_min":-6,"x_max":1110,"o":"m 821 972 l 1110 972 l 936 0 l 582 0 l 551 274 l 522 0 l 168 0 l -6 972 l 283 972 l 375 354 l 400 972 l 690 972 l 726 354 l 821 972 z "},"X":{"ha":701,"x_min":-7,"x_max":707,"o":"m 707 972 l 514 486 l 707 0 l 404 0 l 350 226 l 296 0 l -7 0 l 186 486 l -7 972 l 296 972 l 350 763 l 404 972 l 707 972 z "},"Y":{"ha":674,"x_min":-21,"x_max":693,"o":"m 390 972 l 693 972 l 475 424 l 475 0 l 197 0 l 197 424 l -21 972 l 282 972 l 336 763 l 390 972 z "},"Z":{"ha":703,"x_min":17,"x_max":685,"o":"m 685 721 l 367 268 l 685 268 l 685 0 l 17 0 l 17 257 l 346 704 l 17 704 l 17 972 l 685 972 l 685 721 z "},"[":{"ha":432,"x_min":35,"x_max":415,"o":"m 313 857 l 313 110 l 415 110 l 415 -72 l 35 -72 l 35 1039 l 415 1039 l 415 857 l 313 857 z "},"\\":{"ha":631,"x_min":69,"x_max":561,"o":"m 561 -3 l 372 -3 l 69 969 l 260 969 l 561 -3 z "},"]":{"ha":432,"x_min":17,"x_max":397,"o":"m 397 1039 l 397 -72 l 17 -72 l 17 110 l 119 110 l 119 857 l 17 857 l 17 1039 l 397 1039 z "},"^":{"ha":496,"x_min":14,"x_max":481,"o":"m 481 592 l 342 535 l 247 771 l 153 535 l 14 592 l 167 972 l 328 972 l 481 592 z "},"_":{"ha":583,"x_min":35,"x_max":547,"o":"m 35 -200 l 35 -19 l 547 -19 l 547 -200 l 35 -200 z "},"a":{"ha":696,"x_min":14,"x_max":671,"o":"m 354 735 q 477 717 419 735 q 578 662 535 699 q 646 569 621 625 q 671 436 671 513 l 671 0 l 446 0 l 424 43 q 326 -10 386 7 q 193 -26 267 -26 q 65 14 117 -26 q 14 129 14 54 l 14 238 q 27 299 14 269 q 65 351 40 328 q 126 387 90 374 q 204 400 161 400 q 314 389 264 400 q 407 350 364 378 l 407 421 q 392 456 407 442 q 354 471 376 471 q 315 456 331 471 q 300 421 300 442 l 38 436 q 63 569 38 513 q 131 662 88 625 q 231 717 174 699 q 354 735 289 735 m 404 211 q 390 252 404 239 q 351 265 375 265 q 311 251 328 265 q 294 215 294 238 l 294 190 q 311 145 294 156 q 351 135 328 135 q 393 155 382 135 q 404 188 404 175 l 404 211 z "},"b":{"ha":685,"x_min":32,"x_max":665,"o":"m 431 735 q 522 717 479 735 q 596 662 564 699 q 647 569 628 625 q 665 436 665 513 l 665 272 q 647 140 665 196 q 596 47 628 83 q 522 -8 564 10 q 431 -26 479 -26 q 338 -1 372 -26 q 283 76 303 24 l 264 0 l 32 0 l 32 972 l 294 972 l 294 658 q 431 735 335 735 m 401 421 q 386 456 401 442 q 349 471 371 471 q 310 456 326 471 q 294 421 294 442 l 294 288 q 310 252 294 267 q 349 238 326 238 q 386 252 371 238 q 401 288 401 267 l 401 421 z "},"c":{"ha":665,"x_min":17,"x_max":650,"o":"m 386 394 l 386 421 q 371 456 386 442 q 333 471 356 471 q 295 456 311 471 q 279 421 279 442 l 279 288 q 295 252 279 267 q 333 238 311 238 q 371 252 356 238 q 386 288 386 267 l 386 324 l 650 324 l 650 272 q 625 140 650 196 q 557 47 600 83 q 456 -8 514 10 q 333 -26 399 -26 q 210 -8 268 -26 q 110 47 153 10 q 42 140 67 83 q 17 272 17 196 l 17 436 q 42 569 17 513 q 110 662 67 625 q 210 717 153 699 q 333 735 268 735 q 456 717 399 735 q 557 662 514 699 q 625 569 600 625 q 650 436 650 513 l 650 394 l 386 394 z "},"d":{"ha":685,"x_min":19,"x_max":653,"o":"m 653 972 l 653 0 l 419 0 l 401 76 q 347 -1 382 24 q 254 -26 313 -26 q 163 -8 206 -26 q 89 47 121 10 q 38 140 57 83 q 19 272 19 196 l 19 436 q 38 569 19 513 q 89 662 57 625 q 163 717 121 699 q 254 735 206 735 q 389 658 351 735 l 389 972 l 653 972 m 389 421 q 374 456 389 442 q 336 471 358 471 q 298 456 314 471 q 282 421 282 442 l 282 288 q 298 252 282 267 q 336 238 314 238 q 374 252 358 238 q 389 288 389 267 l 389 421 z "},"e":{"ha":667,"x_min":17,"x_max":650,"o":"m 279 354 l 279 288 q 295 252 279 267 q 333 238 311 238 q 371 252 356 238 q 386 288 386 267 l 386 324 l 650 324 l 650 272 q 625 140 650 196 q 557 47 600 83 q 456 -8 514 10 q 333 -26 399 -26 q 210 -8 268 -26 q 110 47 153 10 q 42 140 67 83 q 17 272 17 196 l 17 436 q 42 569 17 513 q 110 662 67 625 q 210 717 153 699 q 333 735 268 735 q 456 717 399 735 q 557 662 514 699 q 625 569 600 625 q 650 436 650 513 l 650 354 l 279 354 m 279 415 l 386 415 l 386 421 q 371 456 386 442 q 333 471 356 471 q 295 456 311 471 q 279 421 279 442 l 279 415 z "},"f":{"ha":488,"x_min":10,"x_max":482,"o":"m 413 722 q 361 706 376 722 q 346 667 346 690 l 482 667 l 482 415 l 346 415 l 346 0 l 82 0 l 82 415 l 10 415 l 10 667 l 82 667 l 82 688 q 101 798 82 746 q 160 889 121 850 q 258 950 199 928 q 397 972 318 972 l 482 972 l 482 722 l 413 722 z "},"g":{"ha":685,"x_min":19,"x_max":654,"o":"m 653 708 l 653 0 q 627 -162 654 -96 q 556 -269 600 -228 q 454 -332 511 -311 q 338 -360 397 -353 q 19 -335 197 -378 l 61 -65 q 213 -95 151 -89 q 315 -95 275 -101 q 376 -74 354 -89 q 406 -41 397 -60 q 413 -2 414 -22 q 407 33 411 18 q 338 -12 376 3 q 254 -26 299 -26 q 163 -8 206 -26 q 89 47 121 10 q 38 140 57 83 q 19 272 19 196 l 19 436 q 38 569 19 513 q 89 662 57 625 q 163 717 121 699 q 254 735 206 735 q 319 722 293 735 q 360 693 344 708 q 389 651 378 675 l 389 708 l 653 708 m 389 421 q 374 456 389 442 q 336 471 358 471 q 298 456 314 471 q 282 421 282 442 l 282 288 q 298 252 282 267 q 336 238 314 238 q 374 252 358 238 q 389 288 389 267 l 389 421 z "},"h":{"ha":692,"x_min":32,"x_max":665,"o":"m 458 735 q 610 663 556 735 q 665 436 665 590 l 665 0 l 401 0 l 401 421 q 386 456 401 442 q 349 471 371 471 q 310 456 326 471 q 294 421 294 442 l 294 0 l 32 0 l 32 972 l 294 972 l 294 651 q 340 693 314 675 q 392 722 363 708 q 458 735 422 735 z "},"i":{"ha":326,"x_min":22,"x_max":304,"o":"m 32 0 l 32 708 l 294 708 l 294 0 l 32 0 m 163 735 q 108 746 133 735 q 63 776 82 757 q 33 822 44 796 q 22 876 22 847 q 33 931 22 906 q 63 975 44 956 q 108 1006 82 994 q 163 1017 133 1017 q 217 1006 192 1017 q 263 975 243 994 q 293 931 282 956 q 304 876 304 906 q 293 822 304 847 q 263 776 282 796 q 217 746 243 757 q 163 735 192 735 z "},"j":{"ha":328,"x_min":-86,"x_max":304,"o":"m 32 708 l 296 708 l 296 0 q 285 -107 296 -60 q 255 -190 274 -154 q 213 -253 236 -226 q 164 -299 189 -281 q 32 -360 106 -343 l -86 -147 q -28 -117 -53 -136 q 14 -72 -4 -100 q 32 0 32 -44 l 32 708 m 164 735 q 109 746 135 735 q 64 776 83 757 q 33 822 44 796 q 22 876 22 847 q 33 931 22 906 q 64 975 44 956 q 109 1006 83 994 q 164 1017 135 1017 q 219 1006 193 1017 q 263 975 244 994 q 293 931 282 956 q 304 876 304 906 q 293 822 304 847 q 263 776 282 796 q 219 746 244 757 q 164 735 193 735 z "},"k":{"ha":703,"x_min":32,"x_max":710,"o":"m 472 354 l 710 0 l 410 0 l 321 131 l 294 92 l 294 0 l 32 0 l 32 972 l 294 972 l 294 539 l 410 708 l 710 708 l 472 354 z "},"l":{"ha":328,"x_min":32,"x_max":294,"o":"m 32 0 l 32 972 l 294 972 l 294 0 l 32 0 z "},"m":{"ha":1061,"x_min":32,"x_max":1035,"o":"m 806 735 q 896 717 854 735 q 969 662 938 699 q 1017 569 1000 625 q 1035 436 1035 513 l 1035 0 l 771 0 l 771 421 q 756 456 771 442 q 718 471 740 471 q 683 459 699 471 q 665 428 668 447 l 665 0 l 401 0 l 401 421 q 386 456 401 442 q 349 471 371 471 q 310 456 326 471 q 294 421 294 442 l 294 0 l 32 0 l 32 708 l 294 708 l 294 651 q 340 693 314 675 q 392 722 363 708 q 458 735 422 735 q 615 654 564 735 q 692 708 644 682 q 806 735 740 735 z "},"n":{"ha":692,"x_min":32,"x_max":665,"o":"m 458 735 q 610 663 556 735 q 665 436 665 590 l 665 0 l 401 0 l 401 421 q 386 456 401 442 q 349 471 371 471 q 310 456 326 471 q 294 421 294 442 l 294 0 l 32 0 l 32 708 l 294 708 l 294 651 q 340 693 314 675 q 392 722 363 708 q 458 735 422 735 z "},"o":{"ha":667,"x_min":17,"x_max":650,"o":"m 333 735 q 456 717 399 735 q 557 662 514 699 q 625 569 600 625 q 650 436 650 513 l 650 272 q 625 140 650 196 q 557 47 600 83 q 456 -8 514 10 q 333 -26 399 -26 q 210 -8 268 -26 q 110 47 153 10 q 42 140 67 83 q 17 272 17 196 l 17 436 q 42 569 17 513 q 110 662 67 625 q 210 717 153 699 q 333 735 268 735 m 386 421 q 371 456 386 442 q 333 471 356 471 q 295 456 311 471 q 279 421 279 442 l 279 288 q 295 252 279 267 q 333 238 311 238 q 371 252 356 238 q 386 288 386 267 l 386 421 z "},"p":{"ha":685,"x_min":32,"x_max":665,"o":"m 431 735 q 522 717 479 735 q 596 662 564 699 q 647 569 628 625 q 665 436 665 513 l 665 272 q 647 140 665 196 q 596 47 628 83 q 522 -8 564 10 q 431 -26 479 -26 q 294 50 335 -26 l 294 -343 l 32 -343 l 32 708 l 294 708 l 294 658 q 431 735 335 735 m 401 421 q 386 456 401 442 q 349 471 371 471 q 310 456 326 471 q 294 421 294 442 l 294 288 q 310 252 294 267 q 349 238 326 238 q 386 252 371 238 q 401 288 401 267 l 401 421 z "},"q":{"ha":685,"x_min":19,"x_max":653,"o":"m 653 708 l 653 -343 l 389 -343 l 389 50 q 254 -26 351 -26 q 163 -8 206 -26 q 89 47 121 10 q 38 140 57 83 q 19 272 19 196 l 19 436 q 38 569 19 513 q 89 662 57 625 q 163 717 121 699 q 254 735 206 735 q 389 658 351 735 l 389 708 l 653 708 m 389 421 q 374 456 389 442 q 336 471 358 471 q 298 456 314 471 q 282 421 282 442 l 282 288 q 298 252 282 267 q 336 238 314 238 q 374 252 358 238 q 389 288 389 267 l 389 421 z "},"r":{"ha":586,"x_min":32,"x_max":590,"o":"m 294 651 q 376 714 331 690 q 469 738 415 733 q 590 708 524 742 l 539 436 q 438 469 483 465 q 361 456 393 472 q 312 406 329 440 q 294 325 294 372 l 294 0 l 32 0 l 32 708 l 294 708 l 294 651 z "},"s":{"ha":600,"x_min":17,"x_max":586,"o":"m 251 442 q 276 417 251 424 q 338 408 300 411 q 417 398 375 404 q 497 372 460 392 q 559 313 535 351 q 583 206 583 274 q 566 121 583 163 q 513 47 549 79 q 424 -6 478 14 q 299 -26 371 -26 q 189 -11 240 -26 q 100 35 138 4 q 40 112 63 65 q 18 222 18 158 l 18 278 l 251 272 q 265 247 251 256 q 299 238 279 238 q 332 242 318 238 q 346 264 346 247 q 322 285 346 281 q 260 292 297 289 q 181 303 224 296 q 102 333 139 311 q 41 398 65 356 q 17 513 17 440 q 35 596 17 556 q 88 668 53 636 q 176 719 124 700 q 299 739 229 739 q 410 726 364 739 q 488 690 457 713 q 538 641 519 668 q 565 585 557 614 q 569 429 586 515 l 339 428 q 338 450 342 440 q 326 464 335 457 q 299 471 318 471 q 265 465 279 471 q 251 442 251 458 z "},"t":{"ha":504,"x_min":7,"x_max":479,"o":"m 479 708 l 479 458 l 343 458 l 343 347 q 350 292 343 314 q 369 258 357 271 q 394 242 381 246 q 422 238 408 238 q 464 244 447 238 q 479 250 472 246 l 479 0 q 279 -21 367 -35 q 206 4 242 -14 q 142 58 169 22 q 97 149 114 93 q 79 285 79 204 l 79 458 l 7 458 l 7 708 l 79 708 l 246 924 l 343 924 l 343 708 l 479 708 z "},"u":{"ha":692,"x_min":26,"x_max":660,"o":"m 660 708 l 660 0 l 396 0 l 396 57 q 350 15 376 33 q 299 -15 329 -1 q 233 -28 269 -28 q 81 45 136 -28 q 26 272 26 118 l 26 708 l 289 708 l 289 288 q 305 252 289 267 q 343 238 321 238 q 381 252 365 238 q 396 288 396 267 l 396 708 l 660 708 z "},"v":{"ha":658,"x_min":-4,"x_max":663,"o":"m 663 708 l 500 0 l 146 0 l -4 708 l 285 708 l 324 275 l 374 708 l 663 708 z "},"w":{"ha":1039,"x_min":-4,"x_max":1043,"o":"m 1043 708 l 881 0 l 554 0 l 514 203 l 472 0 l 146 0 l -4 708 l 285 708 l 324 275 l 401 708 l 638 708 l 704 275 l 754 708 l 1043 708 z "},"x":{"ha":643,"x_min":-4,"x_max":647,"o":"m 472 325 l 647 0 l 363 0 l 324 129 l 281 0 l -4 0 l 169 325 l -4 708 l 281 708 l 324 576 l 363 708 l 647 708 l 472 325 z "},"y":{"ha":651,"x_min":-33,"x_max":656,"o":"m 656 708 l 493 0 q 453 -163 482 -97 q 385 -271 424 -229 q 299 -333 346 -312 q 207 -361 253 -354 q -33 -335 97 -378 l -1 -85 q 153 -120 100 -121 q 229 -101 207 -119 q 250 -52 251 -82 q 240 0 249 -22 l -11 708 l 278 708 l 347 336 l 368 708 l 656 708 z "},"z":{"ha":668,"x_min":24,"x_max":644,"o":"m 644 469 l 417 250 l 644 250 l 644 0 l 24 0 l 24 236 l 253 458 l 24 458 l 24 708 l 644 708 l 644 469 z "},"{":{"ha":579,"x_min":69,"x_max":563,"o":"m 461 617 q 436 536 461 572 q 372 483 411 500 q 436 431 411 467 q 461 350 461 394 l 461 211 q 491 139 461 168 q 563 110 521 110 l 563 -72 l 458 -72 q 351 -62 401 -72 q 264 -30 301 -53 q 205 32 226 -7 q 183 128 183 71 l 183 303 q 157 367 183 340 q 93 393 131 393 l 69 393 l 69 574 l 93 574 q 157 600 131 574 q 183 664 183 626 l 183 829 q 205 926 183 886 q 264 990 226 965 q 351 1027 301 1015 q 458 1039 401 1039 l 563 1039 l 563 857 q 491 827 521 857 q 461 756 461 797 l 461 617 z "},"|":{"ha":251,"x_min":35,"x_max":217,"o":"m 35 -193 l 35 981 l 217 981 l 217 -193 l 35 -193 z "},"}":{"ha":579,"x_min":15,"x_max":508,"o":"m 508 574 l 508 393 l 485 393 q 422 367 449 393 q 396 303 396 340 l 396 128 q 374 32 396 71 q 315 -30 353 -7 q 227 -62 278 -53 q 119 -72 176 -72 l 15 -72 l 15 110 q 88 140 58 110 q 118 211 118 169 l 118 350 q 142 431 118 394 q 207 483 167 467 q 142 536 167 500 q 118 617 118 572 l 118 756 q 88 827 118 797 q 15 857 58 857 l 15 1039 l 119 1039 q 227 1027 176 1039 q 315 990 278 1015 q 374 926 353 965 q 396 829 396 886 l 396 664 q 422 600 396 626 q 485 574 449 574 l 508 574 z "},"":{"ha":413,"x_min":0,"x_max":0,"o":""},"":{"ha":343,"x_min":31,"x_max":313,"o":"m 282 690 l 308 -3 l 31 -3 l 61 690 l 282 690 m 171 704 q 116 715 142 704 q 72 745 90 726 q 42 790 53 764 q 31 844 31 815 q 42 899 31 874 q 72 944 53 925 q 116 975 90 964 q 171 986 142 986 q 226 975 200 986 q 271 944 251 964 q 301 899 290 925 q 313 844 313 874 q 301 790 313 815 q 271 745 290 764 q 226 715 251 726 q 171 704 200 704 z "},"":{"ha":682,"x_min":25,"x_max":658,"o":"m 394 526 l 394 553 q 379 588 394 574 q 342 603 364 603 q 303 588 319 603 q 288 553 288 574 l 288 419 q 303 384 288 399 q 342 369 319 369 q 379 384 364 369 q 394 419 394 399 l 394 456 l 658 456 l 658 404 q 639 285 658 338 q 585 197 619 233 q 504 139 551 161 q 403 110 457 117 l 403 -46 l 281 -46 l 281 110 q 179 139 226 117 q 98 197 132 161 q 44 285 64 233 q 25 404 25 338 l 25 568 q 44 687 25 635 q 98 775 64 739 q 179 833 132 811 q 281 863 226 856 l 281 964 l 403 964 l 403 863 q 504 833 457 856 q 585 775 551 811 q 639 687 619 739 q 658 568 658 635 l 658 526 l 394 526 z "},"":{"ha":808,"x_min":24,"x_max":789,"o":"m 779 267 l 779 0 l 24 0 l 24 168 q 97 203 69 188 q 139 240 125 219 q 156 290 153 261 q 153 363 158 318 l 24 363 l 24 486 l 135 486 q 123 568 129 524 q 110 665 117 613 q 124 813 99 750 q 197 917 149 875 q 310 978 244 958 q 444 999 375 999 q 579 980 524 999 q 672 931 635 961 q 731 861 710 900 q 763 782 753 822 q 768 564 789 686 l 490 564 q 497 635 499 603 q 484 683 494 661 q 444 704 474 704 q 403 685 417 704 q 383 636 389 667 q 379 566 378 606 q 382 486 381 526 l 628 486 l 628 363 l 385 363 q 369 267 383 314 l 779 267 z "},"":{"ha":853,"x_min":69,"x_max":783,"o":"m 571 439 l 707 439 l 707 315 l 565 315 l 565 293 l 707 293 l 707 169 l 565 169 l 565 0 l 288 0 l 288 169 l 153 169 l 153 293 l 288 293 l 288 315 l 153 315 l 153 439 l 282 439 l 69 972 l 372 972 l 426 763 l 481 972 l 783 972 l 571 439 z "},"":{"ha":246,"x_min":32,"x_max":214,"o":"m 32 525 l 32 981 l 214 981 l 214 525 l 32 525 m 32 -193 l 32 256 l 214 256 l 214 -193 l 32 -193 z "},"":{"ha":586,"x_min":31,"x_max":557,"o":"m 556 444 q 535 343 556 392 q 550 290 544 319 q 556 222 556 261 q 539 132 556 176 q 490 53 522 88 q 408 -3 457 18 q 292 -24 358 -24 q 190 -8 238 -24 q 108 40 143 8 q 52 122 72 72 q 32 239 32 172 l 32 283 l 247 283 l 247 253 q 260 221 247 236 q 292 208 272 208 q 322 221 310 208 q 335 253 335 233 q 314 286 335 276 q 262 303 293 296 q 193 318 231 310 q 122 347 156 326 q 64 404 89 367 q 32 506 39 442 q 31 525 31 515 q 31 546 31 535 q 53 647 31 601 q 36 701 42 671 q 31 769 31 731 q 47 857 31 814 q 97 933 64 900 q 178 987 129 967 q 292 1007 226 1007 q 396 994 353 1007 q 468 962 439 982 q 513 916 497 942 q 538 863 529 890 q 542 717 557 799 l 326 717 q 328 721 326 718 l 328 732 q 322 760 328 746 q 292 775 315 775 q 260 763 272 775 q 247 731 247 750 q 266 697 247 707 q 315 683 285 688 q 380 672 344 678 q 449 652 415 667 q 509 608 482 638 q 547 524 536 578 q 556 444 556 490 m 332 457 q 335 475 335 468 q 331 493 335 488 q 329 496 329 494 q 328 499 329 497 q 297 516 317 510 q 253 528 278 522 q 247 508 247 521 q 272 472 247 481 q 332 457 296 464 z "},"":{"ha":953,"x_min":19,"x_max":933,"o":"m 510 478 l 643 478 l 643 428 q 596 306 643 346 q 482 267 549 267 q 369 306 415 267 q 322 428 322 344 l 322 600 q 369 721 322 682 q 482 760 415 760 q 547 751 519 760 q 592 727 574 742 q 620 694 610 713 q 635 656 631 675 q 638 550 647 608 l 504 550 q 507 585 508 569 q 502 608 507 597 q 482 618 497 618 q 463 610 471 618 q 456 592 456 603 l 456 436 q 463 417 456 425 q 482 408 471 408 q 501 417 493 408 q 510 436 510 425 l 510 478 m 476 951 q 654 915 571 951 q 799 817 738 879 q 897 672 861 756 q 933 494 933 589 q 897 317 933 400 q 799 172 861 233 q 654 74 738 110 q 476 38 571 38 q 299 74 382 38 q 153 172 215 110 q 56 317 92 233 q 19 494 19 400 q 56 672 19 589 q 153 817 92 756 q 299 915 215 879 q 476 951 382 951 m 476 183 q 597 208 540 183 q 697 274 654 232 q 763 374 739 317 q 788 494 788 431 q 763 615 788 558 q 697 715 739 672 q 597 781 654 757 q 476 806 540 806 q 356 781 413 806 q 256 715 299 757 q 190 615 214 672 q 165 494 165 558 q 190 374 165 431 q 256 274 214 317 q 356 208 299 232 q 476 183 413 183 z "},"":{"ha":390,"x_min":25,"x_max":364,"o":"m 200 976 q 316 938 268 976 q 364 822 364 900 l 364 597 l 249 597 l 236 619 q 185 592 217 600 q 117 583 154 583 q 51 604 78 583 q 25 664 25 625 l 25 719 q 52 777 25 751 q 124 803 79 803 q 180 797 154 803 q 228 778 206 792 l 228 814 q 219 833 228 825 q 200 840 211 840 q 181 833 189 840 q 172 814 172 825 l 38 822 q 85 938 38 900 q 200 976 132 976 m 226 706 q 199 733 226 733 q 178 726 188 733 q 169 708 169 719 l 169 694 q 178 672 169 676 q 199 667 188 667 q 220 676 214 667 q 226 693 226 686 l 226 706 z "},"":{"ha":847,"x_min":69,"x_max":829,"o":"m 326 419 l 525 221 l 396 93 l 69 419 l 197 547 l 396 747 l 525 618 l 326 419 m 631 419 l 829 221 l 701 93 l 374 419 l 503 547 l 701 747 l 829 618 l 631 419 z "},"":{"ha":0,"x_min":0,"x_max":0,"o":""},"":{"ha":953,"x_min":19,"x_max":933,"o":"m 628 592 q 613 518 628 551 q 567 464 597 485 l 647 279 l 500 279 l 451 436 l 439 436 l 439 279 l 306 279 l 306 747 l 471 747 q 587 702 546 747 q 628 592 628 657 m 467 564 q 485 572 478 564 q 493 592 493 581 q 467 618 493 618 l 439 618 l 439 564 l 467 564 m 476 951 q 654 915 571 951 q 799 817 738 879 q 897 672 861 756 q 933 494 933 589 q 897 317 933 400 q 799 172 861 233 q 654 74 738 110 q 476 38 571 38 q 299 74 382 38 q 153 172 215 110 q 56 317 92 233 q 19 494 19 400 q 56 672 19 589 q 153 817 92 756 q 299 915 215 879 q 476 951 382 951 m 476 183 q 597 208 540 183 q 697 274 654 232 q 763 374 739 317 q 788 494 788 431 q 763 615 788 558 q 697 715 739 672 q 597 781 654 757 q 476 806 540 806 q 356 781 413 806 q 256 715 299 757 q 190 615 214 672 q 165 494 165 558 q 190 374 165 431 q 256 274 214 317 q 356 208 299 232 q 476 183 413 183 z "},"":{"ha":397,"x_min":22,"x_max":375,"o":"m 199 992 q 267 978 235 992 q 324 940 300 964 q 361 884 347 917 q 375 815 375 851 q 361 747 375 779 q 324 692 347 715 q 267 654 300 668 q 199 640 235 640 q 131 654 163 640 q 74 692 99 668 q 36 747 50 715 q 22 815 22 779 q 36 884 22 851 q 74 940 50 917 q 131 978 99 964 q 199 992 163 992 m 199 769 q 231 783 218 769 q 244 815 244 796 q 231 849 244 835 q 199 863 218 863 q 166 849 179 863 q 153 815 153 835 q 166 783 153 796 q 199 769 179 769 z "},"":{"ha":567,"x_min":26,"x_max":539,"o":"m 539 515 l 539 335 l 374 335 l 374 168 l 192 168 l 192 335 l 26 335 l 26 515 l 192 515 l 192 681 l 374 681 l 374 515 l 539 515 m 26 -32 l 26 149 l 539 149 l 539 -32 l 26 -32 z "},"":{"ha":293,"x_min":24,"x_max":267,"o":"m 197 731 q 185 719 190 724 q 174 708 179 714 l 267 708 l 267 599 l 35 599 l 28 594 l 28 599 l 24 599 l 28 606 q 37 674 28 646 q 60 724 46 703 q 90 761 74 746 q 121 789 107 776 q 150 816 139 804 q 161 843 161 828 q 149 858 161 858 q 140 856 143 858 q 138 846 138 851 q 138 838 138 840 l 139 831 l 35 831 l 33 835 q 32 847 33 836 q 31 873 31 857 q 35 907 31 889 q 53 940 40 925 q 149 978 82 978 q 200 968 178 978 q 237 942 222 958 q 259 904 251 925 q 267 861 267 883 q 260 817 267 836 q 244 782 254 797 q 222 754 233 767 q 197 731 210 742 z "},"":{"ha":288,"x_min":25,"x_max":263,"o":"m 232 782 q 263 706 263 756 q 255 663 263 683 q 232 625 247 642 q 194 599 217 608 q 143 589 172 589 q 47 626 76 589 q 30 660 35 642 q 25 694 25 678 q 26 720 25 710 q 28 732 28 731 l 29 736 l 135 736 l 133 729 q 132 721 132 726 q 135 711 132 715 q 143 708 140 708 q 157 724 157 708 q 153 732 157 726 q 128 738 150 738 l 125 738 l 104 738 l 104 822 l 125 822 q 153 829 149 822 q 157 843 157 836 q 143 858 157 858 q 135 856 140 858 q 132 846 132 851 q 133 838 132 840 l 135 831 l 29 831 l 28 835 q 26 847 28 836 q 25 873 25 857 q 30 907 25 889 q 47 940 35 925 q 143 978 76 978 q 194 968 172 978 q 232 942 217 958 q 255 904 247 925 q 263 861 263 883 q 232 782 263 810 z "},"":{"ha":326,"x_min":22,"x_max":304,"o":"m 163 554 q 217 543 192 554 q 263 513 243 532 q 293 469 282 494 q 304 414 304 443 q 293 359 304 385 q 263 315 282 333 q 217 285 243 296 q 163 274 192 274 q 108 285 133 274 q 63 315 82 296 q 33 359 44 333 q 22 414 22 385 q 33 469 22 443 q 63 513 44 494 q 108 543 82 532 q 163 554 133 554 z "},"":{"ha":201,"x_min":24,"x_max":172,"o":"m 172 968 l 172 599 l 60 599 l 60 858 l 24 858 l 24 968 l 172 968 z "},"":{"ha":378,"x_min":25,"x_max":351,"o":"m 189 976 q 304 938 257 976 q 351 822 351 900 l 351 738 q 304 621 351 658 q 189 583 257 583 q 73 621 121 583 q 25 738 25 658 l 25 822 q 73 938 25 900 q 189 976 121 976 m 215 814 q 208 833 215 825 q 189 840 200 840 q 169 833 178 840 q 161 814 161 825 l 161 744 q 169 726 161 733 q 189 719 178 719 q 208 726 200 719 q 215 744 215 733 l 215 814 z "},"":{"ha":847,"x_min":17,"x_max":776,"o":"m 776 419 l 450 93 l 321 221 l 521 419 l 321 618 l 450 747 l 776 419 m 472 419 l 144 93 l 17 221 l 215 419 l 17 618 l 144 747 l 472 419 z "},"":{"ha":753,"x_min":69,"x_max":693,"o":"m 675 340 q 671 156 693 238 q 641 88 661 121 q 586 29 621 56 q 501 -13 551 3 q 378 -29 450 -29 q 244 -3 301 -29 q 147 65 186 22 q 89 161 108 107 q 69 272 69 215 q 85 372 69 329 q 124 449 100 415 q 174 512 147 483 q 224 568 200 540 q 263 625 247 596 q 278 690 278 654 l 518 688 q 504 599 518 638 q 469 529 490 560 q 422 474 447 499 q 376 425 397 449 q 340 376 354 401 q 326 321 326 351 q 341 281 326 297 q 378 265 356 265 q 408 277 400 265 q 419 303 417 289 q 419 340 422 319 l 675 340 m 385 704 q 330 715 356 704 q 285 745 304 726 q 254 790 265 764 q 243 844 243 815 q 254 899 243 874 q 285 944 265 925 q 330 975 304 964 q 385 986 356 986 q 440 975 414 986 q 484 944 465 964 q 514 899 503 925 q 525 844 525 874 q 514 790 525 815 q 484 745 503 764 q 440 715 465 726 q 385 704 414 704 z "},"":{"ha":664,"x_min":-3,"x_max":665,"o":"m 665 0 l 388 0 l 376 139 l 286 139 l 275 0 l -3 0 l 154 972 l 508 972 l 665 0 m 358 367 l 332 594 l 304 367 l 358 367 m 390 1029 l 264 1254 l 396 1254 l 454 1029 l 390 1029 z "},"":{"ha":664,"x_min":-3,"x_max":665,"o":"m 665 0 l 388 0 l 376 139 l 286 139 l 275 0 l -3 0 l 154 972 l 508 972 l 665 0 m 358 367 l 332 594 l 304 367 l 358 367 m 300 1029 l 236 1029 l 294 1254 l 426 1254 l 300 1029 z "},"":{"ha":664,"x_min":-3,"x_max":665,"o":"m 665 0 l 388 0 l 376 139 l 286 139 l 275 0 l -3 0 l 154 972 l 508 972 l 665 0 m 358 367 l 332 594 l 304 367 l 358 367 m 278 1029 l 214 1029 l 272 1254 l 390 1254 l 449 1029 l 385 1029 l 332 1124 l 278 1029 z "},"":{"ha":664,"x_min":-3,"x_max":665,"o":"m 665 0 l 388 0 l 376 139 l 286 139 l 275 0 l -3 0 l 154 972 l 508 972 l 665 0 m 358 367 l 332 594 l 304 367 l 358 367 m 181 1029 q 176 1110 171 1074 q 199 1164 181 1139 q 261 1189 217 1189 q 292 1181 274 1189 q 331 1165 311 1174 q 370 1148 351 1156 q 401 1140 389 1140 q 428 1147 421 1140 q 433 1164 435 1154 q 426 1186 433 1174 l 481 1186 q 488 1108 492 1142 q 467 1053 485 1078 q 401 1029 449 1029 q 370 1037 389 1029 q 331 1053 351 1044 q 292 1069 311 1061 q 261 1076 274 1076 q 235 1069 242 1076 q 228 1053 228 1063 q 235 1029 228 1043 l 181 1029 z "},"":{"ha":664,"x_min":-3,"x_max":665,"o":"m 665 0 l 388 0 l 376 139 l 286 139 l 275 0 l -3 0 l 154 972 l 508 972 l 665 0 m 358 367 l 332 594 l 304 367 l 358 367 m 179 1014 q 124 1025 150 1014 q 80 1055 99 1036 q 50 1099 61 1074 q 39 1154 39 1125 q 50 1209 39 1183 q 80 1253 61 1235 q 124 1283 99 1272 q 179 1294 150 1294 q 234 1283 208 1294 q 278 1253 260 1272 q 308 1209 297 1235 q 319 1154 319 1183 q 308 1099 319 1125 q 278 1055 297 1074 q 234 1025 260 1036 q 179 1014 208 1014 m 483 1014 q 428 1025 454 1014 q 384 1055 403 1036 q 354 1099 365 1074 q 343 1154 343 1125 q 354 1209 343 1183 q 384 1253 365 1235 q 428 1283 403 1272 q 483 1294 454 1294 q 538 1283 513 1294 q 583 1253 564 1272 q 614 1209 603 1235 q 625 1154 625 1183 q 614 1099 625 1125 q 583 1055 603 1074 q 538 1025 564 1036 q 483 1014 513 1014 z "},"":{"ha":664,"x_min":-3,"x_max":665,"o":"m 665 0 l 388 0 l 376 139 l 286 139 l 275 0 l -3 0 l 154 972 l 508 972 l 665 0 m 358 367 l 332 594 l 304 367 l 358 367 m 332 1014 q 277 1025 303 1014 q 232 1055 251 1036 q 201 1099 213 1074 q 190 1154 190 1125 q 201 1209 190 1183 q 232 1253 213 1235 q 277 1283 251 1272 q 332 1294 303 1294 q 387 1283 361 1294 q 431 1253 413 1272 q 461 1209 450 1235 q 472 1154 472 1183 q 461 1099 472 1125 q 431 1055 450 1074 q 387 1025 413 1036 q 332 1014 361 1014 m 332 1228 q 278 1206 300 1228 q 257 1154 257 1185 q 278 1102 257 1124 q 332 1081 300 1081 q 384 1102 363 1081 q 406 1154 406 1124 q 384 1206 406 1185 q 332 1228 363 1228 z "},"":{"ha":1051,"x_min":-12,"x_max":1044,"o":"m 1044 -1 l 421 0 l 410 139 l 289 139 l 265 0 l -12 0 l 228 972 l 965 972 l 988 704 l 643 704 l 650 619 l 972 619 l 993 353 l 671 353 l 678 267 l 1022 267 l 1044 -1 m 392 367 l 374 590 l 372 594 l 326 367 l 392 367 z "},"":{"ha":708,"x_min":22,"x_max":700,"o":"m 690 413 l 690 307 q 669 170 690 229 q 608 70 647 111 q 517 6 569 29 q 404 -25 465 -18 l 368 -67 q 400 -84 386 -71 q 407 -129 414 -97 q 380 -165 400 -158 q 336 -168 360 -172 q 276 -149 308 -164 l 296 -106 q 325 -122 311 -115 q 347 -128 336 -126 q 360 -121 357 -129 q 358 -100 365 -108 q 340 -86 351 -92 q 311 -78 328 -81 l 344 -26 q 219 -4 278 -25 q 116 58 160 17 q 47 162 72 100 q 22 307 22 224 l 22 665 q 49 814 22 751 q 120 917 75 876 q 226 978 165 958 q 357 999 288 999 q 490 980 435 999 q 583 931 546 961 q 642 861 621 900 q 675 782 664 822 q 679 564 700 686 l 401 564 q 408 635 410 603 q 397 683 407 661 q 357 704 386 704 q 317 688 333 704 q 300 649 300 672 l 300 324 q 317 284 300 300 q 357 268 333 268 q 397 284 381 268 q 413 324 413 300 l 413 413 l 690 413 z "},"":{"ha":685,"x_min":35,"x_max":657,"o":"m 313 704 l 313 619 l 635 619 l 635 353 l 313 353 l 313 267 l 657 267 l 657 -1 l 35 0 l 35 972 l 657 972 l 657 704 l 313 704 m 403 1029 l 276 1254 l 408 1254 l 467 1029 l 403 1029 z "},"":{"ha":685,"x_min":35,"x_max":657,"o":"m 313 704 l 313 619 l 635 619 l 635 353 l 313 353 l 313 267 l 657 267 l 657 -1 l 35 0 l 35 972 l 657 972 l 657 704 l 313 704 m 343 1029 l 279 1029 l 338 1254 l 469 1254 l 343 1029 z "},"":{"ha":685,"x_min":35,"x_max":657,"o":"m 313 704 l 313 619 l 635 619 l 635 353 l 313 353 l 313 267 l 657 267 l 657 -1 l 35 0 l 35 972 l 657 972 l 657 704 l 313 704 m 311 1029 l 247 1029 l 306 1254 l 424 1254 l 481 1029 l 418 1029 l 364 1124 l 311 1029 z "},"":{"ha":685,"x_min":35,"x_max":657,"o":"m 313 704 l 313 619 l 635 619 l 635 353 l 313 353 l 313 267 l 657 267 l 657 -1 l 35 0 l 35 972 l 657 972 l 657 704 l 313 704 m 175 1014 q 120 1025 146 1014 q 76 1055 94 1036 q 46 1099 57 1074 q 35 1154 35 1125 q 46 1209 35 1183 q 76 1253 57 1235 q 120 1283 94 1272 q 175 1294 146 1294 q 230 1283 204 1294 q 275 1253 256 1272 q 306 1209 294 1235 q 317 1154 317 1183 q 306 1099 317 1125 q 275 1055 294 1074 q 230 1025 256 1036 q 175 1014 204 1014 m 481 1014 q 426 1025 451 1014 q 381 1055 400 1036 q 350 1099 361 1074 q 339 1154 339 1125 q 350 1209 339 1183 q 381 1253 361 1235 q 426 1283 400 1272 q 481 1294 451 1294 q 535 1283 510 1294 q 580 1253 561 1272 q 610 1209 599 1235 q 621 1154 621 1183 q 610 1099 621 1125 q 580 1055 599 1074 q 535 1025 561 1036 q 481 1014 510 1014 z "},"":{"ha":349,"x_min":35,"x_max":313,"o":"m 35 0 l 35 972 l 313 972 l 313 0 l 35 0 m 219 1029 l 93 1254 l 225 1254 l 283 1029 l 219 1029 z "},"":{"ha":349,"x_min":35,"x_max":313,"o":"m 35 0 l 35 972 l 313 972 l 313 0 l 35 0 m 132 1029 l 68 1029 l 125 1254 l 258 1254 l 132 1029 z "},"":{"ha":347,"x_min":35,"x_max":313,"o":"m 35 0 l 35 972 l 313 972 l 313 0 l 35 0 m 121 1029 l 57 1029 l 114 1254 l 233 1254 l 290 1029 l 226 1029 l 174 1124 l 121 1029 z "},"":{"ha":347,"x_min":-119,"x_max":467,"o":"m 35 0 l 35 972 l 313 972 l 313 0 l 35 0 m 163 1154 q 151 1099 163 1125 q 121 1055 140 1074 q 76 1025 101 1036 q 21 1014 50 1014 q -34 1025 -8 1014 q -78 1055 -60 1036 q -108 1099 -97 1074 q -119 1154 -119 1125 q -108 1209 -119 1183 q -78 1253 -97 1235 q -34 1283 -60 1272 q 21 1294 -8 1294 q 76 1283 50 1294 q 121 1253 101 1272 q 151 1209 140 1235 q 163 1154 163 1183 m 326 1294 q 381 1283 356 1294 q 426 1253 407 1272 q 456 1209 444 1235 q 467 1154 467 1183 q 456 1099 467 1125 q 426 1055 444 1074 q 381 1025 407 1036 q 326 1014 356 1014 q 272 1025 297 1014 q 226 1055 246 1036 q 196 1099 207 1074 q 185 1154 185 1125 q 196 1209 185 1183 q 226 1253 207 1235 q 272 1283 246 1272 q 326 1294 297 1294 z "},"":{"ha":739,"x_min":35,"x_max":703,"o":"m 703 972 l 703 0 l 428 0 l 313 357 l 313 0 l 35 0 l 35 972 l 313 972 l 425 647 l 425 972 l 703 972 m 193 1029 q 189 1110 183 1074 q 211 1164 193 1139 q 274 1189 229 1189 q 305 1181 286 1189 q 344 1165 324 1174 q 383 1148 364 1156 q 414 1140 401 1140 q 440 1147 433 1140 q 446 1164 447 1154 q 439 1186 446 1174 l 493 1186 q 500 1108 504 1142 q 479 1053 497 1078 q 414 1029 461 1029 q 383 1037 401 1029 q 344 1053 364 1044 q 305 1069 324 1061 q 274 1076 286 1076 q 247 1069 254 1076 q 240 1053 240 1063 q 247 1029 240 1043 l 193 1029 z "},"":{"ha":714,"x_min":22,"x_max":690,"o":"m 357 999 q 487 978 426 999 q 592 917 547 958 q 664 814 638 876 q 690 665 690 751 l 690 307 q 664 159 690 222 q 592 55 638 96 q 487 -6 547 14 q 357 -26 426 -26 q 226 -6 288 -26 q 120 55 165 14 q 49 159 75 96 q 22 307 22 222 l 22 665 q 49 814 22 751 q 120 917 75 876 q 226 978 165 958 q 357 999 288 999 m 413 649 q 397 688 413 672 q 357 704 381 704 q 317 688 333 704 q 300 649 300 672 l 300 324 q 317 284 300 300 q 357 268 333 268 q 397 284 381 268 q 413 324 413 300 l 413 649 m 428 1029 l 301 1254 l 433 1254 l 492 1029 l 428 1029 z "},"":{"ha":714,"x_min":22,"x_max":690,"o":"m 357 999 q 487 978 426 999 q 592 917 547 958 q 664 814 638 876 q 690 665 690 751 l 690 307 q 664 159 690 222 q 592 55 638 96 q 487 -6 547 14 q 357 -26 426 -26 q 226 -6 288 -26 q 120 55 165 14 q 49 159 75 96 q 22 307 22 222 l 22 665 q 49 814 22 751 q 120 917 75 876 q 226 978 165 958 q 357 999 288 999 m 413 649 q 397 688 413 672 q 357 704 381 704 q 317 688 333 704 q 300 649 300 672 l 300 324 q 317 284 300 300 q 357 268 333 268 q 397 284 381 268 q 413 324 413 300 l 413 649 m 325 1029 l 261 1029 l 319 1254 l 451 1254 l 325 1029 z "},"":{"ha":714,"x_min":22,"x_max":690,"o":"m 357 999 q 487 978 426 999 q 592 917 547 958 q 664 814 638 876 q 690 665 690 751 l 690 307 q 664 159 690 222 q 592 55 638 96 q 487 -6 547 14 q 357 -26 426 -26 q 226 -6 288 -26 q 120 55 165 14 q 49 159 75 96 q 22 307 22 222 l 22 665 q 49 814 22 751 q 120 917 75 876 q 226 978 165 958 q 357 999 288 999 m 413 649 q 397 688 413 672 q 357 704 381 704 q 317 688 333 704 q 300 649 300 672 l 300 324 q 317 284 300 300 q 357 268 333 268 q 397 284 381 268 q 413 324 413 300 l 413 649 m 303 1029 l 239 1029 l 297 1254 l 415 1254 l 474 1029 l 410 1029 l 357 1124 l 303 1029 z "},"":{"ha":714,"x_min":22,"x_max":690,"o":"m 357 999 q 487 978 426 999 q 592 917 547 958 q 664 814 638 876 q 690 665 690 751 l 690 307 q 664 159 690 222 q 592 55 638 96 q 487 -6 547 14 q 357 -26 426 -26 q 226 -6 288 -26 q 120 55 165 14 q 49 159 75 96 q 22 307 22 222 l 22 665 q 49 814 22 751 q 120 917 75 876 q 226 978 165 958 q 357 999 288 999 m 413 649 q 397 688 413 672 q 357 704 381 704 q 317 688 333 704 q 300 649 300 672 l 300 324 q 317 284 300 300 q 357 268 333 268 q 397 284 381 268 q 413 324 413 300 l 413 649 m 206 1029 q 201 1110 196 1074 q 224 1164 206 1139 q 286 1189 242 1189 q 317 1181 299 1189 q 356 1165 336 1174 q 395 1148 376 1156 q 426 1140 414 1140 q 453 1147 446 1140 q 458 1164 460 1154 q 451 1186 458 1174 l 506 1186 q 513 1108 517 1142 q 492 1053 510 1078 q 426 1029 474 1029 q 395 1037 414 1029 q 356 1053 376 1044 q 317 1069 336 1061 q 286 1076 299 1076 q 260 1069 267 1076 q 253 1053 253 1063 q 260 1029 253 1043 l 206 1029 z "},"":{"ha":714,"x_min":22,"x_max":690,"o":"m 357 999 q 487 978 426 999 q 592 917 547 958 q 664 814 638 876 q 690 665 690 751 l 690 307 q 664 159 690 222 q 592 55 638 96 q 487 -6 547 14 q 357 -26 426 -26 q 226 -6 288 -26 q 120 55 165 14 q 49 159 75 96 q 22 307 22 222 l 22 665 q 49 814 22 751 q 120 917 75 876 q 226 978 165 958 q 357 999 288 999 m 413 649 q 397 688 413 672 q 357 704 381 704 q 317 688 333 704 q 300 649 300 672 l 300 324 q 317 284 300 300 q 357 268 333 268 q 397 284 381 268 q 413 324 413 300 l 413 649 m 204 1014 q 149 1025 175 1014 q 105 1055 124 1036 q 75 1099 86 1074 q 64 1154 64 1125 q 75 1209 64 1183 q 105 1253 86 1235 q 149 1283 124 1272 q 204 1294 175 1294 q 259 1283 233 1294 q 303 1253 285 1272 q 333 1209 322 1235 q 344 1154 344 1183 q 333 1099 344 1125 q 303 1055 322 1074 q 259 1025 285 1036 q 204 1014 233 1014 m 508 1014 q 453 1025 479 1014 q 409 1055 428 1036 q 379 1099 390 1074 q 368 1154 368 1125 q 379 1209 368 1183 q 409 1253 390 1235 q 453 1283 428 1272 q 508 1294 479 1294 q 563 1283 538 1294 q 608 1253 589 1272 q 639 1209 628 1235 q 650 1154 650 1183 q 639 1099 650 1125 q 608 1055 628 1074 q 563 1025 589 1036 q 508 1014 538 1014 z "},"":{"ha":531,"x_min":19,"x_max":510,"o":"m 393 425 l 510 307 l 382 179 l 265 296 l 147 179 l 19 307 l 136 425 l 19 542 l 147 671 l 265 553 l 382 671 l 510 542 l 393 425 z "},"":{"ha":717,"x_min":24,"x_max":692,"o":"m 628 882 q 675 788 658 842 q 692 665 692 735 l 692 307 q 665 159 692 222 q 594 55 639 96 q 488 -6 549 14 q 358 -26 428 -26 q 267 -17 310 -26 q 186 11 224 -8 l 140 -79 l 31 -24 l 89 90 q 40 184 57 131 q 24 307 24 238 l 24 665 q 50 814 24 751 q 122 917 76 876 q 228 978 167 958 q 358 999 289 999 q 449 990 406 999 q 529 961 492 981 l 575 1051 l 685 996 l 628 882 m 414 649 q 398 688 414 672 q 358 704 382 704 q 318 688 335 704 q 301 649 301 672 l 301 324 q 318 284 301 300 q 358 268 335 268 q 398 284 382 268 q 414 324 414 300 l 414 649 z "},"":{"ha":725,"x_min":28,"x_max":696,"o":"m 696 972 l 696 307 q 669 159 696 222 q 598 55 643 96 q 492 -6 553 14 q 363 -26 432 -26 q 232 -6 293 -26 q 126 55 171 14 q 54 159 81 96 q 28 307 28 222 l 28 972 l 306 972 l 306 324 q 322 284 306 300 q 363 268 339 268 q 402 284 386 268 q 418 324 418 300 l 418 972 l 696 972 m 411 1029 l 285 1254 l 417 1254 l 475 1029 l 411 1029 z "},"":{"ha":725,"x_min":28,"x_max":696,"o":"m 696 972 l 696 307 q 669 159 696 222 q 598 55 643 96 q 492 -6 553 14 q 363 -26 432 -26 q 232 -6 293 -26 q 126 55 171 14 q 54 159 81 96 q 28 307 28 222 l 28 972 l 306 972 l 306 324 q 322 284 306 300 q 363 268 339 268 q 402 284 386 268 q 418 324 418 300 l 418 972 l 696 972 m 331 1029 l 267 1029 l 325 1254 l 457 1254 l 331 1029 z "},"":{"ha":725,"x_min":28,"x_max":696,"o":"m 696 972 l 696 307 q 669 159 696 222 q 598 55 643 96 q 492 -6 553 14 q 363 -26 432 -26 q 232 -6 293 -26 q 126 55 171 14 q 54 159 81 96 q 28 307 28 222 l 28 972 l 306 972 l 306 324 q 322 284 306 300 q 363 268 339 268 q 402 284 386 268 q 418 324 418 300 l 418 972 l 696 972 m 308 1029 l 244 1029 l 303 1254 l 421 1254 l 479 1029 l 415 1029 l 363 1124 l 308 1029 z "},"":{"ha":725,"x_min":28,"x_max":696,"o":"m 696 972 l 696 307 q 669 159 696 222 q 598 55 643 96 q 492 -6 553 14 q 363 -26 432 -26 q 232 -6 293 -26 q 126 55 171 14 q 54 159 81 96 q 28 307 28 222 l 28 972 l 306 972 l 306 324 q 322 284 306 300 q 363 268 339 268 q 402 284 386 268 q 418 324 418 300 l 418 972 l 696 972 m 210 1014 q 155 1025 181 1014 q 110 1055 129 1036 q 81 1099 92 1074 q 69 1154 69 1125 q 81 1209 69 1183 q 110 1253 92 1235 q 155 1283 129 1272 q 210 1294 181 1294 q 265 1283 239 1294 q 309 1253 290 1272 q 339 1209 328 1235 q 350 1154 350 1183 q 339 1099 350 1125 q 309 1055 328 1074 q 265 1025 290 1036 q 210 1014 239 1014 m 514 1014 q 459 1025 485 1014 q 415 1055 433 1036 q 385 1099 396 1074 q 374 1154 374 1125 q 385 1209 374 1183 q 415 1253 396 1235 q 459 1283 433 1272 q 514 1294 485 1294 q 569 1283 543 1294 q 614 1253 594 1272 q 644 1209 633 1235 q 656 1154 656 1183 q 644 1099 656 1125 q 614 1055 633 1074 q 569 1025 594 1036 q 514 1014 543 1014 z "},"":{"ha":674,"x_min":-21,"x_max":693,"o":"m 693 972 l 475 424 l 475 0 l 197 0 l 197 424 l -21 972 l 282 972 l 336 763 l 390 972 l 693 972 m 304 1029 l 240 1029 l 299 1254 l 432 1254 l 304 1029 z "},"":{"ha":738,"x_min":32,"x_max":728,"o":"m 594 468 q 694 374 660 433 q 728 235 728 315 q 706 123 728 168 q 644 51 683 78 q 548 12 604 24 q 425 0 492 0 l 333 0 l 333 268 l 393 268 q 433 285 417 268 q 450 325 450 301 q 432 365 449 349 q 392 381 415 381 l 333 381 l 333 592 q 378 607 358 596 q 408 638 394 618 q 422 693 422 658 q 405 733 422 717 q 364 749 388 749 q 326 733 342 749 q 310 694 310 718 l 310 26 l 217 -128 l 32 -128 l 32 651 q 60 810 32 742 q 139 924 89 878 q 256 993 189 969 q 399 1017 322 1017 q 622 942 544 1017 q 700 732 700 867 q 693 654 700 694 q 673 578 686 614 q 640 514 660 543 q 594 468 621 485 z "},"":{"ha":696,"x_min":14,"x_max":671,"o":"m 354 736 q 477 718 419 736 q 578 663 535 700 q 646 569 621 625 q 671 436 671 513 l 671 0 l 446 0 l 424 43 q 326 -10 386 7 q 193 -26 267 -26 q 65 14 117 -26 q 14 129 14 54 l 14 238 q 27 299 14 269 q 65 351 40 328 q 126 387 90 374 q 204 400 161 400 q 314 389 264 400 q 407 350 364 378 l 407 421 q 392 456 407 442 q 354 471 376 471 q 315 456 331 471 q 300 421 300 442 l 38 436 q 63 569 38 513 q 131 663 88 625 q 231 718 174 700 q 354 736 289 736 m 404 211 q 390 252 404 239 q 351 265 375 265 q 311 251 328 265 q 294 215 294 238 l 294 190 q 311 145 294 156 q 351 135 328 135 q 393 155 382 135 q 404 188 404 175 l 404 211 m 381 764 l 254 989 l 386 989 l 444 764 l 381 764 z "},"":{"ha":696,"x_min":14,"x_max":671,"o":"m 354 736 q 477 718 419 736 q 578 663 535 700 q 646 569 621 625 q 671 436 671 513 l 671 0 l 446 0 l 424 43 q 326 -10 386 7 q 193 -26 267 -26 q 65 14 117 -26 q 14 129 14 54 l 14 238 q 27 299 14 269 q 65 351 40 328 q 126 387 90 374 q 204 400 161 400 q 314 389 264 400 q 407 350 364 378 l 407 421 q 392 456 407 442 q 354 471 376 471 q 315 456 331 471 q 300 421 300 442 l 38 436 q 63 569 38 513 q 131 663 88 625 q 231 718 174 700 q 354 736 289 736 m 404 211 q 390 252 404 239 q 351 265 375 265 q 311 251 328 265 q 294 215 294 238 l 294 190 q 311 145 294 156 q 351 135 328 135 q 393 155 382 135 q 404 188 404 175 l 404 211 m 311 764 l 247 764 l 304 989 l 438 989 l 311 764 z "},"":{"ha":696,"x_min":14,"x_max":671,"o":"m 354 736 q 477 718 419 736 q 578 663 535 700 q 646 569 621 625 q 671 436 671 513 l 671 0 l 446 0 l 424 43 q 326 -10 386 7 q 193 -26 267 -26 q 65 14 117 -26 q 14 129 14 54 l 14 238 q 27 299 14 269 q 65 351 40 328 q 126 387 90 374 q 204 400 161 400 q 314 389 264 400 q 407 350 364 378 l 407 421 q 392 456 407 442 q 354 471 376 471 q 315 456 331 471 q 300 421 300 442 l 38 436 q 63 569 38 513 q 131 663 88 625 q 231 718 174 700 q 354 736 289 736 m 404 211 q 390 252 404 239 q 351 265 375 265 q 311 251 328 265 q 294 215 294 238 l 294 190 q 311 145 294 156 q 351 135 328 135 q 393 155 382 135 q 404 188 404 175 l 404 211 m 289 764 l 225 764 l 283 989 l 401 989 l 460 764 l 396 764 l 342 858 l 289 764 z "},"":{"ha":696,"x_min":14,"x_max":671,"o":"m 354 736 q 477 718 419 736 q 578 663 535 700 q 646 569 621 625 q 671 436 671 513 l 671 0 l 446 0 l 424 43 q 326 -10 386 7 q 193 -26 267 -26 q 65 14 117 -26 q 14 129 14 54 l 14 238 q 27 299 14 269 q 65 351 40 328 q 126 387 90 374 q 204 400 161 400 q 314 389 264 400 q 407 350 364 378 l 407 421 q 392 456 407 442 q 354 471 376 471 q 315 456 331 471 q 300 421 300 442 l 38 436 q 63 569 38 513 q 131 663 88 625 q 231 718 174 700 q 354 736 289 736 m 404 211 q 390 252 404 239 q 351 265 375 265 q 311 251 328 265 q 294 215 294 238 l 294 190 q 311 145 294 156 q 351 135 328 135 q 393 155 382 135 q 404 188 404 175 l 404 211 m 190 764 q 186 844 181 808 q 209 899 190 874 q 272 924 228 924 q 303 916 285 924 q 342 899 322 908 q 380 883 361 890 q 411 875 399 875 q 438 883 432 875 q 444 899 444 890 q 438 922 444 908 l 492 922 q 499 843 503 878 q 477 789 496 814 q 411 764 458 764 q 380 772 399 764 q 342 788 361 779 q 303 803 322 796 q 272 811 285 811 q 246 804 253 811 q 239 788 239 797 q 246 764 239 778 l 190 764 z "},"":{"ha":696,"x_min":14,"x_max":671,"o":"m 354 736 q 477 718 419 736 q 578 663 535 700 q 646 569 621 625 q 671 436 671 513 l 671 0 l 446 0 l 424 43 q 326 -10 386 7 q 193 -26 267 -26 q 65 14 117 -26 q 14 129 14 54 l 14 238 q 27 299 14 269 q 65 351 40 328 q 126 387 90 374 q 204 400 161 400 q 314 389 264 400 q 407 350 364 378 l 407 421 q 392 456 407 442 q 354 471 376 471 q 315 456 331 471 q 300 421 300 442 l 38 436 q 63 569 38 513 q 131 663 88 625 q 231 718 174 700 q 354 736 289 736 m 404 211 q 390 252 404 239 q 351 265 375 265 q 311 251 328 265 q 294 215 294 238 l 294 190 q 311 145 294 156 q 351 135 328 135 q 393 155 382 135 q 404 188 404 175 l 404 211 m 206 749 q 151 760 176 749 q 106 790 125 771 q 76 834 88 808 q 65 889 65 860 q 76 944 65 918 q 106 989 88 969 q 151 1019 125 1008 q 206 1031 176 1031 q 260 1019 235 1031 q 306 989 286 1008 q 336 944 325 969 q 347 889 347 918 q 336 834 347 860 q 306 790 325 808 q 260 760 286 771 q 206 749 235 749 m 510 749 q 455 760 481 749 q 410 790 429 771 q 381 834 392 808 q 369 889 369 860 q 381 944 369 918 q 410 989 392 969 q 455 1019 429 1008 q 510 1031 481 1031 q 565 1019 539 1031 q 610 989 590 1008 q 640 944 629 969 q 651 889 651 918 q 640 834 651 860 q 610 790 629 808 q 565 760 590 771 q 510 749 539 749 z "},"":{"ha":696,"x_min":14,"x_max":671,"o":"m 354 736 q 477 718 419 736 q 578 663 535 700 q 646 569 621 625 q 671 436 671 513 l 671 0 l 446 0 l 424 43 q 326 -10 386 7 q 193 -26 267 -26 q 65 14 117 -26 q 14 129 14 54 l 14 238 q 27 299 14 269 q 65 351 40 328 q 126 387 90 374 q 204 400 161 400 q 314 389 264 400 q 407 350 364 378 l 407 421 q 392 456 407 442 q 354 471 376 471 q 315 456 331 471 q 300 421 300 442 l 38 436 q 63 569 38 513 q 131 663 88 625 q 231 718 174 700 q 354 736 289 736 m 404 211 q 390 252 404 239 q 351 265 375 265 q 311 251 328 265 q 294 215 294 238 l 294 190 q 311 145 294 156 q 351 135 328 135 q 393 155 382 135 q 404 188 404 175 l 404 211 m 342 749 q 287 760 313 749 q 242 790 261 771 q 213 834 224 808 q 201 889 201 860 q 213 944 201 918 q 242 989 224 969 q 287 1019 261 1008 q 342 1031 313 1031 q 397 1019 371 1031 q 442 989 422 1008 q 472 944 461 969 q 483 889 483 918 q 472 834 483 860 q 442 790 461 808 q 397 760 422 771 q 342 749 371 749 m 342 964 q 290 942 311 964 q 268 889 268 921 q 290 837 268 858 q 342 815 311 815 q 395 837 374 815 q 417 889 417 858 q 395 942 417 921 q 342 964 374 964 z "},"":{"ha":1057,"x_min":14,"x_max":1040,"o":"m 671 354 l 671 288 q 686 252 671 267 q 724 238 701 238 q 761 252 746 238 q 776 288 776 267 l 776 324 l 1040 324 l 1040 272 q 1015 140 1040 196 q 947 47 990 83 q 847 -8 904 10 q 724 -26 789 -26 q 576 0 643 -26 q 465 83 508 26 l 424 43 q 326 -10 386 7 q 193 -26 267 -26 q 65 14 117 -26 q 14 129 14 54 l 14 238 q 27 299 14 269 q 65 351 40 328 q 126 387 90 374 q 204 400 161 400 q 314 389 264 400 q 407 350 364 378 l 407 421 q 392 456 407 442 q 354 471 376 471 q 315 456 331 471 q 300 421 300 442 l 38 436 q 63 569 38 513 q 131 663 88 625 q 231 718 174 700 q 354 736 289 736 q 539 690 460 736 q 724 736 617 736 q 847 718 789 736 q 947 663 904 700 q 1015 569 990 625 q 1040 436 1040 513 l 1040 354 l 671 354 m 671 415 l 776 415 l 776 421 q 761 456 776 442 q 724 471 746 471 q 686 456 701 471 q 671 421 671 442 l 671 415 m 404 211 q 390 252 404 239 q 351 265 375 265 q 311 251 328 265 q 294 215 294 238 l 294 190 q 311 145 294 156 q 351 135 328 135 q 393 155 382 135 q 404 188 404 175 l 404 211 z "},"":{"ha":665,"x_min":17,"x_max":650,"o":"m 386 394 l 386 421 q 371 456 386 442 q 333 471 356 471 q 295 456 311 471 q 279 421 279 442 l 279 288 q 295 252 279 267 q 333 238 311 238 q 371 252 356 238 q 386 288 386 267 l 386 324 l 650 324 l 650 272 q 628 148 650 201 q 569 58 607 94 q 481 0 532 21 q 372 -25 431 -21 l 340 -62 q 372 -80 357 -67 q 379 -125 386 -93 q 351 -161 372 -154 q 307 -164 331 -168 q 249 -144 281 -160 l 267 -101 q 296 -118 283 -111 q 317 -124 307 -122 q 331 -117 328 -125 q 329 -96 336 -104 q 311 -82 322 -87 q 283 -74 300 -76 l 314 -26 q 197 -4 251 -24 q 103 52 143 15 q 40 144 63 89 q 17 272 17 199 l 17 436 q 42 569 17 513 q 110 663 67 625 q 210 718 153 700 q 333 736 268 736 q 456 718 399 736 q 557 663 514 700 q 625 569 600 625 q 650 436 650 513 l 650 394 l 386 394 z "},"":{"ha":667,"x_min":17,"x_max":650,"o":"m 279 354 l 279 288 q 295 252 279 267 q 333 238 311 238 q 371 252 356 238 q 386 288 386 267 l 386 324 l 650 324 l 650 272 q 625 140 650 196 q 557 47 600 83 q 456 -8 514 10 q 333 -26 399 -26 q 210 -8 268 -26 q 110 47 153 10 q 42 140 67 83 q 17 272 17 196 l 17 436 q 42 569 17 513 q 110 663 67 625 q 210 718 153 700 q 333 736 268 736 q 456 718 399 736 q 557 663 514 700 q 625 569 600 625 q 650 436 650 513 l 650 354 l 279 354 m 279 415 l 386 415 l 386 421 q 371 456 386 442 q 333 471 356 471 q 295 456 311 471 q 279 421 279 442 l 279 415 m 347 764 l 221 989 l 353 989 l 411 764 l 347 764 z "},"":{"ha":667,"x_min":17,"x_max":650,"o":"m 279 354 l 279 288 q 295 252 279 267 q 333 238 311 238 q 371 252 356 238 q 386 288 386 267 l 386 324 l 650 324 l 650 272 q 625 140 650 196 q 557 47 600 83 q 456 -8 514 10 q 333 -26 399 -26 q 210 -8 268 -26 q 110 47 153 10 q 42 140 67 83 q 17 272 17 196 l 17 436 q 42 569 17 513 q 110 663 67 625 q 210 718 153 700 q 333 736 268 736 q 456 718 399 736 q 557 663 514 700 q 625 569 600 625 q 650 436 650 513 l 650 354 l 279 354 m 279 415 l 386 415 l 386 421 q 371 456 386 442 q 333 471 356 471 q 295 456 311 471 q 279 421 279 442 l 279 415 m 285 764 l 221 764 l 279 989 l 411 989 l 285 764 z "},"":{"ha":667,"x_min":17,"x_max":650,"o":"m 279 354 l 279 288 q 295 252 279 267 q 333 238 311 238 q 371 252 356 238 q 386 288 386 267 l 386 324 l 650 324 l 650 272 q 625 140 650 196 q 557 47 600 83 q 456 -8 514 10 q 333 -26 399 -26 q 210 -8 268 -26 q 110 47 153 10 q 42 140 67 83 q 17 272 17 196 l 17 436 q 42 569 17 513 q 110 663 67 625 q 210 718 153 700 q 333 736 268 736 q 456 718 399 736 q 557 663 514 700 q 625 569 600 625 q 650 436 650 513 l 650 354 l 279 354 m 279 415 l 386 415 l 386 421 q 371 456 386 442 q 333 471 356 471 q 295 456 311 471 q 279 421 279 442 l 279 415 m 271 764 l 207 764 l 265 989 l 383 989 l 442 764 l 378 764 l 324 858 l 271 764 z "},"":{"ha":667,"x_min":17,"x_max":650,"o":"m 279 354 l 279 288 q 295 252 279 267 q 333 238 311 238 q 371 252 356 238 q 386 288 386 267 l 386 324 l 650 324 l 650 272 q 625 140 650 196 q 557 47 600 83 q 456 -8 514 10 q 333 -26 399 -26 q 210 -8 268 -26 q 110 47 153 10 q 42 140 67 83 q 17 272 17 196 l 17 436 q 42 569 17 513 q 110 663 67 625 q 210 718 153 700 q 333 736 268 736 q 456 718 399 736 q 557 663 514 700 q 625 569 600 625 q 650 436 650 513 l 650 354 l 279 354 m 279 415 l 386 415 l 386 421 q 371 456 386 442 q 333 471 356 471 q 295 456 311 471 q 279 421 279 442 l 279 415 m 181 749 q 126 760 151 749 q 81 790 100 771 q 51 834 63 808 q 40 889 40 860 q 51 944 40 918 q 81 989 63 969 q 126 1019 100 1008 q 181 1031 151 1031 q 235 1019 210 1031 q 281 989 261 1008 q 311 944 300 969 q 322 889 322 918 q 311 834 322 860 q 281 790 300 808 q 235 760 261 771 q 181 749 210 749 m 485 749 q 430 760 456 749 q 385 790 404 771 q 356 834 367 808 q 344 889 344 860 q 356 944 344 918 q 386 989 367 969 q 431 1019 406 1008 q 485 1031 456 1031 q 540 1019 514 1031 q 585 989 565 1008 q 615 944 604 969 q 626 889 626 918 q 615 834 626 860 q 585 790 604 808 q 540 760 565 771 q 485 749 514 749 z "},"":{"ha":328,"x_min":32,"x_max":294,"o":"m 32 0 l 32 708 l 294 708 l 294 0 l 32 0 m 217 764 l 89 989 l 222 989 l 279 764 l 217 764 z "},"":{"ha":328,"x_min":32,"x_max":294,"o":"m 32 0 l 32 708 l 294 708 l 294 0 l 32 0 m 96 764 l 32 764 l 90 989 l 222 989 l 96 764 z "},"":{"ha":328,"x_min":32,"x_max":294,"o":"m 32 0 l 32 708 l 294 708 l 294 0 l 32 0 m 110 764 l 46 764 l 104 989 l 222 989 l 281 764 l 217 764 l 164 858 l 110 764 z "},"":{"ha":328,"x_min":-129,"x_max":457,"o":"m 32 0 l 32 708 l 296 708 l 296 0 l 32 0 m 153 889 q 142 834 153 860 q 111 790 131 808 q 66 760 92 771 q 11 749 40 749 q -44 760 -18 749 q -88 790 -69 771 q -118 834 -107 808 q -129 889 -129 860 q -118 944 -129 918 q -88 989 -107 969 q -44 1019 -69 1008 q 11 1031 -18 1031 q 66 1019 40 1031 q 111 989 92 1008 q 142 944 131 969 q 153 889 153 918 m 317 1031 q 372 1019 346 1031 q 416 989 397 1008 q 446 944 435 969 q 457 889 457 918 q 446 834 457 860 q 416 790 435 808 q 372 760 397 771 q 317 749 346 749 q 262 760 288 749 q 217 790 236 771 q 186 834 197 808 q 175 889 175 860 q 186 944 175 918 q 217 989 197 969 q 262 1019 236 1008 q 317 1031 288 1031 z "},"":{"ha":692,"x_min":32,"x_max":665,"o":"m 458 736 q 610 663 556 736 q 665 436 665 590 l 665 0 l 401 0 l 401 421 q 386 456 401 442 q 349 471 371 471 q 310 456 326 471 q 294 421 294 442 l 294 0 l 32 0 l 32 708 l 294 708 l 294 651 q 340 694 314 675 q 392 723 363 710 q 458 736 422 736 m 197 764 q 193 844 188 808 q 215 899 197 874 q 278 924 233 924 q 309 916 290 924 q 348 899 328 908 q 387 883 368 890 q 418 875 406 875 q 445 883 439 875 q 451 899 451 890 q 443 922 450 908 l 499 922 q 506 843 510 878 q 484 789 503 814 q 418 764 465 764 q 387 772 406 764 q 348 788 368 779 q 309 803 328 796 q 278 811 290 811 q 251 804 258 811 q 244 788 244 797 q 251 764 244 778 l 197 764 z "},"":{"ha":667,"x_min":17,"x_max":650,"o":"m 333 736 q 456 718 399 736 q 557 663 514 700 q 625 569 600 625 q 650 436 650 513 l 650 272 q 625 140 650 196 q 557 47 600 83 q 456 -8 514 10 q 333 -26 399 -26 q 210 -8 268 -26 q 110 47 153 10 q 42 140 67 83 q 17 272 17 196 l 17 436 q 42 569 17 513 q 110 663 67 625 q 210 718 153 700 q 333 736 268 736 m 386 421 q 371 456 386 442 q 333 471 356 471 q 295 456 311 471 q 279 421 279 442 l 279 288 q 295 252 279 267 q 333 238 311 238 q 371 252 356 238 q 386 288 386 267 l 386 421 m 401 764 l 275 989 l 408 989 l 465 764 l 401 764 z "},"":{"ha":667,"x_min":17,"x_max":650,"o":"m 333 736 q 456 718 399 736 q 557 663 514 700 q 625 569 600 625 q 650 436 650 513 l 650 272 q 625 140 650 196 q 557 47 600 83 q 456 -8 514 10 q 333 -26 399 -26 q 210 -8 268 -26 q 110 47 153 10 q 42 140 67 83 q 17 272 17 196 l 17 436 q 42 569 17 513 q 110 663 67 625 q 210 718 153 700 q 333 736 268 736 m 386 421 q 371 456 386 442 q 333 471 356 471 q 295 456 311 471 q 279 421 279 442 l 279 288 q 295 252 279 267 q 333 238 311 238 q 371 252 356 238 q 386 288 386 267 l 386 421 m 301 764 l 238 764 l 296 989 l 428 989 l 301 764 z "},"":{"ha":667,"x_min":17,"x_max":650,"o":"m 333 736 q 456 718 399 736 q 557 663 514 700 q 625 569 600 625 q 650 436 650 513 l 650 272 q 625 140 650 196 q 557 47 600 83 q 456 -8 514 10 q 333 -26 399 -26 q 210 -8 268 -26 q 110 47 153 10 q 42 140 67 83 q 17 272 17 196 l 17 436 q 42 569 17 513 q 110 663 67 625 q 210 718 153 700 q 333 736 268 736 m 386 421 q 371 456 386 442 q 333 471 356 471 q 295 456 311 471 q 279 421 279 442 l 279 288 q 295 252 279 267 q 333 238 311 238 q 371 252 356 238 q 386 288 386 267 l 386 421 m 281 764 l 217 764 l 274 989 l 392 989 l 450 764 l 386 764 l 333 858 l 281 764 z "},"":{"ha":667,"x_min":17,"x_max":650,"o":"m 333 736 q 456 718 399 736 q 557 663 514 700 q 625 569 600 625 q 650 436 650 513 l 650 272 q 625 140 650 196 q 557 47 600 83 q 456 -8 514 10 q 333 -26 399 -26 q 210 -8 268 -26 q 110 47 153 10 q 42 140 67 83 q 17 272 17 196 l 17 436 q 42 569 17 513 q 110 663 67 625 q 210 718 153 700 q 333 736 268 736 m 386 421 q 371 456 386 442 q 333 471 356 471 q 295 456 311 471 q 279 421 279 442 l 279 288 q 295 252 279 267 q 333 238 311 238 q 371 252 356 238 q 386 288 386 267 l 386 421 m 174 764 q 169 844 165 808 q 192 899 174 874 q 256 924 211 924 q 287 916 268 924 q 326 899 306 908 q 365 883 346 890 q 396 875 383 875 q 422 883 415 875 q 428 899 429 890 q 421 922 428 908 l 475 922 q 482 843 486 878 q 461 789 479 814 q 396 764 443 764 q 365 772 383 764 q 326 788 346 779 q 287 803 306 796 q 256 811 268 811 q 229 804 236 811 q 222 788 222 797 q 229 764 222 778 l 174 764 z "},"":{"ha":667,"x_min":17,"x_max":650,"o":"m 333 736 q 456 718 399 736 q 557 663 514 700 q 625 569 600 625 q 650 436 650 513 l 650 272 q 625 140 650 196 q 557 47 600 83 q 456 -8 514 10 q 333 -26 399 -26 q 210 -8 268 -26 q 110 47 153 10 q 42 140 67 83 q 17 272 17 196 l 17 436 q 42 569 17 513 q 110 663 67 625 q 210 718 153 700 q 333 736 268 736 m 386 421 q 371 456 386 442 q 333 471 356 471 q 295 456 311 471 q 279 421 279 442 l 279 288 q 295 252 279 267 q 333 238 311 238 q 371 252 356 238 q 386 288 386 267 l 386 421 m 181 749 q 126 760 151 749 q 81 790 100 771 q 51 834 63 808 q 40 889 40 860 q 51 944 40 918 q 81 989 63 969 q 126 1019 100 1008 q 181 1031 151 1031 q 235 1019 210 1031 q 281 989 261 1008 q 311 944 300 969 q 322 889 322 918 q 311 834 322 860 q 281 790 300 808 q 235 760 261 771 q 181 749 210 749 m 485 749 q 431 760 456 749 q 386 790 406 771 q 356 834 367 808 q 344 889 344 860 q 356 944 344 918 q 386 989 367 969 q 431 1019 406 1008 q 485 1031 456 1031 q 540 1019 514 1031 q 585 989 565 1008 q 615 944 604 969 q 626 889 626 918 q 615 834 626 860 q 585 790 604 808 q 540 760 565 771 q 485 749 514 749 z "},"":{"ha":651,"x_min":69,"x_max":582,"o":"m 326 310 q 381 299 356 310 q 426 268 407 288 q 456 223 444 249 q 467 168 467 197 q 456 113 467 139 q 426 69 444 88 q 381 39 407 50 q 326 28 356 28 q 272 39 297 28 q 226 69 246 50 q 196 113 207 88 q 185 168 185 139 q 196 223 185 197 q 226 268 207 249 q 272 299 246 288 q 326 310 297 310 m 326 540 q 272 551 297 540 q 226 581 246 563 q 196 626 207 600 q 185 681 185 651 q 196 735 185 710 q 226 781 207 761 q 272 811 246 800 q 326 822 297 822 q 381 811 356 822 q 426 781 407 800 q 456 735 444 761 q 467 681 467 710 q 456 626 467 651 q 426 581 444 600 q 381 551 407 563 q 326 540 356 540 m 69 335 l 69 515 l 582 515 l 582 335 l 69 335 z "},"":{"ha":669,"x_min":18,"x_max":651,"o":"m 586 635 q 634 549 617 599 q 651 436 651 500 l 651 272 q 626 140 651 196 q 558 47 601 83 q 458 -8 515 10 q 335 -26 400 -26 q 196 -4 258 -26 l 154 -87 l 44 -32 l 93 64 q 38 152 57 100 q 18 272 18 204 l 18 436 q 43 569 18 513 q 111 663 68 625 q 212 718 154 700 q 335 736 269 736 q 485 707 418 736 l 525 785 l 635 729 l 586 635 m 388 421 q 372 456 388 442 q 335 471 357 471 q 297 456 313 471 q 281 421 281 442 l 281 288 q 297 252 281 267 q 335 238 313 238 q 372 252 357 238 q 388 288 388 267 l 388 421 z "},"":{"ha":692,"x_min":26,"x_max":660,"o":"m 660 708 l 660 0 l 396 0 l 396 58 q 350 17 376 35 q 299 -13 329 0 q 233 -26 269 -26 q 81 46 136 -26 q 26 272 26 118 l 26 708 l 289 708 l 289 288 q 305 252 289 267 q 343 238 321 238 q 381 252 365 238 q 396 288 396 267 l 396 708 l 660 708 m 393 764 l 267 989 l 399 989 l 457 764 l 393 764 z "},"":{"ha":692,"x_min":26,"x_max":660,"o":"m 660 708 l 660 0 l 396 0 l 396 58 q 350 17 376 35 q 299 -13 329 0 q 233 -26 269 -26 q 81 46 136 -26 q 26 272 26 118 l 26 708 l 289 708 l 289 288 q 305 252 289 267 q 343 238 321 238 q 381 252 365 238 q 396 288 396 267 l 396 708 l 660 708 m 310 764 l 246 764 l 304 989 l 438 989 l 310 764 z "},"":{"ha":692,"x_min":26,"x_max":660,"o":"m 660 708 l 660 0 l 396 0 l 396 58 q 350 17 376 35 q 299 -13 329 0 q 233 -26 269 -26 q 81 46 136 -26 q 26 272 26 118 l 26 708 l 289 708 l 289 288 q 305 252 289 267 q 343 238 321 238 q 381 252 365 238 q 396 288 396 267 l 396 708 l 660 708 m 290 764 l 226 764 l 283 989 l 401 989 l 460 764 l 396 764 l 343 858 l 290 764 z "},"":{"ha":692,"x_min":26,"x_max":660,"o":"m 660 708 l 660 0 l 396 0 l 396 58 q 351 17 376 35 q 299 -13 329 0 q 233 -26 269 -26 q 81 46 136 -26 q 26 272 26 118 l 26 708 l 289 708 l 289 288 q 305 252 289 267 q 343 238 321 238 q 381 252 365 238 q 396 288 396 267 l 396 708 l 660 708 m 190 749 q 135 760 161 749 q 91 790 110 771 q 61 834 72 808 q 50 889 50 860 q 61 944 50 918 q 91 989 72 969 q 135 1019 110 1008 q 190 1031 161 1031 q 245 1019 219 1031 q 290 989 271 1008 q 321 944 310 969 q 332 889 332 918 q 321 834 332 860 q 290 790 310 808 q 245 760 271 771 q 190 749 219 749 m 496 749 q 441 760 467 749 q 396 790 415 771 q 365 834 376 808 q 354 889 354 860 q 365 944 354 918 q 396 989 376 969 q 441 1019 415 1008 q 496 1031 467 1031 q 551 1019 525 1031 q 595 989 576 1008 q 625 944 614 969 q 636 889 636 918 q 625 834 636 860 q 595 790 614 808 q 551 760 576 771 q 496 749 525 749 z "},"":{"ha":651,"x_min":-33,"x_max":656,"o":"m 656 708 l 493 0 q 453 -163 482 -97 q 385 -271 424 -229 q 299 -333 346 -312 q 207 -361 253 -354 q -33 -335 97 -378 l -1 -85 q 153 -120 100 -121 q 229 -101 207 -119 q 250 -52 251 -82 q 240 0 249 -22 l -11 708 l 278 708 l 347 336 l 368 708 l 656 708 m 310 764 l 246 764 l 304 989 l 436 989 l 310 764 z "},"":{"ha":651,"x_min":-33,"x_max":656,"o":"m 656 708 l 493 0 q 453 -163 482 -97 q 385 -271 424 -229 q 299 -333 346 -312 q 207 -361 253 -354 q -33 -335 97 -378 l -1 -85 q 153 -120 100 -121 q 229 -101 207 -119 q 250 -52 251 -82 q 240 0 249 -22 l -11 708 l 278 708 l 347 336 l 368 708 l 656 708 m 160 749 q 105 760 131 749 q 60 790 79 771 q 29 834 40 808 q 18 889 18 860 q 29 944 18 918 q 60 989 40 969 q 105 1019 79 1008 q 160 1031 131 1031 q 215 1019 189 1031 q 259 989 240 1008 q 289 944 278 969 q 300 889 300 918 q 289 834 300 860 q 259 790 278 808 q 215 760 240 771 q 160 749 189 749 m 464 749 q 409 760 435 749 q 364 790 383 771 q 333 834 344 808 q 322 889 322 860 q 333 944 322 918 q 364 989 344 969 q 409 1019 383 1008 q 464 1031 435 1031 q 519 1019 493 1031 q 563 989 544 1008 q 593 944 582 969 q 604 889 604 918 q 593 834 604 860 q 563 790 582 808 q 519 760 544 771 q 464 749 493 749 z "},"":{"ha":328,"x_min":32,"x_max":294,"o":"m 32 0 l 32 708 l 294 708 l 294 0 l 32 0 z "},"":{"ha":1119,"x_min":6,"x_max":1092,"o":"m 1092 704 l 747 704 l 747 619 l 1069 619 l 1069 353 l 747 353 l 747 267 l 1092 267 l 1092 -1 l 414 0 q 235 42 313 0 q 108 152 158 83 q 31 308 57 221 q 6 486 6 394 q 31 665 6 578 q 110 820 57 751 q 242 931 163 889 q 431 972 322 972 l 1092 972 l 1092 704 m 463 704 l 424 704 q 363 685 389 704 q 320 636 338 667 q 294 567 303 606 q 285 486 285 528 q 294 406 285 444 q 320 336 303 367 q 363 287 338 306 q 424 268 389 268 l 463 268 l 463 704 z "},"":{"ha":1038,"x_min":17,"x_max":1019,"o":"m 650 354 l 650 288 q 665 252 650 267 q 703 238 681 238 q 742 252 726 238 q 757 288 757 267 l 757 324 l 1019 324 l 1019 272 q 994 140 1019 196 q 926 47 969 83 q 826 -8 883 10 q 703 -26 768 -26 q 605 -16 651 -26 q 518 18 558 -6 q 433 -16 479 -6 q 333 -26 386 -26 q 210 -8 268 -26 q 110 47 153 10 q 42 140 67 83 q 17 272 17 196 l 17 436 q 42 569 17 513 q 110 663 67 625 q 210 718 153 700 q 333 736 268 736 q 433 725 386 736 q 518 690 479 714 q 703 736 597 736 q 826 718 768 736 q 926 663 883 700 q 994 569 969 625 q 1019 436 1019 513 l 1019 354 l 650 354 m 650 415 l 757 415 l 757 421 q 742 456 757 442 q 703 471 726 471 q 665 456 681 471 q 650 421 650 442 l 650 415 m 386 421 q 371 456 386 442 q 333 471 356 471 q 295 456 311 471 q 279 421 279 442 l 279 288 q 295 252 279 267 q 333 238 311 238 q 371 252 356 238 q 386 288 386 267 l 386 421 z "},"":{"ha":653,"x_min":17,"x_max":640,"o":"m 274 649 q 301 603 274 615 q 368 585 328 592 q 456 568 408 578 q 543 529 503 558 q 610 443 583 500 q 638 286 638 386 q 618 172 638 228 q 560 72 599 115 q 463 1 521 28 q 325 -26 404 -26 q 206 -6 261 -26 q 108 55 150 14 q 42 159 67 96 q 18 307 18 222 l 18 363 l 274 363 l 274 324 q 288 284 274 300 q 325 268 303 268 q 362 284 347 268 q 376 324 376 300 q 350 368 376 356 q 283 390 324 381 q 197 411 243 399 q 110 455 150 424 q 43 543 69 486 q 17 697 17 600 q 36 808 17 754 q 94 905 56 863 q 191 973 133 947 q 325 999 249 999 q 448 983 397 999 q 533 941 499 967 q 588 882 568 915 q 618 814 608 849 q 622 629 640 732 l 367 629 q 367 667 369 650 q 356 693 364 682 q 325 704 347 704 q 288 688 303 704 q 274 649 274 672 m 268 1029 l 210 1254 l 274 1254 l 326 1158 l 381 1254 l 444 1254 l 386 1029 l 268 1029 z "},"":{"ha":600,"x_min":17,"x_max":586,"o":"m 251 442 q 276 418 251 424 q 338 409 300 413 q 417 399 375 406 q 497 372 460 392 q 559 313 535 351 q 583 206 583 274 q 566 121 583 163 q 513 47 549 79 q 424 -6 478 14 q 299 -26 371 -26 q 189 -11 240 -26 q 100 35 138 4 q 40 112 63 65 q 18 222 18 158 l 18 278 l 251 272 q 265 247 251 256 q 299 238 279 238 q 332 242 318 238 q 346 264 346 247 q 322 285 346 281 q 260 292 297 289 q 181 303 224 296 q 102 333 139 311 q 41 398 65 356 q 17 513 17 440 q 35 596 17 556 q 88 668 53 636 q 176 719 124 700 q 299 739 229 739 q 410 726 364 739 q 488 690 457 713 q 538 641 519 668 q 565 585 557 614 q 569 429 586 515 l 339 428 q 338 450 342 440 q 326 464 335 457 q 299 471 318 471 q 265 465 279 471 q 251 442 251 460 m 238 764 l 181 989 l 244 989 l 297 894 l 350 989 l 414 989 l 356 764 l 238 764 z "},"":{"ha":674,"x_min":-21,"x_max":693,"o":"m 693 972 l 475 424 l 475 0 l 197 0 l 197 424 l -21 972 l 282 972 l 336 763 l 390 972 l 693 972 m 183 1014 q 128 1025 154 1014 q 84 1055 103 1036 q 54 1099 65 1074 q 43 1154 43 1125 q 54 1209 43 1183 q 84 1253 65 1235 q 128 1283 103 1272 q 183 1294 154 1294 q 238 1283 213 1294 q 283 1253 264 1272 q 314 1209 303 1235 q 325 1154 325 1183 q 314 1099 325 1125 q 283 1055 303 1074 q 238 1025 264 1036 q 183 1014 213 1014 m 489 1014 q 434 1025 460 1014 q 389 1055 408 1036 q 358 1099 369 1074 q 347 1154 347 1125 q 358 1209 347 1183 q 389 1253 369 1235 q 434 1283 408 1272 q 489 1294 460 1294 q 544 1283 518 1294 q 588 1253 569 1272 q 618 1209 607 1235 q 629 1154 629 1183 q 618 1099 629 1125 q 588 1055 607 1074 q 544 1025 569 1036 q 489 1014 518 1014 z "},"":{"ha":703,"x_min":17,"x_max":685,"o":"m 685 721 l 367 268 l 685 268 l 685 0 l 17 0 l 17 257 l 346 704 l 17 704 l 17 972 l 685 972 l 685 721 m 276 1029 l 219 1254 l 283 1254 l 336 1158 l 389 1254 l 453 1254 l 394 1029 l 276 1029 z "},"":{"ha":668,"x_min":24,"x_max":644,"o":"m 644 469 l 417 250 l 644 250 l 644 0 l 24 0 l 24 236 l 253 458 l 24 458 l 24 708 l 644 708 l 644 469 m 275 764 l 217 989 l 281 989 l 333 894 l 388 989 l 451 989 l 393 764 l 275 764 z "},"":{"ha":806,"x_min":22,"x_max":782,"o":"m 22 324 l 22 504 l 782 504 l 782 324 l 22 324 z "},"":{"ha":1101,"x_min":22,"x_max":1078,"o":"m 22 324 l 22 504 l 1078 504 l 1078 324 l 22 324 z "},"":{"ha":328,"x_min":25,"x_max":307,"o":"m 165 863 q 220 851 194 863 q 265 822 246 840 q 296 777 285 803 q 307 722 307 751 q 296 667 307 693 q 265 623 285 642 q 220 593 246 604 q 165 582 194 582 q 110 593 136 582 q 66 623 85 604 q 36 667 47 642 q 25 722 25 693 q 36 828 25 781 q 60 911 47 875 q 94 986 75 953 l 185 947 q 168 922 176 936 q 153 896 161 911 q 139 861 146 881 q 152 863 146 863 q 165 863 158 863 z "},"":{"ha":328,"x_min":21,"x_max":303,"o":"m 161 986 q 216 975 190 986 q 261 944 242 964 q 292 899 281 925 q 303 844 303 874 q 292 740 303 788 q 268 657 282 692 q 233 582 253 615 l 143 619 q 160 644 151 631 q 174 672 167 656 q 188 707 182 688 q 174 704 181 704 q 161 704 168 704 q 106 715 132 704 q 62 745 81 726 q 32 790 43 764 q 21 844 21 815 q 32 899 21 874 q 62 944 43 925 q 106 975 81 964 q 161 986 132 986 z "},"":{"ha":328,"x_min":22,"x_max":304,"o":"m 163 263 q 217 251 192 263 q 263 222 243 240 q 293 177 282 203 q 304 122 304 151 q 294 17 304 65 q 269 -67 283 -31 q 235 -142 254 -108 l 144 -104 q 161 -79 153 -93 q 176 -51 168 -67 q 189 -17 183 -36 q 176 -19 182 -18 q 163 -19 169 -19 q 108 -8 133 -19 q 63 22 82 3 q 33 67 44 42 q 22 122 22 93 q 33 177 22 151 q 63 222 44 203 q 108 251 82 240 q 163 263 133 263 z "},"":{"ha":635,"x_min":25,"x_max":614,"o":"m 165 863 q 220 851 194 863 q 265 822 246 840 q 296 777 285 803 q 307 722 307 751 q 296 667 307 693 q 265 623 285 642 q 220 593 246 604 q 165 582 194 582 q 110 593 136 582 q 66 623 85 604 q 36 667 47 642 q 25 722 25 693 q 36 828 25 781 q 60 911 47 875 q 94 986 75 953 l 185 947 q 168 922 176 936 q 153 896 161 911 q 139 861 146 881 q 152 863 146 863 q 165 863 158 863 m 472 863 q 527 851 501 863 q 572 822 553 840 q 603 777 592 803 q 614 722 614 751 q 603 667 614 693 q 572 623 592 642 q 527 593 553 604 q 472 582 501 582 q 417 593 443 582 q 373 623 392 604 q 343 667 354 642 q 332 722 332 693 q 342 828 332 781 q 367 911 353 875 q 400 986 381 953 l 490 947 q 474 922 482 936 q 460 896 467 911 q 446 861 453 881 q 459 863 453 863 q 472 863 465 863 z "},"":{"ha":635,"x_min":21,"x_max":610,"o":"m 468 986 q 523 975 497 986 q 568 944 549 964 q 599 899 588 925 q 610 844 610 874 q 599 740 610 788 q 575 657 589 692 q 540 582 560 615 l 450 619 q 467 644 458 631 q 481 672 474 656 q 494 707 489 688 q 481 704 488 704 q 468 704 475 704 q 413 715 439 704 q 369 745 388 726 q 339 790 350 764 q 328 844 328 815 q 339 899 328 874 q 369 944 350 925 q 413 975 388 964 q 468 986 439 986 m 161 986 q 216 975 190 986 q 261 944 242 964 q 292 899 281 925 q 303 844 303 874 q 292 740 303 788 q 268 657 282 692 q 233 582 253 615 l 143 619 q 160 644 151 631 q 174 672 167 656 q 188 707 182 688 q 174 704 181 704 q 161 704 168 704 q 106 715 132 704 q 62 745 81 726 q 32 790 43 764 q 21 844 21 815 q 32 899 21 874 q 62 944 43 925 q 106 975 81 964 q 161 986 132 986 z "},"":{"ha":631,"x_min":22,"x_max":607,"o":"m 163 263 q 217 251 192 263 q 263 222 243 240 q 293 177 282 203 q 304 122 304 151 q 294 17 304 65 q 269 -67 283 -31 q 235 -142 254 -108 l 144 -104 q 161 -79 153 -93 q 176 -51 168 -67 q 189 -17 183 -36 q 176 -19 182 -18 q 163 -19 169 -19 q 108 -8 133 -19 q 63 22 82 3 q 33 67 44 42 q 22 122 22 93 q 33 177 22 151 q 63 222 44 203 q 108 251 82 240 q 163 263 133 263 m 465 263 q 520 251 494 263 q 565 222 546 240 q 596 177 585 203 q 607 122 607 151 q 597 17 607 65 q 572 -67 586 -31 q 538 -142 557 -108 l 447 -104 q 464 -79 456 -93 q 478 -51 471 -67 q 492 -17 486 -36 q 478 -19 485 -18 q 465 -19 472 -19 q 410 -8 436 -19 q 366 22 385 3 q 336 67 347 42 q 325 122 325 93 q 336 177 325 151 q 366 222 347 203 q 410 251 385 240 q 465 263 436 263 z "},"":{"ha":611,"x_min":69,"x_max":542,"o":"m 542 739 l 542 557 l 396 557 l 396 11 l 215 11 l 215 557 l 69 557 l 69 739 l 215 739 l 215 956 l 396 956 l 396 739 l 542 739 z "},"":{"ha":526,"x_min":26,"x_max":499,"o":"m 353 568 l 353 407 l 499 407 l 499 225 l 353 225 l 353 8 l 172 8 l 172 22 l 172 22 l 172 225 l 26 225 l 26 407 l 172 407 l 172 568 l 26 568 l 26 750 l 172 750 l 172 967 l 353 967 l 353 750 l 499 750 l 499 568 l 353 568 z "},"":{"ha":447,"x_min":24,"x_max":424,"o":"m 408 338 q 363 272 392 300 q 299 230 335 244 q 224 215 264 215 q 147 229 185 214 q 81 274 108 246 q 40 338 54 303 q 24 413 25 374 q 39 490 24 453 q 83 556 54 528 q 147 598 111 583 q 222 613 182 613 q 300 599 261 614 q 365 553 338 582 q 408 490 393 525 q 423 415 422 454 q 408 338 424 375 z "},"":{"ha":940,"x_min":19,"x_max":917,"o":"m 283 47 q 245 6 268 22 q 196 -16 222 -10 q 142 -18 169 -22 q 89 1 114 -14 q 48 40 64 17 q 26 89 32 63 q 24 143 19 115 q 43 196 28 171 q 81 237 58 221 q 131 259 104 253 q 185 261 157 265 q 238 242 213 257 q 278 203 263 226 q 301 154 294 181 q 303 100 307 128 q 283 47 299 72 m 469 263 q 524 251 499 263 q 569 222 550 240 q 600 177 589 203 q 611 122 611 151 q 600 67 611 93 q 569 22 589 42 q 524 -8 550 3 q 469 -19 499 -19 q 415 -8 440 -19 q 370 22 389 3 q 340 67 351 42 q 329 122 329 93 q 340 177 329 151 q 370 222 351 203 q 415 251 389 240 q 469 263 440 263 m 776 263 q 831 251 806 263 q 876 222 857 240 q 906 177 894 203 q 917 122 917 151 q 906 67 917 93 q 876 22 894 42 q 831 -8 857 3 q 776 -19 806 -19 q 722 -8 747 -19 q 677 22 696 3 q 647 67 658 42 q 636 122 636 93 q 647 177 636 151 q 677 222 658 203 q 722 251 696 240 q 776 263 747 263 z "},"":{"ha":1506,"x_min":19,"x_max":1485,"o":"m 397 606 q 347 467 397 518 q 208 417 296 417 q 70 467 121 417 q 19 606 19 518 l 19 800 q 70 938 19 888 q 208 989 121 989 q 347 938 296 989 q 397 800 397 888 l 397 606 m 232 790 q 225 806 232 800 q 208 813 218 813 q 186 790 186 813 l 186 614 q 208 592 186 592 q 225 598 218 592 q 232 614 232 604 l 232 790 m 849 561 q 987 510 936 561 q 1038 372 1038 460 l 1038 178 q 987 40 1038 90 q 849 -11 936 -11 q 710 40 761 -11 q 660 178 660 90 l 660 372 q 710 510 660 460 q 849 561 761 561 m 871 364 q 849 386 871 386 q 832 380 839 386 q 825 364 825 374 l 825 188 q 832 172 825 178 q 849 165 839 165 q 871 188 871 165 l 871 364 m 1296 561 q 1434 510 1383 561 q 1485 372 1485 460 l 1485 178 q 1434 40 1485 90 q 1296 -11 1383 -11 q 1158 40 1208 -11 q 1107 178 1107 90 l 1107 372 q 1158 510 1107 460 q 1296 561 1208 561 m 1318 364 q 1296 386 1318 386 q 1274 364 1274 386 l 1274 188 q 1296 165 1274 165 q 1318 188 1318 165 l 1318 364 m 775 972 l 472 0 l 282 0 l 585 972 l 775 972 z "},"":{"ha":542,"x_min":69,"x_max":525,"o":"m 326 419 l 525 221 l 396 93 l 69 419 l 396 747 l 525 618 l 326 419 z "},"":{"ha":542,"x_min":17,"x_max":472,"o":"m 472 419 l 144 93 l 17 221 l 215 419 l 17 618 l 144 747 l 343 547 l 472 419 z "},"":{"ha":804,"x_min":13,"x_max":778,"o":"m 778 338 l 778 307 q 751 159 778 222 q 680 55 725 96 q 574 -6 635 14 q 444 -26 514 -26 q 314 -6 375 -26 q 208 55 253 14 q 136 159 163 96 q 110 307 110 222 l 110 363 l 13 363 l 13 486 l 110 486 l 110 508 l 13 508 l 13 632 l 110 632 l 110 665 q 136 814 110 751 q 208 917 163 876 q 314 978 253 958 q 444 999 375 999 q 623 962 557 999 q 724 871 689 925 q 768 756 758 817 q 776 649 778 696 l 494 649 q 481 688 492 671 q 444 704 469 704 q 404 688 421 704 q 388 649 388 672 l 388 632 l 567 632 l 567 508 l 388 508 l 388 486 l 567 486 l 567 363 l 388 363 l 388 324 q 404 284 388 300 q 444 268 421 268 q 484 284 468 268 q 500 324 500 300 l 500 338 l 778 338 z "},"":{"ha":558,"x_min":22,"x_max":535,"o":"m 22 335 l 22 515 l 535 515 l 535 335 l 22 335 z "},"":{"ha":568,"x_min":26,"x_max":539,"o":"m 392 444 l 383 404 l 539 404 l 539 224 l 343 224 l 304 49 l 126 88 l 157 224 l 26 224 l 26 404 l 197 404 l 207 444 l 26 444 l 26 626 l 247 626 l 286 801 l 463 761 l 433 626 l 539 626 l 539 444 l 392 444 z "},"":{"ha":582,"x_min":26,"x_max":554,"o":"m 271 444 l 554 332 l 488 163 l 26 347 l 26 542 l 488 726 l 554 558 l 271 444 m 26 -32 l 26 149 l 554 149 l 554 -32 l 26 -32 z "},"":{"ha":582,"x_min":26,"x_max":554,"o":"m 554 542 l 554 347 l 93 163 l 26 332 l 310 444 l 26 558 l 93 726 l 554 542 m 26 -32 l 26 149 l 554 149 l 554 -32 l 26 -32 z "},"":{"ha":661,"x_min":-4,"x_max":664,"o":"m 17 133 l 285 133 l 282 103 l 13 103 l 17 133 m 10 82 l 281 82 l 278 51 l 4 51 l 10 82 m 619 278 l 40 278 l 153 972 l 507 972 l 619 278 m 357 367 l 331 594 l 303 367 l 357 367 m 656 51 l 382 51 l 381 82 l 651 82 l 656 51 m 647 103 l 378 103 l 376 133 l 643 133 l 647 103 m 664 0 l 386 0 l 385 31 l 660 31 l 664 0 m 1 31 l 276 31 l 274 0 l -4 0 l 1 31 m 639 154 l 21 154 l 25 183 l 635 183 l 639 154 m 631 206 l 29 206 l 33 235 l 626 235 l 631 206 z "},"":{"ha":733,"x_min":31,"x_max":726,"o":"m 726 235 l 726 235 q 726 219 726 226 q 725 206 725 213 l 31 206 l 31 235 l 726 235 m 308 381 l 308 278 l 31 278 l 31 972 l 397 972 q 621 897 543 972 q 699 688 699 822 q 593 468 699 536 q 724 278 707 408 l 424 278 q 449 324 449 293 q 432 364 449 347 q 392 381 415 381 l 308 381 m 308 592 l 365 592 q 405 608 389 592 q 421 649 421 625 q 405 688 421 672 q 365 704 389 704 l 308 704 l 308 592 m 31 133 l 708 133 q 701 117 706 125 q 693 103 697 110 l 31 103 l 31 133 m 31 31 l 606 31 q 523 7 569 14 q 424 0 476 0 l 31 0 l 31 31 m 31 183 l 722 183 q 719 169 721 176 q 715 154 718 161 l 31 154 l 31 183 m 31 82 l 678 82 q 663 66 671 74 q 644 51 654 58 l 31 51 l 31 82 z "},"":{"ha":774,"x_min":31,"x_max":765,"o":"m 31 133 l 649 133 q 635 117 642 125 q 621 103 628 110 l 31 103 l 31 133 m 31 82 l 597 82 q 554 51 578 67 l 31 51 l 31 82 m 342 972 q 528 931 449 972 q 661 820 608 889 q 740 665 714 751 q 765 486 765 578 q 757 379 765 432 q 731 278 749 326 l 393 278 q 434 310 417 289 q 463 360 451 332 q 481 420 475 388 q 486 486 486 453 q 478 567 486 528 q 452 636 469 606 q 408 685 435 667 q 347 704 382 704 l 308 704 l 308 278 l 31 278 l 31 972 l 342 972 m 31 235 l 713 235 q 706 220 710 228 q 699 206 701 213 l 31 206 l 31 235 m 31 31 l 513 31 q 440 8 478 15 q 357 0 401 0 l 31 0 l 31 31 m 31 154 l 31 183 l 686 183 l 665 154 l 31 154 z "},"":{"ha":640,"x_min":31,"x_max":653,"o":"m 31 154 l 31 183 l 653 183 l 653 154 l 31 154 m 31 103 l 31 133 l 653 133 l 653 103 l 31 103 m 31 51 l 31 82 l 653 82 l 653 51 l 31 51 m 31 0 l 31 31 l 653 31 l 653 0 l 31 0 m 31 206 l 31 235 l 653 235 l 653 206 l 31 206 m 308 278 l 31 278 l 31 972 l 308 972 l 308 278 z "},"":{"ha":1057,"x_min":-3,"x_max":1058,"o":"m 10 82 l 286 82 l 282 51 l 6 51 l 10 82 m 33 235 l 306 235 l 301 206 l 28 206 l 33 235 m 25 183 l 299 183 l 294 154 l 21 154 l 25 183 m 17 133 l 292 133 l 289 103 l 13 103 l 17 133 m 356 235 l 701 235 l 696 206 l 360 206 l 356 235 m 1017 278 l 746 278 l 728 417 l 707 278 l 349 278 l 329 417 l 311 278 l 39 278 l 144 972 l 422 972 l 528 594 l 633 972 l 913 972 l 1017 278 m 363 183 l 693 183 l 689 154 l 367 154 l 363 183 m 1058 0 l 781 0 l 778 31 l 1054 31 l 1058 0 m 371 133 l 686 133 l 682 103 l 375 103 l 371 133 m 1 31 l 279 31 l 275 0 l -3 0 l 1 31 m 1028 206 l 754 206 l 751 235 l 1024 235 l 1028 206 m 385 31 l 671 31 l 667 0 l 390 0 l 385 31 m 1036 154 l 761 154 l 757 183 l 1031 183 l 1036 154 m 378 82 l 679 82 l 674 51 l 382 51 l 378 82 m 1051 51 l 775 51 l 771 82 l 1047 82 l 1051 51 m 1043 103 l 768 103 l 764 133 l 1039 133 l 1043 103 z "},"":{"ha":731,"x_min":31,"x_max":699,"o":"m 31 103 l 31 133 l 308 133 l 308 103 l 31 103 m 31 206 l 31 235 l 308 235 l 308 206 l 31 206 m 31 154 l 31 183 l 308 183 l 308 154 l 31 154 m 31 51 l 31 82 l 308 82 l 308 51 l 31 51 m 699 972 l 699 278 l 333 278 l 308 357 l 308 278 l 31 278 l 31 972 l 308 972 l 421 647 l 421 972 l 699 972 m 381 133 l 699 133 l 699 103 l 390 103 l 381 133 m 413 31 l 699 31 l 699 0 l 424 0 l 413 31 m 397 82 l 699 82 l 699 51 l 407 51 l 397 82 m 31 0 l 31 31 l 308 31 l 308 0 l 31 0 m 347 235 l 699 235 l 699 206 l 357 206 l 347 235 m 364 183 l 699 183 l 699 154 l 374 154 l 364 183 z "},"":{"ha":736,"x_min":31,"x_max":740,"o":"m 31 206 l 31 235 l 308 235 l 308 206 l 31 206 m 31 103 l 31 133 l 308 133 l 308 103 l 31 103 m 619 278 l 347 278 l 333 324 l 308 324 l 308 278 l 31 278 l 31 972 l 375 972 q 513 947 453 972 q 615 877 574 921 q 677 774 656 833 q 699 649 699 715 q 667 497 699 565 q 574 383 636 428 l 619 278 m 365 592 q 405 608 389 592 q 421 649 421 625 q 405 688 421 672 q 365 704 389 704 l 308 704 l 308 592 l 365 592 m 31 154 l 31 183 l 308 183 l 308 154 l 31 154 m 31 51 l 31 82 l 308 82 l 308 51 l 31 51 m 31 0 l 31 31 l 308 31 l 308 0 l 31 0 m 718 51 l 419 51 l 410 82 l 704 82 l 718 51 m 651 206 l 371 206 l 361 235 l 638 235 l 651 206 m 740 0 l 435 0 l 425 31 l 726 31 l 740 0 m 674 154 l 386 154 l 378 183 l 660 183 l 674 154 m 696 103 l 403 103 l 393 133 l 682 133 l 696 103 z "},"":{"ha":722,"x_min":26,"x_max":694,"o":"m 361 -26 q 250 -12 303 -26 q 156 31 197 1 l 567 31 q 472 -12 524 1 q 361 -26 419 -26 m 82 103 q 73 117 78 110 q 65 133 68 125 l 657 133 q 639 103 649 115 l 82 103 m 694 972 l 694 307 l 694 278 l 393 278 q 417 324 417 294 l 417 972 l 694 972 m 128 51 q 99 82 110 67 l 622 82 q 593 51 611 67 l 128 51 m 304 324 q 328 278 304 294 l 28 278 q 26 292 26 285 q 26 307 26 300 l 26 972 l 304 972 l 304 324 m 54 154 q 49 169 51 161 q 44 183 47 176 l 678 183 q 672 169 675 176 q 667 154 669 161 l 54 154 m 38 206 q 35 220 36 213 q 32 235 33 228 l 689 235 q 687 220 688 228 q 683 206 686 213 l 38 206 z "},"":{"ha":1060,"x_min":7,"x_max":1065,"o":"m 1065 710 l 903 1 q 863 -162 892 -96 q 794 -269 833 -228 q 709 -332 756 -311 q 617 -360 663 -353 q 375 -333 507 -376 l 408 -83 q 562 -119 508 -119 q 638 -99 615 -118 q 658 -50 660 -79 q 649 1 657 -21 l 486 460 l 343 460 l 343 349 q 350 294 343 315 q 369 260 357 272 q 394 243 381 247 q 422 239 408 239 q 464 246 447 239 q 479 251 472 247 l 479 1 q 279 -19 367 -33 q 206 6 242 -12 q 142 59 169 24 q 97 150 114 94 q 79 286 79 206 l 79 460 l 7 460 l 7 710 l 79 710 l 246 926 l 343 926 l 343 710 l 688 710 l 757 338 l 776 710 l 1065 710 z "},"":{"ha":1486,"x_min":7,"x_max":1490,"o":"m 1490 710 l 1328 1 q 1288 -162 1317 -96 q 1219 -269 1258 -228 q 1134 -332 1181 -311 q 1042 -360 1088 -353 q 801 -333 932 -376 l 833 -83 q 947 -114 901 -107 q 1020 -117 992 -121 q 1063 -99 1049 -112 q 1082 -68 1078 -85 q 1083 -33 1086 -51 q 1074 1 1079 -14 l 913 460 l 768 460 q 769 399 768 426 q 769 349 769 371 q 776 294 769 315 q 794 260 783 272 q 819 243 806 247 q 847 239 833 239 q 890 246 874 239 q 906 251 899 247 l 906 1 q 706 -19 793 -33 q 632 6 668 -12 q 568 59 596 24 q 523 150 540 94 q 506 286 506 206 l 506 460 l 343 460 l 343 349 q 350 294 343 315 q 369 260 357 272 q 394 243 381 247 q 422 239 408 239 q 464 246 447 239 q 479 251 472 247 l 479 1 q 279 -19 367 -33 q 206 6 242 -12 q 142 59 169 24 q 97 150 114 94 q 79 286 79 206 l 79 460 l 7 460 l 7 710 l 79 710 l 246 926 l 343 926 l 343 710 l 506 710 l 672 926 l 768 926 l 768 710 l 1113 710 l 1182 338 l 1201 710 l 1490 710 z "},"":{"ha":929,"x_min":7,"x_max":904,"o":"m 904 710 l 904 460 l 767 460 q 767 399 767 426 q 768 349 768 371 q 775 294 768 315 q 793 260 782 272 q 818 243 804 247 q 846 239 832 239 q 889 246 872 239 q 904 251 897 247 l 904 1 q 704 -19 792 -33 q 631 6 667 -12 q 567 59 594 24 q 522 150 539 94 q 504 286 504 206 l 504 460 l 343 460 l 343 349 q 350 294 343 315 q 369 260 357 272 q 394 243 381 247 q 422 239 408 239 q 464 246 447 239 q 479 251 472 247 l 479 1 q 279 -19 367 -33 q 206 6 242 -12 q 142 59 169 24 q 97 150 114 94 q 79 286 79 206 l 79 460 l 7 460 l 7 710 l 79 710 l 246 926 l 343 926 l 343 710 l 504 710 l 671 926 l 767 926 l 767 710 l 904 710 z "},"":{"ha":771,"x_min":10,"x_max":738,"o":"m 413 724 q 361 708 376 724 q 346 668 346 692 l 738 668 l 738 1 q 726 -105 738 -58 q 697 -188 715 -151 q 655 -251 678 -225 q 607 -297 632 -278 q 475 -358 549 -342 l 357 -144 q 417 -115 390 -135 q 457 -71 439 -99 q 475 1 475 -43 l 475 418 l 346 418 l 346 1 l 82 1 l 82 418 l 10 418 l 10 668 l 82 668 l 82 689 q 101 801 82 749 q 160 891 121 853 q 258 951 199 929 q 397 974 318 974 l 738 974 l 738 724 l 413 724 z "},"":{"ha":901,"x_min":10,"x_max":897,"o":"m 828 724 q 776 708 792 724 q 761 668 761 692 l 897 668 l 897 417 l 761 417 l 761 1 l 497 1 l 497 417 l 346 417 l 346 1 l 82 1 l 82 417 l 10 417 l 10 668 l 82 668 l 82 689 q 101 799 82 747 q 160 890 121 851 q 258 951 199 929 q 397 974 318 974 l 897 974 l 897 724 l 828 724 m 497 689 q 498 707 497 699 q 500 724 499 715 l 413 724 q 361 708 376 724 q 346 668 346 692 l 497 668 l 497 689 z "},"":{"ha":769,"x_min":10,"x_max":739,"o":"m 413 724 q 361 708 376 724 q 346 668 346 692 l 739 667 l 739 1 l 475 1 l 475 417 l 346 417 l 346 1 l 82 1 l 82 417 l 10 417 l 10 668 l 82 668 l 82 689 q 101 799 82 747 q 160 890 121 851 q 258 951 199 929 q 397 974 318 974 l 739 974 l 739 724 l 413 724 z "},"":{"ha":1174,"x_min":10,"x_max":1143,"o":"m 817 724 q 765 708 781 724 q 750 668 750 692 l 1143 667 l 1143 1 l 879 1 l 879 417 l 750 417 l 750 1 l 486 1 l 486 417 l 346 417 l 346 1 l 82 1 l 82 417 l 10 417 l 10 668 l 82 668 l 82 689 q 101 799 82 747 q 160 890 121 851 q 258 951 199 929 q 397 974 318 974 l 1143 974 l 1143 724 l 817 724 m 486 668 q 488 692 486 681 q 488 710 488 701 q 489 724 489 719 l 413 724 q 361 708 376 724 q 346 668 346 692 l 486 668 z "}}}
